<svg width="49" height="49" viewBox="0 0 49 49" fill="none" xmlns="http://www.w3.org/2000/svg">
<rect x="0.207092" y="0.243164" width="48" height="48" rx="12" fill="#E0F8EA"/>
<path d="M16.2247 22.6485C16.2435 22.5857 16.2624 22.5197 16.2812 22.4569C16.4226 21.9512 16.7335 21.5899 17.2173 21.3889C21.4923 19.6268 25.7704 17.8646 30.0455 16.1025C30.6643 15.848 31.3459 15.9831 31.8108 16.448C32.2725 16.9097 32.4013 17.5819 32.1469 18.2007C30.3847 22.482 28.6226 26.7665 26.8604 31.0478C26.6562 31.5472 26.2824 31.8519 25.7642 31.9901C25.7296 31.9995 25.6982 32.0121 25.6636 32.0246C25.4846 32.0246 25.3087 32.0246 25.1297 32.0246C25.0543 32.0027 24.982 31.9838 24.9066 31.9618C24.4606 31.8205 24.1151 31.5535 23.9329 31.12C23.4994 30.0929 23.0754 29.0595 22.6513 28.026C22.5006 27.6554 22.689 27.3036 23.066 27.247C23.3141 27.2094 23.5434 27.3476 23.6533 27.6146C23.9486 28.3276 24.2439 29.0406 24.5391 29.7536C24.6585 30.0426 24.7779 30.3316 24.9004 30.6206C24.9915 30.8405 25.1642 30.9598 25.3809 30.9567C25.6165 30.9504 25.7893 30.8436 25.8804 30.6206C27.6394 26.3424 29.3984 22.0642 31.1574 17.7861C31.2485 17.5693 31.2234 17.3746 31.06 17.2113C30.8779 17.0259 30.6643 17.0071 30.4255 17.1045C28.9021 17.7358 27.3787 18.3609 25.8553 18.9891C23.1194 20.1136 20.3866 21.2413 17.6507 22.3658C17.4246 22.46 17.2926 22.6516 17.2926 22.8872C17.2926 23.1071 17.4151 23.2704 17.6507 23.3678C19.1427 23.9803 20.6316 24.5928 22.1205 25.2085C22.221 25.2493 22.2744 25.2367 22.3467 25.1614C23.1068 24.3918 23.8701 23.6254 24.6365 22.8621C24.9475 22.5511 25.4312 22.6642 25.5506 23.0694C25.6071 23.2673 25.5631 23.4463 25.4218 23.5908C24.536 24.4797 23.6502 25.3655 22.7613 26.2513C22.5791 26.4304 22.3561 26.4681 22.1236 26.3707C20.4557 25.6796 18.7847 24.9949 17.123 24.2944C16.6456 24.0934 16.3754 23.6913 16.2592 23.1888C16.2498 23.1542 16.2372 23.1228 16.2247 23.0882C16.2247 22.9406 16.2247 22.7961 16.2247 22.6485Z" fill="#219653" stroke="#219653" stroke-width="0.490446"/>
</svg>
