<svg width="86" height="48" viewBox="0 0 86 48" fill="none" xmlns="http://www.w3.org/2000/svg">
<rect x="0.5" y="0.5" width="85" height="47" rx="15.5" fill="white"/>
<path d="M29.3333 21.4533V18C29.3333 17.8232 29.2631 17.6536 29.1381 17.5286C29.013 17.4036 28.8435 17.3333 28.6667 17.3333C28.4898 17.3333 28.3203 17.4036 28.1952 17.5286C28.0702 17.6536 28 17.8232 28 18V21.4533C27.6139 21.5935 27.2803 21.8491 27.0445 22.1854C26.8088 22.5218 26.6823 22.9226 26.6823 23.3333C26.6823 23.7441 26.8088 24.1449 27.0445 24.4812C27.2803 24.8176 27.6139 25.0732 28 25.2133V30C28 30.1768 28.0702 30.3464 28.1952 30.4714C28.3203 30.5964 28.4898 30.6667 28.6667 30.6667C28.8435 30.6667 29.013 30.5964 29.1381 30.4714C29.2631 30.3464 29.3333 30.1768 29.3333 30V25.2133C29.7194 25.0732 30.053 24.8176 30.2888 24.4812C30.5245 24.1449 30.651 23.7441 30.651 23.3333C30.651 22.9226 30.5245 22.5218 30.2888 22.1854C30.053 21.8491 29.7194 21.5935 29.3333 21.4533ZM28.6667 24C28.5348 24 28.4059 23.9609 28.2963 23.8876C28.1866 23.8144 28.1012 23.7103 28.0507 23.5885C28.0003 23.4666 27.9871 23.3326 28.0128 23.2033C28.0385 23.0739 28.102 22.9552 28.1952 22.8619C28.2885 22.7687 28.4073 22.7052 28.5366 22.6795C28.6659 22.6537 28.8 22.667 28.9218 22.7174C29.0436 22.7679 29.1477 22.8533 29.221 22.9629C29.2942 23.0726 29.3333 23.2015 29.3333 23.3333C29.3333 23.5101 29.2631 23.6797 29.1381 23.8047C29.013 23.9298 28.8435 24 28.6667 24ZM24.6667 25.4533V18C24.6667 17.8232 24.5964 17.6536 24.4714 17.5286C24.3464 17.4036 24.1768 17.3333 24 17.3333C23.8232 17.3333 23.6536 17.4036 23.5286 17.5286C23.4036 17.6536 23.3333 17.8232 23.3333 18V25.4533C22.9472 25.5935 22.6136 25.8491 22.3779 26.1854C22.1421 26.5218 22.0157 26.9226 22.0157 27.3333C22.0157 27.7441 22.1421 28.1449 22.3779 28.4812C22.6136 28.8176 22.9472 29.0732 23.3333 29.2133V30C23.3333 30.1768 23.4036 30.3464 23.5286 30.4714C23.6536 30.5964 23.8232 30.6667 24 30.6667C24.1768 30.6667 24.3464 30.5964 24.4714 30.4714C24.5964 30.3464 24.6667 30.1768 24.6667 30V29.2133C25.0528 29.0732 25.3863 28.8176 25.6221 28.4812C25.8578 28.1449 25.9843 27.7441 25.9843 27.3333C25.9843 26.9226 25.8578 26.5218 25.6221 26.1854C25.3863 25.8491 25.0528 25.5935 24.6667 25.4533ZM24 28C23.8681 28 23.7392 27.9609 23.6296 27.8876C23.52 27.8144 23.4345 27.7103 23.3841 27.5885C23.3336 27.4666 23.3204 27.3326 23.3461 27.2033C23.3719 27.0739 23.4353 26.9552 23.5286 26.8619C23.6218 26.7687 23.7406 26.7052 23.8699 26.6795C23.9992 26.6537 24.1333 26.667 24.2551 26.7174C24.3769 26.7679 24.481 26.8533 24.5543 26.9629C24.6276 27.0726 24.6667 27.2015 24.6667 27.3333C24.6667 27.5101 24.5964 27.6797 24.4714 27.8047C24.3464 27.9298 24.1768 28 24 28ZM20 20.12V18C20 17.8232 19.9297 17.6536 19.8047 17.5286C19.6797 17.4036 19.5101 17.3333 19.3333 17.3333C19.1565 17.3333 18.9869 17.4036 18.8619 17.5286C18.7369 17.6536 18.6667 17.8232 18.6667 18V20.12C18.2805 20.2601 17.947 20.5157 17.7112 20.8521C17.4755 21.1885 17.349 21.5892 17.349 22C17.349 22.4107 17.4755 22.8115 17.7112 23.1479C17.947 23.4842 18.2805 23.7399 18.6667 23.88V30C18.6667 30.1768 18.7369 30.3464 18.8619 30.4714C18.9869 30.5964 19.1565 30.6667 19.3333 30.6667C19.5101 30.6667 19.6797 30.5964 19.8047 30.4714C19.9297 30.3464 20 30.1768 20 30V23.88C20.3861 23.7399 20.7197 23.4842 20.9554 23.1479C21.1912 22.8115 21.3176 22.4107 21.3176 22C21.3176 21.5892 21.1912 21.1885 20.9554 20.8521C20.7197 20.5157 20.3861 20.2601 20 20.12ZM19.3333 22.6667C19.2015 22.6667 19.0726 22.6276 18.9629 22.5543C18.8533 22.4811 18.7679 22.3769 18.7174 22.2551C18.6669 22.1333 18.6537 21.9993 18.6795 21.8699C18.7052 21.7406 18.7687 21.6218 18.8619 21.5286C18.9551 21.4354 19.0739 21.3719 19.2033 21.3461C19.3326 21.3204 19.4666 21.3336 19.5884 21.3841C19.7103 21.4345 19.8144 21.52 19.8876 21.6296C19.9609 21.7392 20 21.8681 20 22C20 22.1768 19.9297 22.3464 19.8047 22.4714C19.6797 22.5964 19.5101 22.6667 19.3333 22.6667Z" fill="#8D8E8D"/>
<path d="M40.896 19.2H47.154V20.628H42.506V23.47H46.342V24.856H42.506V29H40.896V19.2ZM49.3822 19.228C49.5502 19.396 49.6482 19.62 49.6482 19.872C49.6482 20.138 49.5502 20.362 49.3822 20.53C49.2002 20.698 48.9762 20.782 48.7242 20.782C48.4582 20.782 48.2342 20.698 48.0662 20.53C47.8842 20.362 47.8002 20.138 47.8002 19.872C47.8002 19.62 47.8842 19.396 48.0662 19.228C48.2342 19.06 48.4582 18.962 48.7242 18.962C48.9762 18.962 49.2002 19.06 49.3822 19.228ZM47.9682 21.832H49.4802V29H47.9682V21.832ZM50.6963 19.2H52.2083V29H50.6963V19.2ZM53.4245 19.83H54.9365V21.832H56.6725V23.162H54.9365V26.9C54.9365 27.18 54.9925 27.39 55.1045 27.502C55.2165 27.614 55.3985 27.67 55.6785 27.67H56.8265V29H55.3705C54.6845 29 54.1945 28.846 53.8865 28.524C53.5785 28.216 53.4245 27.726 53.4245 27.054V19.83ZM57.4007 23.498C57.6947 22.938 58.1007 22.518 58.6327 22.21C59.1647 21.902 59.7667 21.748 60.4527 21.748C61.1387 21.748 61.7407 21.888 62.2727 22.168C62.8047 22.448 63.2107 22.854 63.5187 23.358C63.8267 23.876 63.9807 24.478 63.9947 25.164C63.9947 25.36 63.9807 25.542 63.9527 25.738H58.5487V25.822C58.5767 26.452 58.7727 26.942 59.1367 27.306C59.4867 27.67 59.9627 27.852 60.5507 27.852C61.0127 27.852 61.4047 27.754 61.7267 27.53C62.0347 27.306 62.2447 26.998 62.3567 26.592H63.8687C63.7287 27.32 63.3787 27.922 62.8047 28.384C62.2307 28.86 61.5167 29.084 60.6627 29.084C59.9067 29.084 59.2627 28.944 58.7027 28.636C58.1427 28.328 57.7227 27.908 57.4147 27.348C57.1067 26.802 56.9667 26.158 56.9667 25.43C56.9667 24.702 57.1067 24.058 57.4007 23.498ZM62.4547 24.632C62.3847 24.114 62.1747 23.708 61.8247 23.414C61.4747 23.12 61.0407 22.966 60.5087 22.966C60.0047 22.966 59.5847 23.12 59.2207 23.428C58.8567 23.736 58.6607 24.128 58.6047 24.632H62.4547ZM68.9131 21.832V23.246H68.2411C67.6111 23.246 67.1631 23.456 66.8831 23.862C66.6031 24.268 66.4631 24.786 66.4631 25.402V29H64.9511V21.832H66.2951L66.4631 22.91C66.6591 22.574 66.9251 22.322 67.2611 22.126C67.5831 21.93 68.0171 21.832 68.5771 21.832H68.9131Z" fill="#8D8E8D"/>
<rect x="0.5" y="0.5" width="85" height="47" rx="15.5" stroke="#B5B6B5"/>
</svg>
