<svg width="49" height="49" viewBox="0 0 49 49" fill="none" xmlns="http://www.w3.org/2000/svg">
<rect x="0.707031" y="0.110352" width="48" height="48" rx="12" fill="#F0F7EB"/>
<g clip-path="url(#clip0_0_1)">
<path d="M13.647 30.0407C13.647 26.1758 13.647 22.3158 13.647 18.4508C13.6569 18.4359 13.6669 18.421 13.6718 18.4061C13.8258 17.5616 14.7101 16.9307 15.7583 17.189C18.6744 17.9143 21.5806 17.805 24.4569 16.9158C27.7854 15.8825 31.1386 15.7881 34.5167 16.6674C35.401 16.8959 35.858 17.4722 35.858 18.3763C35.858 21.968 35.858 25.5548 35.858 29.1465C35.858 29.221 35.858 29.2956 35.8531 29.3701C35.8034 30.3289 34.9241 31.0144 33.9802 30.8405C33.245 30.7014 32.5097 30.5325 31.7646 30.4431C29.4893 30.1699 27.2488 30.3885 25.063 31.0691C21.6849 32.1222 18.2819 32.2117 14.8641 31.2777C14.4468 31.1634 14.114 30.9399 13.8904 30.5673C13.7911 30.4083 13.7265 30.2196 13.647 30.0407ZM15.2367 18.734C15.2317 18.7986 15.2267 18.8632 15.2267 18.9277C15.2267 22.4698 15.2317 26.0069 15.2317 29.5489C15.2317 29.6979 15.2715 29.7625 15.4205 29.8023C16.6227 30.1152 17.8448 30.2941 19.0867 30.3388C21.0639 30.4083 22.9765 30.0656 24.8643 29.4943C27.3581 28.7342 29.9016 28.5653 32.4799 28.9478C33.0761 29.0372 33.6623 29.1614 34.2733 29.2707C34.2733 28.759 34.2733 28.2473 34.2733 27.7406C34.2733 24.6606 34.2733 21.5855 34.2733 18.5055C34.2733 18.3763 34.2981 18.2571 34.1094 18.2074C32.937 17.9044 31.7497 17.7156 30.5425 17.6709C28.5951 17.5964 26.6974 17.8845 24.8345 18.4608C22.2661 19.2506 19.6531 19.4494 16.9953 19.0519C16.4141 18.9625 15.8328 18.8383 15.2367 18.734Z" fill="#11453B"/>
<path d="M30.6966 20.8306C30.319 20.8306 29.9365 20.8356 29.5589 20.8306C29.077 20.8256 28.7193 20.4927 28.7193 20.0406C28.7193 19.5885 29.0671 19.2507 29.5539 19.2457C30.324 19.2408 31.0891 19.2408 31.8592 19.2457C32.3361 19.2507 32.6938 19.5935 32.6889 20.0456C32.6839 20.4878 32.3361 20.8207 31.8691 20.8256C31.4717 20.8356 31.0841 20.8306 30.6966 20.8306Z" fill="#11453B"/>
<path d="M18.8038 28.7543C18.4262 28.7543 18.0436 28.7593 17.666 28.7543C17.1792 28.7493 16.8264 28.4165 16.8214 27.9693C16.8165 27.5172 17.1692 27.1744 17.6511 27.1694C18.4212 27.1645 19.1863 27.1645 19.9564 27.1694C20.4383 27.1694 20.791 27.5172 20.7861 27.9643C20.7811 28.4115 20.4284 28.7444 19.9464 28.7493C19.5639 28.7543 19.1813 28.7543 18.8038 28.7543Z" fill="#11453B"/>
<g clip-path="url(#clip1_0_1)">
<path d="M26.0272 21.7804C26.0272 21.5801 26.032 21.3794 26.0272 21.1791C26.0233 21.0731 26.0631 21.0445 26.1638 21.0459C26.4491 21.0513 26.7349 21.0532 27.0198 21.0459C27.1413 21.0425 27.1758 21.0833 27.1739 21.2015C27.1676 21.5777 27.1773 21.9544 27.169 22.3312C27.1661 22.4692 27.1987 22.5256 27.3489 22.5198C27.6765 22.512 27.677 22.5198 27.677 22.8571C27.677 23.0574 27.6726 23.2582 27.677 23.4585C27.6799 23.5557 27.6542 23.5946 27.5467 23.5965C27.1705 23.6043 27.1705 23.6091 27.1705 23.9946C27.1705 24.1828 27.1754 24.3714 27.1705 24.5595C27.1671 24.6625 27.2021 24.6936 27.3051 24.6971C27.677 24.7077 27.677 24.7116 27.677 25.0806C27.677 25.2687 27.6726 25.4573 27.677 25.6454C27.6804 25.7475 27.6464 25.7791 27.5424 25.7811C27.17 25.7888 27.1705 25.7932 27.1705 26.1646C27.1705 26.4499 27.1661 26.7358 27.1705 27.0206C27.1705 27.1334 27.1331 27.1665 27.0247 27.164C26.7092 27.1577 26.3927 27.1572 26.0772 27.164C26.0328 27.1683 25.9882 27.159 25.9492 27.1371C25.9103 27.1153 25.879 27.0821 25.8595 27.042C25.6339 26.6677 25.3986 26.2993 25.175 25.924C25.1128 25.819 25.0462 25.7718 24.9179 25.7743C24.4867 25.7835 24.0555 25.7816 23.6243 25.7743C23.5048 25.7743 23.4698 25.8088 23.4722 25.9274C23.4795 26.2856 23.4693 26.6439 23.4775 27.0022C23.4805 27.1324 23.4382 27.1674 23.3123 27.1631C23.0391 27.1543 22.7654 27.1524 22.4927 27.1631C22.3493 27.1694 22.3196 27.1145 22.3221 26.9856C22.3298 26.6395 22.3187 26.2934 22.3274 25.9473C22.3308 25.8141 22.2973 25.7689 22.1568 25.7723C21.8335 25.7801 21.833 25.7723 21.833 25.4529C21.833 25.2405 21.8369 25.0276 21.833 24.8152C21.833 24.718 21.8666 24.6932 21.9594 24.6898C22.3264 24.6752 22.3264 24.6718 22.3264 24.3009C22.3264 24.1128 22.3211 23.9241 22.3264 23.736C22.3303 23.6271 22.2968 23.5902 22.1835 23.5902C21.833 23.5868 21.833 23.5819 21.833 23.2246C21.833 23.0365 21.8389 22.8479 21.833 22.6598C21.8282 22.5489 21.8632 22.5139 21.976 22.5139C22.3274 22.5086 22.3274 22.5033 22.3274 22.1426C22.3274 21.8266 22.3308 21.5106 22.3274 21.1951C22.3274 21.0887 22.3537 21.0435 22.4703 21.0464C22.78 21.0537 23.0896 21.0527 23.3993 21.0464C23.441 21.0431 23.4827 21.0525 23.5188 21.0736C23.5549 21.0946 23.5838 21.1262 23.6015 21.164C23.8446 21.5694 24.0983 21.97 24.3414 22.3764C24.4007 22.4736 24.4634 22.5222 24.5844 22.5222C25.0156 22.5144 25.4468 22.5154 25.8779 22.5222C25.9965 22.5222 26.0379 22.4877 26.0325 22.3671C26.0233 22.1727 26.0325 21.9783 26.0325 21.7838L26.0272 21.7804ZM25.0866 23.5936C25.3126 23.9625 25.5197 24.3023 25.7297 24.6407C25.7875 24.7335 25.8843 24.6922 25.9635 24.6893C26.0607 24.6854 26.0247 24.5998 26.0252 24.5468C26.0286 24.2737 26.0252 24.0005 26.0252 23.7273C26.0252 23.6612 26.0379 23.5912 25.9314 23.5926C25.6626 23.596 25.3918 23.5936 25.0866 23.5936ZM24.4094 24.6932L23.7658 23.65C23.7075 23.5552 23.6127 23.5941 23.5344 23.5975C23.4372 23.6023 23.4771 23.6884 23.4766 23.7399C23.4727 24.0126 23.4766 24.2853 23.4766 24.558C23.4766 24.6222 23.4591 24.6956 23.5675 24.6941C23.8358 24.6912 24.1056 24.6932 24.4094 24.6932Z" fill="#11453B"/>
</g>
</g>
<defs>
<clipPath id="clip0_0_1">
<rect width="22.2061" height="15.8572" fill="white" transform="translate(13.647 16.0714)"/>
</clipPath>
<clipPath id="clip1_0_1">
<rect width="5.84591" height="6.12056" fill="white" transform="translate(21.8296 21.0453)"/>
</clipPath>
</defs>
</svg>
