<svg width="866" height="250" viewBox="0 0 866 250" fill="none" xmlns="http://www.w3.org/2000/svg">
<g filter="url(#filter0_d_1_1234)">
<g clip-path="url(#clip0_1_1234)">
<rect x="48" y="28" width="770" height="154" rx="24" fill="#11453B"/>
<path d="M80.304 75.8L83.504 87H85.664L87.904 78.76L90.192 87H92.352L95.552 75.8H93.68L91.264 84.664L88.848 75.8H87.104L84.608 84.664L82.224 75.784L80.304 75.8ZM103.704 85.496H103.368C103 85.496 102.824 85.304 102.824 84.92V81.688C102.824 80.728 102.52 79.992 101.928 79.48C101.32 78.968 100.472 78.712 99.3836 78.712C98.3436 78.712 97.5116 78.952 96.8716 79.4C96.2316 79.848 95.8636 80.488 95.7836 81.304H97.4796C97.5436 80.952 97.7356 80.664 98.0556 80.44C98.3756 80.216 98.7916 80.104 99.3036 80.104C99.8636 80.104 100.312 80.248 100.632 80.504C100.952 80.76 101.112 81.128 101.112 81.576V82.072H99.0476C97.8956 82.072 97.0316 82.312 96.4396 82.76C95.8316 83.208 95.5436 83.864 95.5436 84.696C95.5436 85.448 95.8156 86.04 96.3756 86.456C96.9196 86.888 97.6556 87.096 98.5836 87.096C99.7676 87.096 100.664 86.632 101.288 85.688C101.288 86.12 101.4 86.44 101.64 86.664C101.864 86.888 102.248 87 102.792 87H103.704V85.496ZM101.112 83.352V83.64C101.096 84.28 100.888 84.792 100.488 85.176C100.088 85.56 99.5276 85.752 98.8236 85.752C98.3436 85.752 97.9756 85.656 97.7036 85.432C97.4316 85.224 97.3036 84.936 97.3036 84.584C97.3036 84.184 97.4476 83.88 97.7356 83.672C98.0236 83.464 98.4236 83.352 98.9676 83.352H101.112ZM104.645 75.8V87H106.373V75.8H104.645ZM108.067 75.8V87H109.795V75.8H108.067ZM111.681 80.712C111.345 81.352 111.185 82.088 111.185 82.92C111.185 83.752 111.345 84.488 111.697 85.112C112.049 85.752 112.529 86.232 113.169 86.584C113.809 86.936 114.545 87.096 115.409 87.096C116.385 87.096 117.201 86.84 117.857 86.296C118.513 85.768 118.913 85.08 119.073 84.248H117.345C117.217 84.712 116.977 85.064 116.625 85.32C116.257 85.576 115.809 85.688 115.281 85.688C114.609 85.688 114.065 85.48 113.665 85.064C113.249 84.648 113.025 84.088 112.993 83.368V83.272H119.169C119.201 83.048 119.217 82.84 119.217 82.616C119.201 81.832 119.025 81.144 118.673 80.552C118.321 79.976 117.857 79.512 117.249 79.192C116.641 78.872 115.953 78.712 115.169 78.712C114.385 78.712 113.697 78.888 113.089 79.24C112.481 79.592 112.017 80.072 111.681 80.712ZM117.457 82.008H113.057C113.121 81.432 113.345 80.984 113.761 80.632C114.177 80.28 114.657 80.104 115.233 80.104C115.841 80.104 116.337 80.28 116.737 80.616C117.137 80.952 117.377 81.416 117.457 82.008ZM121.079 80.328V84.776C121.079 85.544 121.255 86.104 121.607 86.456C121.959 86.824 122.535 87 123.319 87H124.983V85.48H123.671C123.351 85.48 123.143 85.416 123.015 85.288C122.887 85.16 122.823 84.92 122.823 84.6V80.328H124.791V78.808H122.823V76.52H121.079V78.808H119.655V80.328H121.079ZM134.292 75.8H130.18V87H134.436C135.764 87 136.788 86.728 137.508 86.168C138.228 85.624 138.596 84.856 138.596 83.88C138.596 82.408 137.748 81.528 136.084 81.24C136.756 81.096 137.268 80.808 137.62 80.376C137.972 79.944 138.164 79.384 138.164 78.712C138.164 77.8 137.812 77.08 137.14 76.568C136.468 76.056 135.508 75.8 134.292 75.8ZM132.02 80.552V77.336H134.34C134.964 77.336 135.444 77.48 135.796 77.768C136.148 78.056 136.324 78.44 136.324 78.936C136.324 79.448 136.148 79.832 135.796 80.12C135.444 80.408 134.964 80.552 134.34 80.552H132.02ZM132.02 85.448V82.072H134.452C135.156 82.072 135.716 82.232 136.116 82.52C136.5 82.824 136.708 83.24 136.708 83.784C136.708 84.312 136.5 84.728 136.116 85.016C135.732 85.304 135.172 85.448 134.452 85.448H132.02ZM147.969 85.496H147.633C147.265 85.496 147.089 85.304 147.089 84.92V81.688C147.089 80.728 146.785 79.992 146.193 79.48C145.585 78.968 144.737 78.712 143.649 78.712C142.609 78.712 141.777 78.952 141.137 79.4C140.497 79.848 140.129 80.488 140.049 81.304H141.745C141.809 80.952 142.001 80.664 142.321 80.44C142.641 80.216 143.057 80.104 143.569 80.104C144.129 80.104 144.577 80.248 144.897 80.504C145.217 80.76 145.377 81.128 145.377 81.576V82.072H143.313C142.161 82.072 141.297 82.312 140.705 82.76C140.097 83.208 139.809 83.864 139.809 84.696C139.809 85.448 140.081 86.04 140.641 86.456C141.185 86.888 141.921 87.096 142.849 87.096C144.033 87.096 144.929 86.632 145.553 85.688C145.553 86.12 145.665 86.44 145.905 86.664C146.129 86.888 146.513 87 147.057 87H147.969V85.496ZM145.377 83.352V83.64C145.361 84.28 145.153 84.792 144.753 85.176C144.353 85.56 143.793 85.752 143.089 85.752C142.609 85.752 142.241 85.656 141.969 85.432C141.697 85.224 141.569 84.936 141.569 84.584C141.569 84.184 141.713 83.88 142.001 83.672C142.289 83.464 142.689 83.352 143.233 83.352H145.377ZM148.911 75.8V87H150.639V75.8H148.911ZM160.172 85.496H159.836C159.468 85.496 159.292 85.304 159.292 84.92V81.688C159.292 80.728 158.988 79.992 158.396 79.48C157.788 78.968 156.94 78.712 155.852 78.712C154.812 78.712 153.98 78.952 153.34 79.4C152.7 79.848 152.332 80.488 152.252 81.304H153.948C154.012 80.952 154.204 80.664 154.524 80.44C154.844 80.216 155.26 80.104 155.772 80.104C156.332 80.104 156.78 80.248 157.1 80.504C157.42 80.76 157.58 81.128 157.58 81.576V82.072H155.516C154.364 82.072 153.5 82.312 152.908 82.76C152.3 83.208 152.012 83.864 152.012 84.696C152.012 85.448 152.284 86.04 152.844 86.456C153.388 86.888 154.124 87.096 155.052 87.096C156.236 87.096 157.132 86.632 157.756 85.688C157.756 86.12 157.868 86.44 158.108 86.664C158.332 86.888 158.716 87 159.26 87H160.172V85.496ZM157.58 83.352V83.64C157.564 84.28 157.356 84.792 156.956 85.176C156.556 85.56 155.996 85.752 155.292 85.752C154.812 85.752 154.444 85.656 154.172 85.432C153.9 85.224 153.772 84.936 153.772 84.584C153.772 84.184 153.916 83.88 154.204 83.672C154.492 83.464 154.892 83.352 155.436 83.352H157.58ZM167.802 79.608C167.194 79.016 166.394 78.712 165.434 78.712C164.298 78.712 163.418 79.112 162.81 79.88L162.618 78.808H161.114V87H162.842V82.872C162.842 82.04 163.034 81.4 163.418 80.92C163.802 80.44 164.346 80.2 165.034 80.2C165.674 80.2 166.154 80.408 166.49 80.808C166.81 81.224 166.986 81.816 166.986 82.584V87H168.73V82.488C168.73 81.176 168.41 80.216 167.802 79.608ZM176.621 86.296C177.277 85.752 177.693 85.016 177.853 84.056H176.093C175.981 84.536 175.757 84.92 175.405 85.208C175.053 85.496 174.605 85.624 174.077 85.624C173.373 85.624 172.813 85.384 172.397 84.872C171.981 84.36 171.773 83.704 171.773 82.888C171.773 82.088 171.981 81.448 172.397 80.936C172.813 80.44 173.373 80.184 174.077 80.184C174.589 80.184 175.021 80.328 175.373 80.6C175.725 80.888 175.949 81.256 176.077 81.72H177.853C177.693 80.792 177.277 80.072 176.637 79.528C175.981 78.984 175.149 78.712 174.125 78.712C173.293 78.712 172.573 78.888 171.949 79.24C171.325 79.592 170.845 80.072 170.509 80.696C170.157 81.336 169.997 82.056 169.997 82.888C169.997 83.72 170.157 84.456 170.493 85.096C170.829 85.736 171.309 86.232 171.933 86.584C172.541 86.936 173.261 87.096 174.077 87.096C175.101 87.096 175.949 86.84 176.621 86.296ZM179.29 80.712C178.954 81.352 178.794 82.088 178.794 82.92C178.794 83.752 178.954 84.488 179.306 85.112C179.658 85.752 180.138 86.232 180.778 86.584C181.418 86.936 182.154 87.096 183.018 87.096C183.994 87.096 184.81 86.84 185.466 86.296C186.122 85.768 186.522 85.08 186.682 84.248H184.954C184.826 84.712 184.586 85.064 184.234 85.32C183.866 85.576 183.418 85.688 182.89 85.688C182.218 85.688 181.674 85.48 181.274 85.064C180.858 84.648 180.634 84.088 180.602 83.368V83.272H186.778C186.81 83.048 186.826 82.84 186.826 82.616C186.81 81.832 186.634 81.144 186.282 80.552C185.93 79.976 185.466 79.512 184.858 79.192C184.25 78.872 183.562 78.712 182.778 78.712C181.994 78.712 181.306 78.888 180.698 79.24C180.09 79.592 179.626 80.072 179.29 80.712ZM185.066 82.008H180.666C180.73 81.432 180.954 80.984 181.37 80.632C181.786 80.28 182.266 80.104 182.842 80.104C183.45 80.104 183.946 80.28 184.346 80.616C184.746 80.952 184.986 81.416 185.066 82.008Z" fill="#D9EBCD"/>
<path d="M81.92 134H86.624V119.888L96.128 134H100.512V111.6H95.776V125.712L86.272 111.6H81.92V134ZM112.23 111.6H107.718V113.776C107.718 114.416 107.558 114.96 107.27 115.408C106.982 115.856 106.566 116.048 106.022 116.048H102.662V119.856H106.406C106.918 119.856 107.334 119.824 107.622 119.696V134H112.23V111.6ZM123.691 123.408L115.211 130.448V134H131.627V130.128H121.867L126.891 126.032C128.459 124.752 129.611 123.568 130.379 122.448C131.147 121.328 131.531 119.984 131.531 118.448C131.531 116.304 130.795 114.576 129.355 113.296C127.915 112.016 125.899 111.376 123.275 111.376C121.643 111.376 120.203 111.728 118.987 112.368C117.739 113.008 116.779 113.904 116.107 115.056C115.435 116.208 115.115 117.488 115.115 118.896V119.504H119.755V119.152C119.755 117.968 120.075 117.008 120.715 116.304C121.355 115.6 122.219 115.248 123.275 115.248C124.363 115.248 125.227 115.568 125.867 116.144C126.507 116.72 126.859 117.552 126.859 118.64C126.859 119.504 126.603 120.304 126.091 121.008C125.579 121.744 124.779 122.544 123.691 123.408ZM138.736 130.128C138.096 129.36 137.296 128.944 136.304 128.944C135.504 128.944 134.832 129.2 134.288 129.712C133.744 130.224 133.488 130.8 133.488 131.504C133.488 132.304 133.68 132.912 134.096 133.328C134.512 133.744 135.024 133.936 135.664 133.936C135.984 133.936 136.336 133.872 136.688 133.68C136.688 133.776 136.72 133.936 136.72 134.128C136.72 134.768 136.432 135.28 135.92 135.664C135.408 136.08 134.64 136.304 133.68 136.304V138.64C135.536 138.64 136.976 138.16 138.064 137.2C139.12 136.272 139.664 134.928 139.664 133.136C139.664 131.92 139.344 130.896 138.736 130.128ZM154.123 119.728C152.971 119.088 151.723 118.736 150.315 118.736C148.427 118.736 146.891 119.312 145.675 120.464L145.931 115.472H156.427V111.6H141.739L141.099 124.72H145.547C145.835 123.888 146.347 123.28 147.083 122.928C147.786 122.576 148.555 122.384 149.323 122.384C150.475 122.384 151.403 122.768 152.107 123.536C152.811 124.304 153.163 125.264 153.163 126.416C153.163 127.696 152.779 128.688 152.011 129.392C151.243 130.096 150.347 130.416 149.323 130.416C148.235 130.416 147.339 130.096 146.603 129.392C145.867 128.72 145.451 127.856 145.323 126.8H140.747C140.811 128.208 141.195 129.456 141.899 130.576C142.603 131.696 143.595 132.592 144.875 133.232C146.155 133.872 147.627 134.192 149.323 134.192C150.891 134.192 152.331 133.904 153.611 133.296C154.891 132.72 155.883 131.824 156.651 130.672C157.419 129.52 157.803 128.08 157.803 126.416C157.803 124.944 157.451 123.6 156.811 122.448C156.171 121.296 155.275 120.368 154.123 119.728ZM160.288 127.28C160.64 128.592 161.152 129.712 161.824 130.672C162.592 131.824 163.584 132.688 164.8 133.296C166.016 133.904 167.392 134.192 168.928 134.192C170.56 134.192 172 133.904 173.28 133.264C174.56 132.624 175.52 131.728 176.224 130.576C176.928 129.424 177.28 128.112 177.28 126.576C177.28 125.104 176.96 123.792 176.32 122.64C175.68 121.488 174.784 120.592 173.632 119.952C172.48 119.312 171.168 118.992 169.696 118.992C168.544 118.992 167.52 119.248 166.592 119.696C165.664 120.176 164.928 120.816 164.416 121.616L164.128 122.096V121.552C164.128 119.504 164.512 117.904 165.28 116.784C166.048 115.664 167.168 115.088 168.64 115.088C169.632 115.088 170.464 115.344 171.136 115.824C171.776 116.336 172.224 117.008 172.448 117.904H176.992C176.736 115.92 175.872 114.32 174.4 113.136C172.928 111.984 171.104 111.376 168.992 111.376C167.104 111.376 165.472 111.856 164.096 112.752C162.688 113.648 161.632 114.992 160.896 116.72C160.128 118.48 159.776 120.592 159.776 123.024C159.776 124.56 159.936 126 160.288 127.28ZM171.68 123.696C172.352 124.464 172.704 125.424 172.704 126.576C172.704 127.728 172.352 128.688 171.648 129.456C170.944 130.224 170.016 130.576 168.896 130.576C167.744 130.576 166.848 130.224 166.144 129.456C165.44 128.72 165.12 127.76 165.12 126.576C165.12 125.424 165.472 124.464 166.176 123.696C166.88 122.96 167.808 122.576 168.96 122.576C170.08 122.576 170.976 122.96 171.68 123.696ZM179.526 122.288V123.312C179.526 125.552 179.91 127.504 180.678 129.136C181.446 130.768 182.534 132.016 183.942 132.88C185.318 133.776 186.918 134.192 188.742 134.192C190.534 134.192 192.134 133.776 193.542 132.88C194.95 132.016 196.038 130.768 196.806 129.136C197.574 127.504 197.99 125.552 197.99 123.312V122.288C197.99 120.112 197.574 118.192 196.806 116.528C196.038 114.896 194.95 113.648 193.542 112.752C192.134 111.856 190.534 111.408 188.742 111.408C186.95 111.408 185.35 111.856 183.942 112.752C182.534 113.648 181.446 114.896 180.678 116.528C179.91 118.192 179.526 120.112 179.526 122.288ZM192.102 117.2C192.934 118.448 193.382 120.208 193.382 122.448V123.152C193.382 125.424 192.934 127.184 192.102 128.432C191.27 129.68 190.15 130.288 188.742 130.288C187.334 130.288 186.214 129.68 185.382 128.432C184.55 127.184 184.134 125.424 184.134 123.152V122.448C184.134 120.208 184.55 118.448 185.382 117.2C186.214 115.952 187.334 115.312 188.742 115.312C190.15 115.312 191.27 115.952 192.102 117.2ZM203.58 130.128C202.94 129.36 202.14 128.944 201.148 128.944C200.348 128.944 199.676 129.2 199.132 129.712C198.588 130.224 198.332 130.8 198.332 131.504C198.332 132.304 198.524 132.912 198.94 133.328C199.356 133.744 199.868 133.936 200.508 133.936C200.828 133.936 201.18 133.872 201.532 133.68C201.532 133.776 201.564 133.936 201.564 134.128C201.564 134.768 201.276 135.28 200.764 135.664C200.252 136.08 199.484 136.304 198.524 136.304V138.64C200.38 138.64 201.82 138.16 202.908 137.2C203.964 136.272 204.508 134.928 204.508 133.136C204.508 131.92 204.188 130.896 203.58 130.128ZM204.964 122.288V123.312C204.964 125.552 205.348 127.504 206.116 129.136C206.884 130.768 207.972 132.016 209.38 132.88C210.756 133.776 212.356 134.192 214.18 134.192C215.972 134.192 217.572 133.776 218.98 132.88C220.388 132.016 221.476 130.768 222.244 129.136C223.012 127.504 223.428 125.552 223.428 123.312V122.288C223.428 120.112 223.012 118.192 222.244 116.528C221.476 114.896 220.388 113.648 218.98 112.752C217.572 111.856 215.972 111.408 214.18 111.408C212.388 111.408 210.788 111.856 209.38 112.752C207.972 113.648 206.884 114.896 206.116 116.528C205.348 118.192 204.964 120.112 204.964 122.288ZM217.54 117.2C218.372 118.448 218.82 120.208 218.82 122.448V123.152C218.82 125.424 218.372 127.184 217.54 128.432C216.708 129.68 215.588 130.288 214.18 130.288C212.772 130.288 211.652 129.68 210.82 128.432C209.988 127.184 209.572 125.424 209.572 123.152V122.448C209.572 120.208 209.988 118.448 210.82 117.2C211.652 115.952 212.772 115.312 214.18 115.312C215.588 115.312 216.708 115.952 217.54 117.2ZM224.321 111.6V115.504H235.681L225.889 134H230.881L240.737 114.576V111.6H224.321ZM258.055 124.144C257.159 123.216 256.071 122.608 254.727 122.32C255.847 122.032 256.807 121.424 257.575 120.528C258.343 119.632 258.759 118.544 258.759 117.296C258.759 116.144 258.439 115.088 257.799 114.192C257.159 113.296 256.263 112.624 255.047 112.112C253.831 111.632 252.423 111.376 250.791 111.376C249.127 111.376 247.719 111.632 246.503 112.112C245.286 112.624 244.391 113.296 243.751 114.192C243.111 115.088 242.823 116.144 242.823 117.296C242.823 118.64 243.207 119.728 243.975 120.56C244.743 121.424 245.703 122 246.855 122.32C245.479 122.64 244.359 123.248 243.495 124.176C242.599 125.136 242.183 126.384 242.183 127.92C242.183 129.168 242.503 130.256 243.174 131.216C243.847 132.176 244.839 132.912 246.119 133.424C247.399 133.936 248.967 134.192 250.791 134.192C252.583 134.192 254.151 133.936 255.431 133.424C256.711 132.912 257.703 132.176 258.375 131.216C259.047 130.256 259.399 129.168 259.399 127.92C259.399 126.352 258.951 125.104 258.055 124.144ZM248.295 115.44C248.935 114.928 249.767 114.64 250.791 114.64C251.783 114.64 252.615 114.928 253.255 115.44C253.895 115.984 254.247 116.688 254.247 117.52C254.247 118.384 253.895 119.088 253.255 119.632C252.615 120.208 251.783 120.464 250.791 120.464C249.767 120.464 248.935 120.208 248.295 119.664C247.655 119.12 247.335 118.416 247.335 117.52C247.335 116.688 247.655 115.984 248.295 115.44ZM253.639 130.032C252.871 130.672 251.911 130.96 250.791 130.96C249.639 130.96 248.679 130.672 247.911 130.032C247.143 129.392 246.759 128.592 246.759 127.632C246.759 126.672 247.143 125.84 247.911 125.2C248.679 124.56 249.639 124.208 250.791 124.208C251.911 124.208 252.871 124.56 253.639 125.2C254.407 125.84 254.791 126.672 254.791 127.632C254.791 128.592 254.407 129.392 253.639 130.032ZM262.11 129.616C261.598 130.128 261.342 130.768 261.342 131.536C261.342 132.304 261.598 132.944 262.11 133.456C262.622 133.968 263.262 134.192 264.062 134.192C264.83 134.192 265.47 133.968 265.982 133.456C266.494 132.944 266.782 132.304 266.782 131.536C266.782 130.768 266.494 130.128 265.982 129.616C265.47 129.104 264.83 128.848 264.062 128.848C263.262 128.848 262.622 129.104 262.11 129.616ZM267.558 122.288V123.312C267.558 125.552 267.942 127.504 268.71 129.136C269.478 130.768 270.566 132.016 271.974 132.88C273.35 133.776 274.95 134.192 276.774 134.192C278.566 134.192 280.166 133.776 281.574 132.88C282.982 132.016 284.069 130.768 284.838 129.136C285.606 127.504 286.022 125.552 286.022 123.312V122.288C286.022 120.112 285.606 118.192 284.838 116.528C284.069 114.896 282.982 113.648 281.574 112.752C280.166 111.856 278.566 111.408 276.774 111.408C274.982 111.408 273.382 111.856 271.974 112.752C270.566 113.648 269.478 114.896 268.71 116.528C267.942 118.192 267.558 120.112 267.558 122.288ZM280.134 117.2C280.966 118.448 281.414 120.208 281.414 122.448V123.152C281.414 125.424 280.966 127.184 280.134 128.432C279.302 129.68 278.182 130.288 276.774 130.288C275.366 130.288 274.246 129.68 273.414 128.432C272.582 127.184 272.166 125.424 272.166 123.152V122.448C272.166 120.208 272.582 118.448 273.414 117.2C274.246 115.952 275.366 115.312 276.774 115.312C278.182 115.312 279.302 115.952 280.134 117.2ZM288.245 122.288V123.312C288.245 125.552 288.629 127.504 289.397 129.136C290.165 130.768 291.253 132.016 292.661 132.88C294.037 133.776 295.637 134.192 297.461 134.192C299.253 134.192 300.853 133.776 302.261 132.88C303.669 132.016 304.757 130.768 305.525 129.136C306.293 127.504 306.709 125.552 306.709 123.312V122.288C306.709 120.112 306.293 118.192 305.525 116.528C304.757 114.896 303.669 113.648 302.261 112.752C300.853 111.856 299.253 111.408 297.461 111.408C295.669 111.408 294.069 111.856 292.661 112.752C291.253 113.648 290.165 114.896 289.397 116.528C288.629 118.192 288.245 120.112 288.245 122.288ZM300.821 117.2C301.653 118.448 302.101 120.208 302.101 122.448V123.152C302.101 125.424 301.653 127.184 300.821 128.432C299.989 129.68 298.869 130.288 297.461 130.288C296.053 130.288 294.933 129.68 294.101 128.432C293.269 127.184 292.853 125.424 292.853 123.152V122.448C292.853 120.208 293.269 118.448 294.101 117.2C294.933 115.952 296.053 115.312 297.461 115.312C298.869 115.312 299.989 115.952 300.821 117.2Z" fill="white"/>
<g clip-path="url(#clip1_1_1234)">
<path d="M330.491 115.513C333.55 115.502 336.141 116.693 338.465 118.552C339.315 119.247 340.113 120 340.853 120.807C341.029 120.995 341.064 121.114 340.866 121.327C338.236 124.143 335.128 126.116 331.157 126.462C328.545 126.689 326.19 125.903 324.03 124.493C322.561 123.53 321.302 122.328 320.144 121.025C319.941 120.797 319.959 120.662 320.158 120.453C322.709 117.77 325.726 115.94 329.514 115.517C329.839 115.498 330.165 115.496 330.491 115.513ZM333.768 121.047C333.768 119.04 332.195 117.429 330.226 117.426C328.258 117.423 326.655 119.04 326.661 121.032C326.666 123.024 328.293 124.662 330.242 124.634C332.19 124.606 333.768 123.018 333.768 121.047ZM332.68 125.072C332.711 125.081 332.747 125.105 332.776 125.098C335.374 124.463 337.511 123.055 339.426 121.26C339.59 121.106 339.541 121.003 339.405 120.868C337.563 119.032 335.509 117.537 332.915 116.884C332.83 116.855 332.743 116.831 332.655 116.812C332.566 116.8 332.462 116.74 332.371 116.841C335.455 118.583 335.835 122.888 332.68 125.072ZM327.73 117.016C327.677 117.004 327.621 116.999 327.566 117.001C325.264 117.684 323.314 118.934 321.582 120.547C321.376 120.739 321.433 120.853 321.603 121.011C322.074 121.453 322.518 121.924 323.005 122.347C324.346 123.502 325.825 124.437 327.621 124.986C324.8 122.813 324.972 118.974 327.73 117.016Z" fill="#D9EBCD"/>
<path d="M330.647 123.436C329.483 123.64 328.471 123.116 327.998 122.093C327.511 121.041 327.808 119.752 328.7 119.057C329.098 118.745 329.588 118.568 330.098 118.553C330.607 118.539 331.107 118.688 331.522 118.978C332.51 119.686 332.817 120.9 332.29 122.17C332.014 121.774 331.731 121.4 331.209 121.399C330.953 121.401 330.706 121.498 330.519 121.669C330.025 122.099 330.06 122.707 330.647 123.436Z" fill="#D9EBCD"/>
</g>
<g filter="url(#filter1_d_1_1234)">
<rect x="654" y="97" width="132" height="44" rx="22" fill="#D9EBCD"/>
<path d="M682.896 115.2H689.154V116.628H684.506V119.47H688.342V120.856H684.506V125H682.896V115.2ZM696.418 117.832V125H695.088L694.92 124.09C694.374 124.762 693.632 125.084 692.708 125.084C691.868 125.084 691.182 124.832 690.664 124.3C690.132 123.782 689.88 122.942 689.88 121.78V117.832H691.392V121.626C691.392 122.326 691.532 122.858 691.812 123.222C692.092 123.586 692.498 123.768 693.058 123.768C693.632 123.768 694.08 123.558 694.416 123.138C694.738 122.718 694.906 122.13 694.906 121.388V117.832H696.418ZM703.86 118.532C704.392 119.064 704.672 119.904 704.672 121.052V125H703.146V121.136C703.146 120.464 702.992 119.946 702.712 119.582C702.418 119.232 701.998 119.05 701.438 119.05C700.836 119.05 700.36 119.26 700.024 119.68C699.688 120.1 699.52 120.66 699.52 121.388V125H698.008V117.832H699.324L699.492 118.77C700.024 118.098 700.794 117.748 701.788 117.748C702.628 117.748 703.328 118.014 703.86 118.532ZM713.105 115.2V125H711.789L711.607 123.922C711.033 124.706 710.249 125.084 709.269 125.084C708.611 125.084 708.023 124.944 707.519 124.65C707.001 124.356 706.595 123.936 706.315 123.376C706.021 122.816 705.881 122.172 705.881 121.416C705.881 120.688 706.021 120.058 706.315 119.498C706.609 118.938 707.015 118.518 707.533 118.21C708.037 117.902 708.625 117.748 709.269 117.748C709.787 117.748 710.249 117.846 710.641 118.042C711.033 118.238 711.341 118.49 711.593 118.826V115.2H713.105ZM711.033 123.152C711.411 122.718 711.607 122.144 711.607 121.444C711.607 120.73 711.411 120.156 711.033 119.708C710.641 119.26 710.137 119.036 709.521 119.036C708.891 119.036 708.387 119.26 708.009 119.708C707.617 120.156 707.435 120.716 707.435 121.416C707.435 122.13 707.617 122.704 708.009 123.152C708.387 123.6 708.891 123.81 709.521 123.81C710.137 123.81 710.641 123.6 711.033 123.152ZM717.889 115.2L719.569 115.186L721.655 122.956L723.839 115.2H725.365L727.479 122.956L729.593 115.2H731.231L728.431 125H726.541L724.539 117.79L722.579 125H720.689L717.889 115.2ZM738.464 123.684V125H737.666C737.19 125 736.854 124.902 736.658 124.706C736.448 124.51 736.35 124.23 736.35 123.852C735.804 124.678 735.02 125.084 733.984 125.084C733.172 125.084 732.528 124.902 732.052 124.524C731.562 124.16 731.324 123.642 731.324 122.984C731.324 122.256 731.576 121.682 732.108 121.29C732.626 120.898 733.382 120.688 734.39 120.688H736.196V120.254C736.196 119.862 736.056 119.54 735.776 119.316C735.496 119.092 735.104 118.966 734.614 118.966C734.166 118.966 733.802 119.064 733.522 119.26C733.242 119.456 733.074 119.708 733.018 120.016H731.534C731.604 119.302 731.926 118.742 732.486 118.35C733.046 117.958 733.774 117.748 734.684 117.748C735.636 117.748 736.378 117.972 736.91 118.42C737.428 118.868 737.694 119.512 737.694 120.352V123.18C737.694 123.516 737.848 123.684 738.17 123.684H738.464ZM736.196 121.808H734.32C733.844 121.808 733.494 121.906 733.242 122.088C732.99 122.27 732.864 122.536 732.864 122.886C732.864 123.194 732.976 123.446 733.214 123.628C733.452 123.824 733.774 123.908 734.194 123.908C734.81 123.908 735.3 123.74 735.65 123.404C736 123.068 736.182 122.62 736.196 122.06V121.808ZM739.387 115.2H740.899V125H739.387V115.2ZM742.481 115.2H743.993V125H742.481V115.2ZM745.744 119.498C746.038 118.938 746.444 118.518 746.976 118.21C747.508 117.902 748.11 117.748 748.796 117.748C749.482 117.748 750.084 117.888 750.616 118.168C751.148 118.448 751.554 118.854 751.862 119.358C752.17 119.876 752.324 120.478 752.338 121.164C752.338 121.36 752.324 121.542 752.296 121.738H746.892V121.822C746.92 122.452 747.116 122.942 747.48 123.306C747.83 123.67 748.306 123.852 748.894 123.852C749.356 123.852 749.748 123.754 750.07 123.53C750.378 123.306 750.588 122.998 750.7 122.592H752.212C752.072 123.32 751.722 123.922 751.148 124.384C750.574 124.86 749.86 125.084 749.006 125.084C748.25 125.084 747.606 124.944 747.046 124.636C746.486 124.328 746.066 123.908 745.758 123.348C745.45 122.802 745.31 122.158 745.31 121.43C745.31 120.702 745.45 120.058 745.744 119.498ZM750.798 120.632C750.728 120.114 750.518 119.708 750.168 119.414C749.818 119.12 749.384 118.966 748.852 118.966C748.348 118.966 747.928 119.12 747.564 119.428C747.2 119.736 747.004 120.128 746.948 120.632H750.798ZM754.067 119.162H752.821V117.832H754.067V115.83H755.593V117.832H757.315V119.162H755.593V122.9C755.593 123.18 755.649 123.39 755.761 123.502C755.873 123.614 756.055 123.67 756.335 123.67H757.483V125H756.027C755.341 125 754.837 124.846 754.529 124.524C754.221 124.216 754.067 123.726 754.067 123.054V119.162Z" fill="#11453B"/>
</g>
<g opacity="0.1">
<path d="M170.747 190.834V308.376C260.676 256.898 314.883 263.499 414.96 308.145C516.127 356.629 569.681 357.158 659.174 307.915V190.834C567.251 240.225 514.261 239.923 417.267 190.834C314.511 144.996 259.998 140.797 170.747 190.834Z" fill="#D9EBCD" fill-opacity="0.7"/>
<path d="M659.173 190.834V308.376C749.102 256.898 803.309 263.499 903.386 308.145C1004.55 356.629 1058.11 357.158 1147.6 307.915V190.834C1055.68 240.225 1002.69 239.923 905.693 190.834C802.937 144.996 748.424 140.797 659.173 190.834Z" fill="#D9EBCD" fill-opacity="0.7"/>
<path d="M408.433 12.8537V130.395C318.504 78.9173 264.297 85.5183 164.22 130.165C63.0536 178.648 9.49911 179.178 -79.9933 129.935V12.8537C11.9298 62.2447 64.9191 61.9425 161.914 12.8537C264.669 -32.9841 319.182 -37.1836 408.433 12.8537Z" fill="#D9EBCD" fill-opacity="0.7"/>
<path d="M896.859 12.8537V130.395C806.93 78.9173 752.723 85.5183 652.646 130.165C551.479 178.648 497.925 179.178 408.432 129.935V12.8537C500.355 62.2447 553.345 61.9425 650.339 12.8537C753.095 -32.9841 807.608 -37.1836 896.859 12.8537Z" fill="#D9EBCD" fill-opacity="0.7"/>
</g>
</g>
<rect x="48.5" y="28.5" width="769" height="153" rx="23.5" stroke="#E7E8E7"/>
</g>
<defs>
<filter id="filter0_d_1_1234" x="0" y="0" width="866" height="250" filterUnits="userSpaceOnUse" color-interpolation-filters="sRGB">
<feFlood flood-opacity="0" result="BackgroundImageFix"/>
<feColorMatrix in="SourceAlpha" type="matrix" values="0 0 0 0 0 0 0 0 0 0 0 0 0 0 0 0 0 0 127 0" result="hardAlpha"/>
<feOffset dy="20"/>
<feGaussianBlur stdDeviation="24"/>
<feColorMatrix type="matrix" values="0 0 0 0 0.666667 0 0 0 0 0.666667 0 0 0 0 0.666667 0 0 0 0.29 0"/>
<feBlend mode="normal" in2="BackgroundImageFix" result="effect1_dropShadow_1_1234"/>
<feBlend mode="normal" in="SourceGraphic" in2="effect1_dropShadow_1_1234" result="shape"/>
</filter>
<filter id="filter1_d_1_1234" x="642" y="91" width="156" height="68" filterUnits="userSpaceOnUse" color-interpolation-filters="sRGB">
<feFlood flood-opacity="0" result="BackgroundImageFix"/>
<feColorMatrix in="SourceAlpha" type="matrix" values="0 0 0 0 0 0 0 0 0 0 0 0 0 0 0 0 0 0 127 0" result="hardAlpha"/>
<feOffset dy="6"/>
<feGaussianBlur stdDeviation="6"/>
<feColorMatrix type="matrix" values="0 0 0 0 0 0 0 0 0 0 0 0 0 0 0 0 0 0 0.2 0"/>
<feBlend mode="normal" in2="BackgroundImageFix" result="effect1_dropShadow_1_1234"/>
<feBlend mode="normal" in="SourceGraphic" in2="effect1_dropShadow_1_1234" result="shape"/>
</filter>
<clipPath id="clip0_1_1234">
<rect x="48" y="28" width="770" height="154" rx="24" fill="white"/>
</clipPath>
<clipPath id="clip1_1_1234">
<rect width="21" height="11" fill="white" transform="translate(320 115.5)"/>
</clipPath>
</defs>
</svg>
