<svg width="49" height="49" viewBox="0 0 49 49" fill="none" xmlns="http://www.w3.org/2000/svg">
<rect x="0.207031" y="0.227051" width="48" height="48" rx="12" fill="#FFEDEC"/>
<path d="M29.25 20.25V22.75M29.25 22.75V25.25M29.25 22.75H31.75M29.25 22.75H26.75M24.875 19.3125C24.875 20.8658 23.6158 22.125 22.0625 22.125C20.5092 22.125 19.25 20.8658 19.25 19.3125C19.25 17.7592 20.5092 16.5 22.0625 16.5C23.6158 16.5 24.875 17.7592 24.875 19.3125ZM16.7508 30.0286C16.7503 29.9983 16.75 29.9679 16.75 29.9375C16.75 27.0035 19.1285 24.625 22.0625 24.625C24.9965 24.625 27.375 27.0035 27.375 29.9375V29.9396C27.375 29.9693 27.3747 29.999 27.3742 30.0286C25.8228 30.9627 24.0054 31.5 22.0625 31.5C20.1196 31.5 18.3022 30.9627 16.7508 30.0286Z" stroke="#EA4E4B" stroke-width="1.47134" stroke-linecap="round" stroke-linejoin="round"/>
</svg>
