<svg width="49" height="49" viewBox="0 0 49 49" fill="none" xmlns="http://www.w3.org/2000/svg">
<rect x="0.707153" y="0.461426" width="48" height="48" rx="12" fill="#EDF5FF"/>
<g clip-path="url(#clip0_0_1)">
<path d="M26.4717 14.1914C26.8633 14.2682 27.2626 14.3181 27.6465 14.4294C29.9308 15.0744 31.6392 17.0938 31.9194 19.451C32.2803 22.5069 30.3761 25.3018 27.4277 26.0427C24.1261 26.872 20.74 24.676 20.1487 21.3206C19.6343 18.4183 21.1507 15.6618 23.8727 14.6022C24.3602 14.4141 24.8939 14.3488 25.4083 14.226C25.4582 14.2144 25.5081 14.2029 25.5542 14.1914C25.8575 14.1914 26.1646 14.1914 26.4717 14.1914ZM30.8176 20.1996C30.8099 17.5046 28.6485 15.3316 25.9842 15.3431C23.3352 15.3508 21.1815 17.5468 21.1891 20.2226C21.1968 22.8985 23.3697 25.0791 26.0187 25.0714C28.6639 25.0638 30.8253 22.8716 30.8176 20.1996Z" fill="#2F80ED"/>
<path d="M17.9566 28.1657C17.995 28.0083 18.018 27.87 18.0641 27.7395C18.329 26.9909 18.8934 26.6223 19.6458 26.4534C20.9281 26.1655 22.1489 26.296 23.3275 26.8988C23.7498 27.1137 24.1952 27.3019 24.6482 27.4554C24.9208 27.5476 25.2202 27.5821 25.512 27.5936C26.0917 27.6128 26.6752 27.5975 27.2549 27.6013C27.6772 27.6013 27.9037 27.8355 27.8922 28.2578C27.8769 28.8298 27.6964 29.3443 27.3509 29.8472C27.635 29.8472 27.8922 29.8549 28.1456 29.8433C28.1955 29.8395 28.2454 29.7704 28.2915 29.7243C28.829 29.1869 29.3626 28.6455 29.9039 28.1158C30.952 27.0907 32.599 27.06 33.6893 28.039C34.0348 28.3499 34.0463 28.6839 33.72 29.0103C32.3763 30.3578 31.0288 31.7015 29.6851 33.0452C29.1668 33.5634 28.541 33.8168 27.8116 33.8168C23.9495 33.8168 20.0873 33.8168 16.2252 33.8168C15.7683 33.8091 15.5495 33.5903 15.5495 33.1373C15.5495 31.7015 15.5495 30.2657 15.5495 28.826C15.5495 28.3768 15.7645 28.1657 16.2213 28.1657C16.7934 28.1618 17.3692 28.1657 17.9566 28.1657ZM19.116 32.6613C19.2082 32.6613 19.2773 32.6613 19.3464 32.6613C22.1412 32.6613 24.94 32.6574 27.7348 32.6651C28.2032 32.6651 28.5871 32.5115 28.9173 32.1775C30.0613 31.0258 31.2092 29.8817 32.3571 28.7338C32.3955 28.6955 32.4262 28.6532 32.4723 28.6033C32.4262 28.5841 32.3993 28.5649 32.3686 28.5572C31.7198 28.3538 31.1478 28.4881 30.6602 28.968C30.0805 29.5439 29.497 30.1159 28.9288 30.7033C28.7253 30.9106 28.5065 31.0028 28.2186 30.9989C26.4257 30.9912 24.629 30.9912 22.8361 30.9912C22.5981 30.9912 22.3639 30.9951 22.1259 30.9836C21.9032 30.972 21.742 30.8492 21.6498 30.6496C21.5615 30.4538 21.5807 30.2618 21.7074 30.0852C21.8418 29.8933 22.0376 29.8357 22.2603 29.8357C23.1087 29.8395 23.9571 29.8395 24.8094 29.8395C24.9745 29.8395 25.1434 29.8395 25.3047 29.8242C25.8921 29.7589 26.4718 29.2828 26.6176 28.7415C26.2683 28.7415 25.9266 28.7377 25.5849 28.7415C25.0436 28.7492 24.5138 28.6647 24.0147 28.4574C23.554 28.2693 23.0972 28.0735 22.6518 27.8509C21.6959 27.3786 20.7169 27.3479 19.7073 27.6243C19.2926 27.7357 19.116 27.9737 19.116 28.3998C19.116 29.4134 19.116 30.4307 19.116 31.4443C19.116 31.8435 19.116 32.239 19.116 32.6613ZM17.9566 32.6497C17.9566 31.5326 17.9566 30.4307 17.9566 29.3251C17.5343 29.3251 17.1274 29.3251 16.7089 29.3251C16.7089 30.4384 16.7089 31.5402 16.7089 32.6497C17.1274 32.6497 17.5343 32.6497 17.9566 32.6497Z" fill="#2F80ED"/>
<g clip-path="url(#clip1_0_1)">
<path d="M26.9493 18.4853C26.9493 18.3371 26.9529 18.1886 26.9493 18.0404C26.9464 17.9621 26.9759 17.9408 27.0503 17.9419C27.2614 17.9459 27.4729 17.9473 27.6836 17.9419C27.7735 17.9394 27.799 17.9696 27.7976 18.057C27.7929 18.3353 27.8001 18.614 27.794 18.8927C27.7918 18.9949 27.8159 19.0366 27.9271 19.0323C28.1694 19.0265 28.1698 19.0323 28.1698 19.2818C28.1698 19.43 28.1666 19.5785 28.1698 19.7267C28.172 19.7986 28.1529 19.8274 28.0734 19.8288C27.7951 19.8346 27.7951 19.8382 27.7951 20.1233C27.7951 20.2625 27.7987 20.402 27.7951 20.5412C27.7926 20.6174 27.8185 20.6404 27.8947 20.643C28.1698 20.6509 28.1698 20.6538 28.1698 20.9267C28.1698 21.0659 28.1666 21.2054 28.1698 21.3446C28.1723 21.4201 28.1471 21.4435 28.0702 21.4449C27.7947 21.4507 27.7951 21.4539 27.7951 21.7286C27.7951 21.9397 27.7918 22.1512 27.7951 22.3619C27.7951 22.4453 27.7674 22.4698 27.6872 22.468C27.4538 22.4633 27.2197 22.463 26.9863 22.468C26.9535 22.4712 26.9204 22.4642 26.8916 22.4481C26.8628 22.432 26.8397 22.4074 26.8252 22.3777C26.6584 22.1008 26.4843 21.8282 26.3189 21.5506C26.2728 21.4729 26.2236 21.4381 26.1286 21.4399C25.8097 21.4467 25.4907 21.4453 25.1717 21.4399C25.0832 21.4399 25.0574 21.4654 25.0592 21.5531C25.0646 21.8182 25.057 22.0832 25.0631 22.3482C25.0653 22.4446 25.034 22.4705 24.9408 22.4673C24.7387 22.4608 24.5363 22.4594 24.3345 22.4673C24.2285 22.472 24.2065 22.4313 24.2083 22.336C24.2141 22.08 24.2058 21.8239 24.2123 21.5679C24.2148 21.4694 24.19 21.4359 24.086 21.4384C23.8469 21.4442 23.8465 21.4384 23.8465 21.2022C23.8465 21.045 23.8494 20.8875 23.8465 20.7303C23.8465 20.6584 23.8714 20.6401 23.94 20.6376C24.2116 20.6268 24.2116 20.6243 24.2116 20.3499C24.2116 20.2107 24.2076 20.0712 24.2116 19.932C24.2144 19.8515 24.1896 19.8241 24.1058 19.8241C23.8465 19.8216 23.8465 19.818 23.8465 19.5537C23.8465 19.4145 23.8509 19.275 23.8465 19.1358C23.8429 19.0538 23.8688 19.0279 23.9523 19.0279C24.2123 19.024 24.2123 19.02 24.2123 18.7532C24.2123 18.5195 24.2148 18.2857 24.2123 18.0523C24.2123 17.9736 24.2317 17.9401 24.318 17.9423C24.5471 17.9477 24.7761 17.947 25.0052 17.9423C25.036 17.9398 25.0669 17.9468 25.0936 17.9624C25.1204 17.9779 25.1417 18.0013 25.1548 18.0293C25.3346 18.3292 25.5223 18.6255 25.7021 18.9262C25.746 18.9981 25.7924 19.0341 25.8819 19.0341C26.2009 19.0283 26.5199 19.029 26.8389 19.0341C26.9266 19.0341 26.9572 19.0085 26.9532 18.9193C26.9464 18.7755 26.9532 18.6317 26.9532 18.4878L26.9493 18.4853ZM26.2534 19.8266C26.4206 20.0996 26.5738 20.351 26.7292 20.6012C26.772 20.6699 26.8436 20.6394 26.9022 20.6372C26.9741 20.6343 26.9475 20.571 26.9478 20.5318C26.9504 20.3297 26.9478 20.1276 26.9478 19.9255C26.9478 19.8766 26.9572 19.8248 26.8784 19.8259C26.6796 19.8284 26.4793 19.8266 26.2534 19.8266ZM25.7525 20.6401L25.2764 19.8684C25.2332 19.7982 25.1631 19.827 25.1052 19.8295C25.0333 19.8331 25.0628 19.8968 25.0624 19.9349C25.0595 20.1366 25.0624 20.3384 25.0624 20.5401C25.0624 20.5876 25.0494 20.6419 25.1296 20.6408C25.3281 20.6386 25.5277 20.6401 25.7525 20.6401Z" fill="#2F80ED"/>
</g>
</g>
<defs>
<clipPath id="clip0_0_1">
<rect width="18.4008" height="19.6178" fill="white" transform="translate(15.5495 14.1912)"/>
</clipPath>
<clipPath id="clip1_0_1">
<rect width="4.3247" height="4.52788" fill="white" transform="translate(23.8439 17.9412)"/>
</clipPath>
</defs>
</svg>
