<svg width="60" height="60" viewBox="0 0 60 60" fill="none" xmlns="http://www.w3.org/2000/svg">
<rect x="0.800049" width="58.4" height="60" rx="14.038" fill="#B548C6" fill-opacity="0.1"/>
<g clip-path="url(#clip0_0_1)">
<path d="M17.4075 25.794C17.5238 25.3868 17.8042 25.1039 18.0983 24.8244C20.9267 22.1432 24.2578 20.5111 28.1156 20.1073C33.5603 19.538 38.2629 21.2115 42.1788 25.0935C42.921 25.8285 42.6303 26.981 41.6487 27.2502C41.1768 27.3779 40.7937 27.2088 40.4346 26.8948C39.7335 26.2874 39.0529 25.6422 38.2937 25.1177C35.5679 23.2371 32.5343 22.3779 29.234 22.5607C25.5061 22.7678 22.3084 24.2205 19.6305 26.8396C18.8439 27.609 17.8213 27.3675 17.4519 26.3289C17.4383 26.2978 17.4212 26.2702 17.4075 26.2426C17.4075 26.0942 17.4075 25.9424 17.4075 25.794Z" fill="#B548C6"/>
<path d="M30.5507 25.0762C33.3791 25.1279 36.2109 26.3081 38.5468 28.6752C38.899 29.0306 39.0461 29.4551 38.8888 29.945C38.7314 30.4316 38.3929 30.7352 37.8935 30.8353C37.4934 30.9147 37.1445 30.787 36.8538 30.5144C36.1801 29.876 35.4516 29.3205 34.6377 28.8788C31.0364 26.9292 26.4296 27.4226 23.4131 30.3936C22.9309 30.8664 22.4452 30.9733 21.9425 30.7387C21.1319 30.3557 20.9336 29.3619 21.556 28.7097C22.8522 27.3536 24.3878 26.3667 26.1491 25.7456C27.4214 25.297 28.7312 25.0762 30.5507 25.0762Z" fill="#B548C6"/>
<path d="M30.1848 30.1865C32.1547 30.2244 33.7793 30.9836 35.0857 32.4363C35.5611 32.9643 35.5235 33.8131 35.0241 34.3031C34.5111 34.8069 33.8066 34.7897 33.2457 34.2548C31.7443 32.8228 29.6923 32.5364 28.0233 33.5474C27.7189 33.7338 27.4385 33.9718 27.1786 34.2237C26.6074 34.7724 25.9063 34.8242 25.3796 34.3238C24.8529 33.8235 24.8153 32.9712 25.3147 32.4191C26.6279 30.9698 28.2559 30.2175 30.1848 30.1865Z" fill="#B548C6"/>
<path d="M30.1301 40.0002C28.8066 40.0002 27.7395 38.9236 27.7395 37.5917C27.7395 36.2597 28.81 35.1797 30.1301 35.1797C31.4537 35.1797 32.5207 36.2563 32.5173 37.5917C32.5173 38.9271 31.4571 40.0002 30.1301 40.0002Z" fill="#B548C6"/>
</g>
<defs>
<clipPath id="clip0_0_1">
<rect width="25.1852" height="20" fill="white" transform="translate(17.4075 20.0002)"/>
</clipPath>
</defs>
</svg>
