<svg width="61" height="61" viewBox="0 0 61 61" fill="none" xmlns="http://www.w3.org/2000/svg">
<rect x="0.957031" y="0.344238" width="60" height="60" rx="12" fill="#F0EEFF"/>
<g clip-path="url(#clip0_0_1)">
<path d="M42.9977 36.8824C42.9507 37.1172 42.9132 37.3566 42.8615 37.5914C42.3028 40.1219 40.0493 41.9763 37.4625 41.9857C33.162 41.9998 28.8568 42.0045 24.5564 41.9857C21.5188 41.9716 19.0399 39.474 19.0165 36.4411C19.0024 34.5538 19.0071 32.6618 19.0165 30.7745C19.0212 29.704 19.5094 28.8918 20.4672 28.413C21.4249 27.9341 22.3639 28.028 23.223 28.6665C25.0305 30.0045 26.824 31.3566 28.6221 32.7087C30.1244 33.8402 31.8662 33.8496 33.3827 32.7181C35.1855 31.3707 36.9789 30.0186 38.7817 28.6759C40.2653 27.5726 42.3263 28.2205 42.8803 29.9529C42.9319 30.1078 42.9648 30.2674 43.0071 30.4224C42.9977 32.5726 42.9977 34.7275 42.9977 36.8824ZM30.9789 40.1172C33.0869 40.1172 35.1949 40.1172 37.3028 40.1172C39.4765 40.1125 41.1197 38.4693 41.1244 36.2862C41.1244 34.4834 41.1197 32.6806 41.1291 30.8731C41.1291 30.5256 41.0352 30.2439 40.7066 30.0796C40.378 29.9153 40.0963 30.0186 39.8193 30.2252C38.0352 31.5679 36.2512 32.9106 34.4625 34.2439C32.3075 35.8449 29.655 35.8261 27.5141 34.2158C25.7348 32.8824 23.9507 31.5491 22.1761 30.2111C21.9038 30.0045 21.6268 29.92 21.3075 30.0796C20.993 30.2393 20.885 30.5069 20.885 30.8496C20.8897 32.6759 20.885 34.5022 20.8897 36.3332C20.8897 36.582 20.9085 36.8355 20.9601 37.0796C21.3263 38.8824 22.8381 40.1172 24.6831 40.1172C26.777 40.1172 28.8803 40.1172 30.9789 40.1172Z" fill="#5542CF"/>
<path d="M35.6408 17.9998C36.0398 18.089 36.453 18.15 36.8426 18.2768C39.1525 19.0138 40.7206 21.1453 40.744 23.5584C40.7487 24.1453 40.7487 24.7275 40.744 25.3143C40.7393 25.8824 40.3356 26.2955 39.7957 26.2908C39.2699 26.2861 38.8802 25.873 38.8708 25.3143C38.8567 24.5725 38.899 23.826 38.8192 23.0937C38.6267 21.3237 37.0398 19.8918 35.2605 19.8777C32.4483 19.8589 29.6408 19.8542 26.8286 19.8777C24.9084 19.8965 23.2699 21.5584 23.2276 23.4927C23.2135 24.0937 23.2276 24.6946 23.2229 25.2955C23.2182 25.8824 22.8192 26.3002 22.2746 26.2955C21.7393 26.2908 21.345 25.873 21.3497 25.2955C21.3544 24.5162 21.3309 23.7321 21.4013 22.9575C21.6126 20.5819 23.5985 18.4833 25.9553 18.0937C26.1243 18.0655 26.2886 18.0326 26.4577 17.9998C29.5187 17.9998 32.5797 17.9998 35.6408 17.9998Z" fill="#5542CF"/>
<g clip-path="url(#clip1_0_1)">
<path d="M32.425 24.1794C32.425 23.963 32.4303 23.7461 32.425 23.5296C32.4208 23.4151 32.4639 23.3841 32.5726 23.3857C32.881 23.3915 33.1899 23.3936 33.4977 23.3857C33.629 23.382 33.6663 23.4262 33.6642 23.5538C33.6574 23.9604 33.6679 24.3675 33.659 24.7746C33.6558 24.9238 33.691 24.9847 33.8533 24.9784C34.2074 24.97 34.2079 24.9784 34.2079 25.343C34.2079 25.5594 34.2032 25.7763 34.2079 25.9927C34.211 26.0978 34.1832 26.1398 34.0671 26.1419C33.6605 26.1503 33.6605 26.1556 33.6605 26.5721C33.6605 26.7754 33.6658 26.9792 33.6605 27.1825C33.6569 27.2939 33.6947 27.3275 33.806 27.3312C34.2079 27.3427 34.2079 27.3469 34.2079 27.7456C34.2079 27.9489 34.2032 28.1528 34.2079 28.356C34.2116 28.4664 34.1748 28.5005 34.0624 28.5026C33.66 28.511 33.6605 28.5157 33.6605 28.9171C33.6605 29.2254 33.6558 29.5343 33.6605 29.8421C33.6605 29.964 33.6201 29.9997 33.5029 29.9971C33.162 29.9902 32.8201 29.9897 32.4791 29.9971C32.4312 30.0017 32.3829 29.9916 32.3408 29.968C32.2988 29.9444 32.2649 29.9086 32.2438 29.8652C32.0001 29.4607 31.7458 29.0626 31.5042 28.657C31.437 28.5436 31.365 28.4926 31.2263 28.4952C30.7604 28.5052 30.2944 28.5031 29.8285 28.4952C29.6993 28.4952 29.6615 28.5325 29.6641 28.6607C29.672 29.0479 29.6609 29.435 29.6699 29.8221C29.673 29.9629 29.6273 30.0007 29.4913 29.996C29.1961 29.9866 28.9003 29.9844 28.6056 29.996C28.4507 30.0028 28.4186 29.9435 28.4213 29.8043C28.4297 29.4303 28.4176 29.0563 28.427 28.6822C28.4307 28.5383 28.3945 28.4895 28.2426 28.4931C27.8933 28.5015 27.8928 28.4931 27.8928 28.148C27.8928 27.9185 27.897 27.6884 27.8928 27.4588C27.8928 27.3538 27.929 27.327 28.0294 27.3233C28.426 27.3076 28.426 27.3039 28.426 26.9031C28.426 26.6998 28.4202 26.496 28.426 26.2927C28.4302 26.175 28.3939 26.1351 28.2715 26.1351C27.8928 26.1314 27.8928 26.1262 27.8928 25.7401C27.8928 25.5368 27.8991 25.333 27.8928 25.1297C27.8876 25.0099 27.9254 24.9721 28.0472 24.9721C28.427 24.9663 28.427 24.9605 28.427 24.5708C28.427 24.2293 28.4307 23.8879 28.427 23.547C28.427 23.4319 28.4554 23.3831 28.5815 23.3862C28.9161 23.3941 29.2507 23.3931 29.5853 23.3862C29.6303 23.3826 29.6754 23.3929 29.7145 23.4156C29.7535 23.4383 29.7847 23.4724 29.8038 23.5134C30.0665 23.9514 30.3407 24.3843 30.6033 24.8234C30.6674 24.9285 30.7352 24.981 30.866 24.981C31.3319 24.9726 31.7978 24.9737 32.2638 24.981C32.3919 24.981 32.4366 24.9437 32.4308 24.8135C32.4208 24.6033 32.4308 24.3932 32.4308 24.1831L32.425 24.1794ZM31.4086 26.1388C31.6529 26.5375 31.8766 26.9047 32.1036 27.2703C32.1661 27.3706 32.2706 27.3259 32.3562 27.3228C32.4613 27.3186 32.4224 27.2261 32.4229 27.1689C32.4266 26.8737 32.4229 26.5784 32.4229 26.2832C32.4229 26.2118 32.4366 26.1361 32.3216 26.1377C32.0311 26.1414 31.7385 26.1388 31.4086 26.1388ZM30.6769 27.327L29.9814 26.1997C29.9183 26.0973 29.8159 26.1393 29.7313 26.143C29.6263 26.1482 29.6693 26.2412 29.6688 26.2969C29.6646 26.5916 29.6688 26.8863 29.6688 27.181C29.6688 27.2503 29.6499 27.3296 29.7671 27.328C30.057 27.3249 30.3486 27.327 30.6769 27.327Z" fill="#5542CF"/>
</g>
</g>
<defs>
<clipPath id="clip0_0_1">
<rect width="23.9953" height="24" fill="white" transform="translate(19.0023 18.0001)"/>
</clipPath>
<clipPath id="clip1_0_1">
<rect width="6.31718" height="6.61398" fill="white" transform="translate(27.89 23.3857)"/>
</clipPath>
</defs>
</svg>
