<svg width="60" height="60" viewBox="0 0 60 60" fill="none" xmlns="http://www.w3.org/2000/svg">
<rect width="60" height="60" rx="12" fill="#FFF2DB"/>
<g clip-path="url(#clip0_0_1)">
<path d="M15.9962 35.8568C15.9962 31.4696 15.9962 27.088 15.9962 22.7008C16.0075 22.6839 16.0188 22.6669 16.0244 22.65C16.1992 21.6914 17.203 20.9752 18.3928 21.2684C21.703 22.0918 25.0019 21.9677 28.2669 20.9583C32.0451 19.7854 35.8515 19.6782 39.6861 20.6763C40.6898 20.9357 41.2086 21.5899 41.2086 22.6162C41.2086 26.6933 41.2086 30.7647 41.2086 34.8418C41.2086 34.9263 41.2086 35.0109 41.203 35.0955C41.1466 36.1839 40.1485 36.9621 39.077 36.7647C38.2425 36.6068 37.4079 36.4151 36.562 36.3136C33.9793 36.0034 31.4361 36.2515 28.9549 37.0241C25.1203 38.2196 21.2575 38.3211 17.3778 37.2609C16.9041 37.1312 16.5263 36.8775 16.2725 36.4545C16.1597 36.2741 16.0864 36.0598 15.9962 35.8568ZM17.8007 23.0222C17.7951 23.0955 17.7894 23.1688 17.7894 23.2421C17.7894 27.2628 17.7951 31.2778 17.7951 35.2985C17.7951 35.4677 17.8402 35.541 18.0094 35.5861C19.374 35.9414 20.7613 36.1444 22.171 36.1951C24.4154 36.2741 26.5864 35.885 28.7293 35.2365C31.5601 34.3737 34.4473 34.182 37.374 34.6162C38.0507 34.7177 38.7161 34.8587 39.4097 34.9827C39.4097 34.4019 39.4097 33.8211 39.4097 33.2459C39.4097 29.7497 39.4097 26.2591 39.4097 22.7628C39.4097 22.6162 39.4379 22.4809 39.2237 22.4245C37.8928 22.0805 36.5451 21.8662 35.1748 21.8154C32.9643 21.7309 30.8101 22.0579 28.6955 22.7121C25.78 23.6087 22.8139 23.8342 19.797 23.3831C19.1372 23.2816 18.4774 23.1406 17.8007 23.0222Z" fill="#F59E0B"/>
<g clip-path="url(#clip1_0_1)">
<path d="M24.9186 32.2889C24.9955 32.0674 25.0724 31.846 25.1477 31.6245C25.2261 31.3923 25.3 31.1585 25.3815 30.9279C25.3999 30.8771 25.4291 30.8248 25.4676 30.7864C26.9178 29.3331 28.3695 27.8814 29.8212 26.4281C29.832 26.4174 29.8428 26.4081 29.8489 26.4035C30.2687 26.8234 30.687 27.2432 31.1099 27.6661C31.1007 27.6769 31.0823 27.6969 31.0623 27.7169C29.6275 29.1532 28.1911 30.5895 26.7548 32.0228C26.7025 32.0751 26.6333 32.1182 26.5641 32.1412C26.1473 32.2858 25.7275 32.4227 25.3077 32.5626C25.1062 32.6303 25.0216 32.598 24.9186 32.4119C24.9186 32.3704 24.9186 32.3288 24.9186 32.2889Z" fill="#F59E0B"/>
<path d="M31.1806 25.2271C31.239 25.2702 31.3036 25.3086 31.3559 25.3594C31.6327 25.6316 31.9065 25.9084 32.1817 26.1837C32.3232 26.3252 32.3232 26.4559 32.1833 26.5943C31.948 26.8296 31.7142 27.0649 31.4851 27.2925C31.0637 26.8711 30.6454 26.4528 30.2072 26.0145C30.2179 26.0084 30.2471 25.9991 30.2671 25.9807C30.4701 25.7792 30.67 25.5747 30.8746 25.3748C30.9315 25.3194 30.9961 25.2764 31.0576 25.2271C31.0976 25.2271 31.1391 25.2271 31.1806 25.2271Z" fill="#F59E0B"/>
</g>
</g>
<defs>
<clipPath id="clip0_0_1">
<rect width="25.2068" height="18" fill="white" transform="translate(15.9962 20.0001)"/>
</clipPath>
<clipPath id="clip1_0_1">
<rect width="7.36781" height="7.36627" fill="white" transform="translate(24.9186 25.2272)"/>
</clipPath>
</defs>
</svg>
