<svg width="60" height="60" viewBox="0 0 60 60" fill="none" xmlns="http://www.w3.org/2000/svg">
<rect x="0.800049" width="58.4" height="60" rx="14.038" fill="#FF8700" fill-opacity="0.1"/>
<g clip-path="url(#clip0_0_1)">
<path d="M19.0501 29.988C19.0644 23.9326 23.9614 19.0404 30.0025 19.05C36.0627 19.0596 40.9644 23.9709 40.9453 30.0216C40.9309 36.0722 36.0148 40.9692 29.9785 40.95C23.9279 40.9309 19.0357 36.0243 19.0501 29.988ZM20.5771 29.9833C20.5579 35.1722 24.7465 39.3847 29.969 39.4182C35.158 39.4565 39.3991 35.2297 39.4183 30.012C39.4374 24.8086 35.2154 20.5818 30.0025 20.577C24.8039 20.5722 20.5962 24.7703 20.5771 29.9833Z" fill="#FF8700"/>
<path d="M29.1361 31.673C28.3319 31.673 27.5468 31.673 26.757 31.673C26.6613 31.673 26.5655 31.673 26.4698 31.673C26.0964 31.6682 25.9528 31.4241 26.1443 31.0986C27.6952 28.4323 29.251 25.7708 30.8067 23.1045C30.912 22.9226 31.0508 22.8221 31.2567 22.8939C31.4625 22.9705 31.4912 23.1428 31.4625 23.3486C31.2614 24.9283 31.0652 26.5032 30.8641 28.0829C30.8546 28.1547 30.8546 28.2265 30.8498 28.327C30.9455 28.327 31.0269 28.327 31.1131 28.327C31.9077 28.327 32.7023 28.327 33.5017 28.327C33.9086 28.327 34.0426 28.5663 33.8368 28.9206C32.2906 31.5725 30.7445 34.2197 29.2031 36.8716C29.093 37.0583 28.959 37.1827 28.7435 37.1014C28.5234 37.02 28.5138 36.8333 28.5377 36.6275C28.7388 35.0478 28.935 33.4729 29.1313 31.8932C29.1409 31.831 29.1361 31.7688 29.1361 31.673Z" fill="#FF8700"/>
</g>
<defs>
<clipPath id="clip0_0_1">
<rect width="21.9" height="21.9" fill="white" transform="translate(19.05 19.05)"/>
</clipPath>
</defs>
</svg>
