<svg width="148" height="39" viewBox="0 0 148 39" fill="none" xmlns="http://www.w3.org/2000/svg">
<g clip-path="url(#clip0_0_1)">
<path d="M10.2837 16.9427L0.234863 27.4709C0.347711 27.8708 0.550502 28.2396 0.827735 28.5492C1.10497 28.8587 1.4493 29.1007 1.83442 29.2568C2.21953 29.4129 2.63523 29.4788 3.04973 29.4496C3.46424 29.4204 3.86657 29.2968 4.22599 29.0882L15.5329 22.6486L10.2837 16.9427Z" fill="#EA4335"/>
<path d="M20.4449 15.1531L15.5555 12.3525L10.0518 17.1822L15.5779 22.6335L20.4301 19.8629C20.86 19.6378 21.22 19.2993 21.4712 18.8842C21.7224 18.4691 21.8552 17.9932 21.8552 17.5079C21.8552 17.0227 21.7224 16.5468 21.4712 16.1317C21.22 15.7165 20.86 15.3781 20.4301 15.153H20.4451L20.4449 15.1531Z" fill="#FBBC04"/>
<path d="M0.234942 7.49286C0.174202 7.71741 0.143966 7.94912 0.145048 8.18174V26.7819C0.145677 27.0144 0.175884 27.246 0.234942 27.4709L10.6283 17.2123L0.234942 7.49286Z" fill="#4285F4"/>
<path d="M10.3586 17.4819L15.5553 12.3526L4.26347 5.88292C3.83862 5.63411 3.35542 5.50234 2.86308 5.50104C1.64128 5.49867 0.567132 6.30958 0.234863 7.48541L10.3586 17.4819Z" fill="#34A853"/>
</g>
<path d="M47.936 2.06904C47.6 2.71704 47.444 3.46104 47.444 4.30104C47.444 5.14104 47.612 5.88504 47.948 6.53304C48.284 7.18104 48.752 7.68504 49.352 8.04504C49.952 8.40504 50.636 8.57304 51.416 8.57304C52.016 8.57304 52.544 8.45304 52.988 8.20104C53.432 7.96104 53.78 7.66104 54.02 7.30104L54.164 8.50104H55.208V3.90504H51.56V5.06904H53.888V5.27304C53.852 5.93304 53.612 6.44904 53.156 6.80904C52.7 7.18104 52.148 7.36104 51.476 7.36104C50.948 7.36104 50.48 7.24104 50.084 6.97704C49.688 6.71304 49.388 6.35304 49.172 5.89704C48.956 5.44104 48.86 4.90104 48.86 4.30104C48.86 3.70104 48.968 3.17304 49.184 2.71704C49.4 2.26104 49.7 1.90104 50.096 1.63704C50.492 1.37304 50.96 1.24104 51.488 1.24104C52.064 1.24104 52.544 1.39704 52.94 1.69704C53.336 2.00904 53.6 2.42904 53.744 2.95704H55.112C54.968 2.06904 54.572 1.34904 53.936 0.821037C53.288 0.293037 52.484 0.0290372 51.524 0.0290372C50.696 0.0290372 49.976 0.209037 49.364 0.569037C48.74 0.929037 48.272 1.42104 47.936 2.06904ZM56.7566 3.78504C56.5046 4.26504 56.3846 4.81704 56.3846 5.44104C56.3846 6.06504 56.5046 6.61704 56.7686 7.08504C57.0326 7.56504 57.3926 7.92504 57.8726 8.18904C58.3526 8.45304 58.9046 8.57304 59.5526 8.57304C60.2846 8.57304 60.8966 8.38104 61.3886 7.97304C61.8806 7.57704 62.1806 7.06104 62.3006 6.43704H61.0046C60.9086 6.78504 60.7286 7.04904 60.4646 7.24104C60.1886 7.43304 59.8526 7.51704 59.4566 7.51704C58.9526 7.51704 58.5446 7.36104 58.2446 7.04904C57.9326 6.73704 57.7646 6.31704 57.7406 5.77704V5.70504H62.3726C62.3966 5.53704 62.4086 5.38104 62.4086 5.21304C62.3966 4.62504 62.2646 4.10904 62.0006 3.66504C61.7366 3.23304 61.3886 2.88504 60.9326 2.64504C60.4766 2.40504 59.9606 2.28504 59.3726 2.28504C58.7846 2.28504 58.2686 2.41704 57.8126 2.68104C57.3566 2.94504 57.0086 3.30504 56.7566 3.78504ZM61.0886 4.75704H57.7886C57.8366 4.32504 58.0046 3.98904 58.3166 3.72504C58.6286 3.46104 58.9886 3.32904 59.4206 3.32904C59.8766 3.32904 60.2486 3.46104 60.5486 3.71304C60.8486 3.96504 61.0286 4.31304 61.0886 4.75704ZM63.8054 3.49704V6.83304C63.8054 7.40904 63.9374 7.82904 64.2014 8.09304C64.4654 8.36904 64.8974 8.50104 65.4854 8.50104H66.7334V7.36104H65.7494C65.5094 7.36104 65.3534 7.31304 65.2574 7.21704C65.1614 7.12104 65.1134 6.94104 65.1134 6.70104V3.49704H66.5894V2.35704H65.1134V0.641037H63.8054V2.35704H62.7374V3.49704H63.8054ZM71.7593 8.18904C72.2393 8.45304 72.7793 8.57304 73.4033 8.57304C74.0153 8.57304 74.5553 8.45304 75.0353 8.18904C75.5153 7.92504 75.8753 7.56504 76.1393 7.08504C76.4033 6.60504 76.5353 6.05304 76.5353 5.42904C76.5353 4.81704 76.4033 4.27704 76.1393 3.79704C75.8753 3.31704 75.5153 2.94504 75.0353 2.68104C74.5553 2.41704 74.0153 2.28504 73.4033 2.28504C72.7793 2.28504 72.2393 2.41704 71.7593 2.68104C71.2793 2.94504 70.9193 3.31704 70.6553 3.79704C70.3913 4.27704 70.2713 4.81704 70.2713 5.42904C70.2713 6.05304 70.3913 6.60504 70.6553 7.08504C70.9193 7.56504 71.2793 7.92504 71.7593 8.18904ZM74.7113 6.90504C74.3753 7.28904 73.9433 7.46904 73.4033 7.46904C72.8513 7.46904 72.4193 7.28904 72.0953 6.90504C71.7593 6.52104 71.6033 6.02904 71.6033 5.42904C71.6033 4.82904 71.7593 4.34904 72.0953 3.96504C72.4193 3.58104 72.8513 3.38904 73.4033 3.38904C73.9433 3.38904 74.3753 3.58104 74.7113 3.96504C75.0473 4.34904 75.2153 4.82904 75.2153 5.42904C75.2153 6.02904 75.0473 6.52104 74.7113 6.90504ZM82.5934 2.95704C82.1374 2.51304 81.5374 2.28504 80.8174 2.28504C79.9654 2.28504 79.3054 2.58504 78.8494 3.16104L78.7054 2.35704H77.5774V8.50104H78.8734V5.40504C78.8734 4.78104 79.0174 4.30104 79.3054 3.94104C79.5934 3.58104 80.0014 3.40104 80.5174 3.40104C80.9974 3.40104 81.3574 3.55704 81.6094 3.85704C81.8494 4.16904 81.9814 4.61304 81.9814 5.18904V8.50104H83.2894V5.11704C83.2894 4.13304 83.0494 3.41304 82.5934 2.95704Z" fill="#515251"/>
<path d="M48.332 24.835C48.836 23.863 49.556 23.125 50.492 22.585C51.428 22.063 52.544 21.793 53.822 21.793C54.812 21.793 55.712 21.991 56.504 22.369C57.296 22.765 57.926 23.305 58.412 23.989C58.898 24.691 59.204 25.483 59.312 26.383H56.648C56.468 25.681 56.144 25.123 55.64 24.709C55.136 24.295 54.506 24.079 53.75 24.079C53.048 24.079 52.436 24.259 51.932 24.601C51.41 24.961 51.014 25.447 50.744 26.059C50.456 26.689 50.33 27.409 50.33 28.201C50.33 29.443 50.618 30.433 51.23 31.189C51.842 31.945 52.67 32.323 53.75 32.323C54.524 32.323 55.208 32.125 55.82 31.693C56.414 31.261 56.774 30.631 56.9 29.803V29.641H53.768V27.499H59.402V34.501H57.53L57.242 32.935C56.864 33.439 56.36 33.835 55.748 34.141C55.118 34.465 54.398 34.609 53.57 34.609C52.382 34.609 51.32 34.357 50.42 33.817C49.52 33.295 48.818 32.539 48.314 31.567C47.81 30.595 47.576 29.479 47.576 28.201C47.576 26.923 47.828 25.807 48.332 24.835ZM63.3084 34.033C62.5704 33.637 61.9944 33.079 61.5984 32.359C61.2024 31.639 61.0044 30.811 61.0044 29.875C61.0044 28.939 61.2024 28.111 61.5984 27.391C61.9944 26.671 62.5704 26.131 63.3084 25.735C64.0464 25.339 64.9104 25.141 65.8824 25.141C66.8544 25.141 67.7004 25.339 68.4384 25.735C69.1764 26.131 69.7524 26.671 70.1484 27.391C70.5444 28.111 70.7604 28.939 70.7604 29.875C70.7604 30.829 70.5444 31.657 70.1484 32.377C69.7524 33.097 69.1764 33.637 68.4384 34.033C67.7004 34.429 66.8544 34.609 65.8824 34.609C64.9104 34.609 64.0464 34.429 63.3084 34.033ZM67.5564 31.801C67.9704 31.315 68.1864 30.667 68.1864 29.875C68.1864 29.083 67.9704 28.453 67.5564 27.949C67.1424 27.463 66.5844 27.211 65.8824 27.211C65.1804 27.211 64.6224 27.463 64.2084 27.949C63.7944 28.453 63.5964 29.083 63.5964 29.875C63.5964 30.667 63.7944 31.315 64.2084 31.801C64.6224 32.305 65.1804 32.539 65.8824 32.539C66.5844 32.539 67.1424 32.305 67.5564 31.801ZM74.1014 34.033C73.3634 33.637 72.7874 33.079 72.3914 32.359C71.9954 31.639 71.7974 30.811 71.7974 29.875C71.7974 28.939 71.9954 28.111 72.3914 27.391C72.7874 26.671 73.3634 26.131 74.1014 25.735C74.8394 25.339 75.7034 25.141 76.6754 25.141C77.6474 25.141 78.4934 25.339 79.2314 25.735C79.9694 26.131 80.5454 26.671 80.9414 27.391C81.3374 28.111 81.5534 28.939 81.5534 29.875C81.5534 30.829 81.3374 31.657 80.9414 32.377C80.5454 33.097 79.9694 33.637 79.2314 34.033C78.4934 34.429 77.6474 34.609 76.6754 34.609C75.7034 34.609 74.8394 34.429 74.1014 34.033ZM78.3494 31.801C78.7634 31.315 78.9794 30.667 78.9794 29.875C78.9794 29.083 78.7634 28.453 78.3494 27.949C77.9354 27.463 77.3774 27.211 76.6754 27.211C75.9734 27.211 75.4154 27.463 75.0014 27.949C74.5874 28.453 74.3894 29.083 74.3894 29.875C74.3894 30.667 74.5874 31.315 75.0014 31.801C75.4154 32.305 75.9734 32.539 76.6754 32.539C77.3774 32.539 77.9354 32.305 78.3494 31.801ZM92.2024 25.249V34.231C92.2024 35.455 91.7884 36.409 90.9964 37.129C90.1864 37.849 88.9444 38.209 87.2524 38.209C85.9384 38.209 84.8764 37.921 84.0844 37.345C83.2744 36.769 82.8424 35.959 82.7884 34.897H85.3444C85.4524 35.347 85.6864 35.689 86.0464 35.923C86.4064 36.175 86.8744 36.283 87.4504 36.283C88.1704 36.283 88.7284 36.103 89.1244 35.743C89.5204 35.383 89.7184 34.861 89.7184 34.141V33.169C89.0344 34.033 88.0804 34.447 86.8564 34.447C86.0284 34.447 85.3084 34.267 84.6604 33.871C84.0124 33.493 83.4904 32.953 83.1304 32.251C82.7704 31.549 82.5904 30.721 82.5904 29.785C82.5904 28.867 82.7704 28.057 83.1304 27.337C83.4904 26.635 84.0124 26.095 84.6604 25.699C85.3084 25.321 86.0464 25.123 86.8744 25.123C88.0804 25.123 89.0344 25.591 89.7544 26.527L89.9704 25.249H92.2024ZM89.0884 31.693C89.4844 31.225 89.7004 30.595 89.7004 29.821C89.7004 29.047 89.4844 28.417 89.0884 27.913C88.6744 27.427 88.1344 27.175 87.4504 27.175C86.7664 27.175 86.2084 27.427 85.7944 27.913C85.3804 28.399 85.1824 29.029 85.1824 29.803C85.1824 30.595 85.3804 31.225 85.7944 31.693C86.2084 32.179 86.7664 32.413 87.4504 32.413C88.1344 32.413 88.6744 32.179 89.0884 31.693ZM93.9718 21.901H96.5098V34.501H93.9718V21.901ZM98.4945 27.391C98.8905 26.671 99.4305 26.131 100.132 25.735C100.834 25.339 101.644 25.141 102.58 25.141C103.516 25.141 104.326 25.339 105.046 25.699C105.766 26.059 106.324 26.581 106.72 27.247C107.116 27.913 107.332 28.687 107.35 29.587C107.35 29.911 107.314 30.199 107.278 30.451H100.564V30.523C100.618 31.207 100.834 31.729 101.212 32.107C101.572 32.503 102.094 32.683 102.742 32.683C103.246 32.683 103.678 32.575 104.02 32.359C104.362 32.143 104.596 31.801 104.704 31.369H107.206C107.098 31.981 106.864 32.539 106.504 33.025C106.126 33.529 105.64 33.907 105.028 34.195C104.416 34.483 103.714 34.609 102.922 34.609C101.878 34.609 100.996 34.429 100.24 34.033C99.4845 33.655 98.9085 33.115 98.5125 32.395C98.1165 31.675 97.9185 30.847 97.9185 29.893C97.9185 28.939 98.0985 28.111 98.4945 27.391ZM104.812 28.795C104.722 28.237 104.488 27.805 104.11 27.499C103.732 27.193 103.264 27.031 102.688 27.031C102.13 27.031 101.662 27.193 101.284 27.517C100.906 27.841 100.69 28.255 100.618 28.795H104.812ZM118.53 21.901C119.43 21.901 120.222 22.081 120.906 22.423C121.59 22.765 122.13 23.251 122.508 23.881C122.886 24.529 123.084 25.267 123.084 26.095C123.084 26.941 122.886 27.679 122.508 28.309C122.13 28.939 121.59 29.425 120.906 29.767C120.222 30.109 119.43 30.271 118.53 30.271H116.1V34.501H113.4V21.901H118.53ZM116.1 28.021H118.278C118.908 28.021 119.412 27.859 119.79 27.499C120.15 27.157 120.348 26.689 120.348 26.095C120.348 25.501 120.15 25.033 119.79 24.673C119.412 24.331 118.908 24.151 118.278 24.151H116.1V28.021ZM124.4 21.901H126.938V34.501H124.4V21.901ZM137.814 32.359V34.501H136.518C135.348 34.501 134.772 33.997 134.808 32.989C134.466 33.529 134.052 33.925 133.566 34.195C133.062 34.483 132.468 34.609 131.784 34.609C130.74 34.609 129.912 34.375 129.282 33.907C128.652 33.439 128.346 32.755 128.346 31.891C128.346 30.919 128.706 30.163 129.426 29.623C130.146 29.083 131.208 28.813 132.594 28.813H134.43V28.363C134.43 27.949 134.268 27.625 133.962 27.373C133.638 27.121 133.224 26.995 132.702 26.995C132.234 26.995 131.838 27.103 131.55 27.301C131.244 27.517 131.064 27.787 131.01 28.129H128.562C128.634 27.193 129.066 26.455 129.822 25.933C130.578 25.411 131.568 25.141 132.828 25.141C134.124 25.141 135.132 25.429 135.852 26.005C136.572 26.581 136.932 27.427 136.932 28.507V31.765C136.932 31.999 136.968 32.161 137.076 32.233C137.166 32.323 137.31 32.359 137.526 32.359H137.814ZM134.43 30.505H132.576C132.036 30.505 131.622 30.613 131.334 30.829C131.046 31.045 130.902 31.333 130.902 31.711C130.902 32.035 131.01 32.305 131.262 32.485C131.514 32.683 131.838 32.773 132.27 32.773C132.918 32.773 133.44 32.593 133.836 32.215C134.214 31.837 134.412 31.333 134.43 30.685V30.505ZM140.28 25.249L142.53 31.891L144.726 25.249H147.444L143.34 35.815C143.124 36.391 142.908 36.823 142.728 37.147C142.53 37.471 142.278 37.705 141.99 37.867C141.702 38.029 141.324 38.101 140.856 38.101H138.39V35.959H139.794C140.118 35.959 140.352 35.905 140.496 35.797C140.64 35.689 140.766 35.491 140.91 35.167L141.144 34.555L137.58 25.249H140.28Z" fill="#515251"/>
<defs>
<clipPath id="clip0_0_1">
<rect width="21.7102" height="24" fill="white" transform="translate(0.14502 5.50104)"/>
</clipPath>
</defs>
</svg>
