<svg width="153" height="49" viewBox="0 0 153 49" fill="none" xmlns="http://www.w3.org/2000/svg">
<circle cx="24" cy="24.501" r="24" fill="#F2F1F1"/>
<path d="M29.0499 32.781C28.0699 33.731 26.9999 33.581 25.9699 33.131C24.8799 32.671 23.8799 32.651 22.7299 33.131C21.2899 33.751 20.5299 33.571 19.6699 32.781C14.7899 27.751 15.5099 20.091 21.0499 19.811C22.3999 19.881 23.3399 20.551 24.1299 20.611C25.3099 20.371 26.4399 19.681 27.6999 19.771C29.2099 19.891 30.3499 20.491 31.0999 21.571C27.9799 23.441 28.7199 27.551 31.5799 28.701C31.0099 30.201 30.2699 31.691 29.0399 32.791L29.0499 32.781ZM24.0299 19.751C23.8799 17.521 25.6899 15.681 27.7699 15.501C28.0599 18.081 25.4299 20.001 24.0299 19.751Z" fill="black"/>
<path d="M60.768 7.10104V15.501H63.444C64.296 15.501 65.04 15.333 65.688 14.973C66.324 14.625 66.816 14.133 67.164 13.497C67.5 12.861 67.68 12.129 67.68 11.301C67.68 10.473 67.5 9.74104 67.164 9.10504C66.816 8.48104 66.324 7.98904 65.688 7.62904C65.04 7.28104 64.296 7.10104 63.444 7.10104H60.768ZM63.444 14.301H62.148V8.30104H63.444C64.344 8.30104 65.04 8.57704 65.532 9.11704C66.012 9.65704 66.264 10.389 66.264 11.301C66.264 12.225 66.012 12.957 65.532 13.497C65.04 14.037 64.344 14.301 63.444 14.301ZM70.0171 15.189C70.4971 15.453 71.0371 15.573 71.6611 15.573C72.2731 15.573 72.8131 15.453 73.2931 15.189C73.7731 14.925 74.1331 14.565 74.3971 14.085C74.6611 13.605 74.7931 13.053 74.7931 12.429C74.7931 11.817 74.6611 11.277 74.3971 10.797C74.1331 10.317 73.7731 9.94504 73.2931 9.68104C72.8131 9.41704 72.2731 9.28504 71.6611 9.28504C71.0371 9.28504 70.4971 9.41704 70.0171 9.68104C69.5371 9.94504 69.1771 10.317 68.9131 10.797C68.6491 11.277 68.5291 11.817 68.5291 12.429C68.5291 13.053 68.6491 13.605 68.9131 14.085C69.1771 14.565 69.5371 14.925 70.0171 15.189ZM72.9691 13.905C72.6331 14.289 72.2011 14.469 71.6611 14.469C71.1091 14.469 70.6771 14.289 70.3531 13.905C70.0171 13.521 69.8611 13.029 69.8611 12.429C69.8611 11.829 70.0171 11.349 70.3531 10.965C70.6771 10.581 71.1091 10.389 71.6611 10.389C72.2011 10.389 72.6331 10.581 72.9691 10.965C73.3051 11.349 73.4731 11.829 73.4731 12.429C73.4731 13.029 73.3051 13.521 72.9691 13.905ZM75.0714 9.35704L77.0754 15.513L78.4794 15.501L79.8234 11.325L81.1194 15.501H82.5114L84.5514 9.35704H83.2314L81.7794 14.061L80.4354 9.35704H79.2474L77.8434 14.061L76.4394 9.35704H75.0714ZM90.2497 9.95704C89.7937 9.51304 89.1937 9.28504 88.4737 9.28504C87.6217 9.28504 86.9617 9.58504 86.5057 10.161L86.3617 9.35704H85.2337V15.501H86.5297V12.405C86.5297 11.781 86.6737 11.301 86.9617 10.941C87.2497 10.581 87.6577 10.401 88.1737 10.401C88.6537 10.401 89.0137 10.557 89.2657 10.857C89.5057 11.169 89.6377 11.613 89.6377 12.189V15.501H90.9457V12.117C90.9457 11.133 90.7057 10.413 90.2497 9.95704ZM92.1243 7.10104V15.501H93.4203V7.10104H92.1243ZM95.9507 15.189C96.4307 15.453 96.9707 15.573 97.5947 15.573C98.2067 15.573 98.7467 15.453 99.2267 15.189C99.7067 14.925 100.067 14.565 100.331 14.085C100.595 13.605 100.727 13.053 100.727 12.429C100.727 11.817 100.595 11.277 100.331 10.797C100.067 10.317 99.7067 9.94504 99.2267 9.68104C98.7467 9.41704 98.2067 9.28504 97.5947 9.28504C96.9707 9.28504 96.4307 9.41704 95.9507 9.68104C95.4707 9.94504 95.1107 10.317 94.8467 10.797C94.5827 11.277 94.4627 11.817 94.4627 12.429C94.4627 13.053 94.5827 13.605 94.8467 14.085C95.1107 14.565 95.4707 14.925 95.9507 15.189ZM98.9027 13.905C98.5667 14.289 98.1347 14.469 97.5947 14.469C97.0427 14.469 96.6107 14.289 96.2867 13.905C95.9507 13.521 95.7947 13.029 95.7947 12.429C95.7947 11.829 95.9507 11.349 96.2867 10.965C96.6107 10.581 97.0427 10.389 97.5947 10.389C98.1347 10.389 98.5667 10.581 98.9027 10.965C99.2387 11.349 99.4067 11.829 99.4067 12.429C99.4067 13.029 99.2387 13.521 98.9027 13.905ZM107.649 14.373H107.397C107.121 14.373 106.989 14.229 106.989 13.941V11.517C106.989 10.797 106.761 10.245 106.317 9.86104C105.861 9.47704 105.225 9.28504 104.409 9.28504C103.629 9.28504 103.005 9.46504 102.525 9.80104C102.045 10.137 101.769 10.617 101.709 11.229H102.981C103.029 10.965 103.173 10.749 103.413 10.581C103.653 10.413 103.965 10.329 104.349 10.329C104.769 10.329 105.105 10.437 105.345 10.629C105.585 10.821 105.705 11.097 105.705 11.433V11.805H104.157C103.293 11.805 102.645 11.985 102.201 12.321C101.745 12.657 101.529 13.149 101.529 13.773C101.529 14.337 101.733 14.781 102.153 15.093C102.561 15.417 103.113 15.573 103.809 15.573C104.697 15.573 105.369 15.225 105.837 14.517C105.837 14.841 105.921 15.081 106.101 15.249C106.269 15.417 106.557 15.501 106.965 15.501H107.649V14.373ZM105.705 12.765V12.981C105.693 13.461 105.537 13.845 105.237 14.133C104.937 14.421 104.517 14.565 103.989 14.565C103.629 14.565 103.353 14.493 103.149 14.325C102.945 14.169 102.849 13.953 102.849 13.689C102.849 13.389 102.957 13.161 103.173 13.005C103.389 12.849 103.689 12.765 104.097 12.765H105.705ZM114.319 7.10104H113.023V10.209C112.807 9.92104 112.543 9.70504 112.207 9.53704C111.871 9.36904 111.475 9.28504 111.031 9.28504C110.479 9.28504 109.975 9.41704 109.543 9.68104C109.099 9.94504 108.751 10.305 108.499 10.785C108.247 11.265 108.127 11.805 108.127 12.429C108.127 13.077 108.247 13.629 108.499 14.109C108.739 14.589 109.087 14.949 109.531 15.201C109.963 15.453 110.467 15.573 111.031 15.573C111.871 15.573 112.543 15.249 113.035 14.577L113.191 15.501H114.319V7.10104ZM112.543 13.917C112.207 14.301 111.775 14.481 111.247 14.481C110.707 14.481 110.275 14.301 109.951 13.917C109.615 13.533 109.459 13.041 109.459 12.429C109.459 11.829 109.615 11.349 109.951 10.965C110.275 10.581 110.707 10.389 111.247 10.389C111.775 10.389 112.207 10.581 112.543 10.965C112.867 11.349 113.035 11.841 113.035 12.453C113.035 13.053 112.867 13.545 112.543 13.917ZM119.916 15.189C120.396 15.453 120.936 15.573 121.56 15.573C122.172 15.573 122.712 15.453 123.192 15.189C123.672 14.925 124.032 14.565 124.296 14.085C124.56 13.605 124.692 13.053 124.692 12.429C124.692 11.817 124.56 11.277 124.296 10.797C124.032 10.317 123.672 9.94504 123.192 9.68104C122.712 9.41704 122.172 9.28504 121.56 9.28504C120.936 9.28504 120.396 9.41704 119.916 9.68104C119.436 9.94504 119.076 10.317 118.812 10.797C118.548 11.277 118.428 11.817 118.428 12.429C118.428 13.053 118.548 13.605 118.812 14.085C119.076 14.565 119.436 14.925 119.916 15.189ZM122.868 13.905C122.532 14.289 122.1 14.469 121.56 14.469C121.008 14.469 120.576 14.289 120.252 13.905C119.916 13.521 119.76 13.029 119.76 12.429C119.76 11.829 119.916 11.349 120.252 10.965C120.576 10.581 121.008 10.389 121.56 10.389C122.1 10.389 122.532 10.581 122.868 10.965C123.204 11.349 123.372 11.829 123.372 12.429C123.372 13.029 123.204 13.521 122.868 13.905ZM130.75 9.95704C130.294 9.51304 129.694 9.28504 128.974 9.28504C128.122 9.28504 127.462 9.58504 127.006 10.161L126.862 9.35704H125.734V15.501H127.03V12.405C127.03 11.781 127.174 11.301 127.462 10.941C127.75 10.581 128.158 10.401 128.674 10.401C129.154 10.401 129.514 10.557 129.766 10.857C130.006 11.169 130.138 11.613 130.138 12.189V15.501H131.446V12.117C131.446 11.133 131.206 10.413 130.75 9.95704ZM136.091 10.497V13.833C136.091 14.409 136.223 14.829 136.487 15.093C136.751 15.369 137.183 15.501 137.771 15.501H139.019V14.361H138.035C137.795 14.361 137.639 14.313 137.543 14.217C137.447 14.121 137.399 13.941 137.399 13.701V10.497H138.875V9.35704H137.399V7.64104H136.091V9.35704H135.023V10.497H136.091ZM144.73 9.95704C144.274 9.51304 143.674 9.28504 142.942 9.28504C142.114 9.28504 141.466 9.60904 141.01 10.245V7.10104H139.714V15.501H141.01V12.393C141.01 11.781 141.154 11.301 141.442 10.941C141.73 10.581 142.138 10.401 142.654 10.401C143.134 10.401 143.494 10.557 143.746 10.857C143.998 11.169 144.13 11.613 144.13 12.189V15.501H145.426V12.117C145.426 11.133 145.186 10.413 144.73 9.95704ZM146.749 10.785C146.497 11.265 146.377 11.817 146.377 12.441C146.377 13.065 146.497 13.617 146.761 14.085C147.025 14.565 147.385 14.925 147.865 15.189C148.345 15.453 148.897 15.573 149.545 15.573C150.277 15.573 150.889 15.381 151.381 14.973C151.873 14.577 152.173 14.061 152.293 13.437H150.997C150.901 13.785 150.721 14.049 150.457 14.241C150.181 14.433 149.845 14.517 149.449 14.517C148.945 14.517 148.537 14.361 148.237 14.049C147.925 13.737 147.757 13.317 147.733 12.777V12.705H152.365C152.389 12.537 152.401 12.381 152.401 12.213C152.389 11.625 152.257 11.109 151.993 10.665C151.729 10.233 151.381 9.88504 150.925 9.64504C150.469 9.40504 149.953 9.28504 149.365 9.28504C148.777 9.28504 148.261 9.41704 147.805 9.68104C147.349 9.94504 147.001 10.305 146.749 10.785ZM151.081 11.757H147.781C147.829 11.325 147.997 10.989 148.309 10.725C148.621 10.461 148.981 10.329 149.413 10.329C149.869 10.329 150.241 10.461 150.541 10.713C150.841 10.965 151.021 11.313 151.081 11.757Z" fill="#515251"/>
<path d="M60.072 41.501L64.68 28.901H67.92L72.492 41.501H69.594L68.622 38.747H63.834L62.862 41.501H60.072ZM64.554 36.569H67.884L66.21 31.781L64.554 36.569ZM80.9924 32.735C81.6404 33.131 82.1444 33.671 82.5044 34.391C82.8644 35.111 83.0624 35.957 83.0624 36.893C83.0624 37.847 82.8644 38.675 82.5044 39.377C82.1444 40.097 81.6404 40.637 80.9924 41.033C80.3444 41.429 79.6064 41.609 78.7784 41.609C77.5904 41.609 76.6544 41.195 75.9884 40.331V45.101H73.4504V32.249H75.6644L75.9164 33.527C76.2224 33.113 76.6184 32.771 77.1044 32.519C77.5904 32.267 78.1484 32.141 78.7964 32.141C79.6244 32.141 80.3444 32.339 80.9924 32.735ZM79.8584 38.801C80.2724 38.297 80.4884 37.649 80.4884 36.857C80.4884 36.065 80.2724 35.435 79.8584 34.949C79.4264 34.463 78.8864 34.211 78.2024 34.211C77.5184 34.211 76.9604 34.463 76.5644 34.949C76.1504 35.435 75.9524 36.065 75.9524 36.857C75.9524 37.667 76.1504 38.315 76.5644 38.801C76.9604 39.305 77.5184 39.539 78.2024 39.539C78.8864 39.539 79.4264 39.305 79.8584 38.801ZM92.0138 32.735C92.6618 33.131 93.1658 33.671 93.5258 34.391C93.8858 35.111 94.0838 35.957 94.0838 36.893C94.0838 37.847 93.8858 38.675 93.5258 39.377C93.1658 40.097 92.6618 40.637 92.0138 41.033C91.3658 41.429 90.6278 41.609 89.7998 41.609C88.6118 41.609 87.6758 41.195 87.0098 40.331V45.101H84.4718V32.249H86.6858L86.9378 33.527C87.2438 33.113 87.6398 32.771 88.1258 32.519C88.6118 32.267 89.1698 32.141 89.8178 32.141C90.6458 32.141 91.3658 32.339 92.0138 32.735ZM90.8798 38.801C91.2938 38.297 91.5098 37.649 91.5098 36.857C91.5098 36.065 91.2938 35.435 90.8798 34.949C90.4478 34.463 89.9078 34.211 89.2238 34.211C88.5398 34.211 87.9818 34.463 87.5858 34.949C87.1718 35.435 86.9738 36.065 86.9738 36.857C86.9738 37.667 87.1718 38.315 87.5858 38.801C87.9818 39.305 88.5398 39.539 89.2238 39.539C89.9078 39.539 90.4478 39.305 90.8798 38.801ZM97.493 38.423C97.529 38.837 97.727 39.161 98.087 39.413C98.447 39.665 98.897 39.791 99.473 39.791C100.013 39.791 100.427 39.719 100.751 39.539C101.057 39.359 101.219 39.107 101.219 38.783C101.219 38.549 101.147 38.369 101.003 38.243C100.859 38.135 100.643 38.045 100.391 37.991C100.121 37.937 99.689 37.865 99.095 37.793C98.267 37.685 97.601 37.559 97.061 37.379C96.521 37.217 96.089 36.947 95.765 36.587C95.441 36.227 95.279 35.759 95.279 35.147C95.279 34.553 95.441 34.031 95.765 33.563C96.089 33.095 96.557 32.735 97.169 32.483C97.763 32.231 98.447 32.105 99.239 32.105C100.499 32.123 101.507 32.393 102.281 32.915C103.055 33.455 103.469 34.175 103.541 35.111H101.129C101.093 34.769 100.895 34.481 100.571 34.265C100.247 34.049 99.815 33.923 99.311 33.923C98.825 33.923 98.429 34.013 98.141 34.193C97.853 34.373 97.709 34.625 97.709 34.913C97.709 35.129 97.781 35.291 97.943 35.399C98.087 35.507 98.303 35.597 98.555 35.633C98.807 35.687 99.221 35.741 99.815 35.795C101.057 35.939 102.011 36.209 102.677 36.605C103.343 37.001 103.685 37.667 103.685 38.603C103.685 39.215 103.505 39.737 103.145 40.187C102.785 40.655 102.299 40.997 101.669 41.249C101.039 41.501 100.319 41.609 99.491 41.609C98.195 41.609 97.151 41.339 96.359 40.763C95.549 40.187 95.117 39.413 95.081 38.423H97.493ZM105.738 34.391H104.208V32.249H105.738V29.657H108.276V32.249H110.382V34.391H108.276V38.441C108.276 38.765 108.33 38.999 108.474 39.143C108.618 39.287 108.852 39.359 109.176 39.359H110.49V41.501H108.384C106.62 41.501 105.738 40.619 105.738 38.855V34.391ZM113.363 41.033C112.625 40.637 112.049 40.079 111.653 39.359C111.257 38.639 111.059 37.811 111.059 36.875C111.059 35.939 111.257 35.111 111.653 34.391C112.049 33.671 112.625 33.131 113.363 32.735C114.101 32.339 114.965 32.141 115.937 32.141C116.909 32.141 117.755 32.339 118.493 32.735C119.231 33.131 119.807 33.671 120.203 34.391C120.599 35.111 120.815 35.939 120.815 36.875C120.815 37.829 120.599 38.657 120.203 39.377C119.807 40.097 119.231 40.637 118.493 41.033C117.755 41.429 116.909 41.609 115.937 41.609C114.965 41.609 114.101 41.429 113.363 41.033ZM117.611 38.801C118.025 38.315 118.241 37.667 118.241 36.875C118.241 36.083 118.025 35.453 117.611 34.949C117.197 34.463 116.639 34.211 115.937 34.211C115.235 34.211 114.677 34.463 114.263 34.949C113.849 35.453 113.651 36.083 113.651 36.875C113.651 37.667 113.849 38.315 114.263 38.801C114.677 39.305 115.235 39.539 115.937 39.539C116.639 39.539 117.197 39.305 117.611 38.801ZM127.846 32.249V34.553H126.838C126.118 34.553 125.578 34.769 125.254 35.201C124.912 35.633 124.75 36.227 124.75 36.965V41.501H122.212V32.249H124.516L124.75 33.635C125.02 33.185 125.362 32.843 125.776 32.609C126.172 32.375 126.73 32.249 127.414 32.249H127.846ZM128.897 34.391C129.293 33.671 129.833 33.131 130.535 32.735C131.237 32.339 132.047 32.141 132.983 32.141C133.919 32.141 134.729 32.339 135.449 32.699C136.169 33.059 136.727 33.581 137.123 34.247C137.519 34.913 137.735 35.687 137.753 36.587C137.753 36.911 137.717 37.199 137.681 37.451H130.967V37.523C131.021 38.207 131.237 38.729 131.615 39.107C131.975 39.503 132.497 39.683 133.145 39.683C133.649 39.683 134.081 39.575 134.423 39.359C134.765 39.143 134.999 38.801 135.107 38.369H137.609C137.501 38.981 137.267 39.539 136.907 40.025C136.529 40.529 136.043 40.907 135.431 41.195C134.819 41.483 134.117 41.609 133.325 41.609C132.281 41.609 131.399 41.429 130.643 41.033C129.887 40.655 129.311 40.115 128.915 39.395C128.519 38.675 128.321 37.847 128.321 36.893C128.321 35.939 128.501 35.111 128.897 34.391ZM135.215 35.795C135.125 35.237 134.891 34.805 134.513 34.499C134.135 34.193 133.667 34.031 133.091 34.031C132.533 34.031 132.065 34.193 131.687 34.517C131.309 34.841 131.093 35.255 131.021 35.795H135.215Z" fill="#515251"/>
</svg>
