<svg width="439" height="636" viewBox="0 0 439 636" fill="none" xmlns="http://www.w3.org/2000/svg">
<path d="M27.9477 269C27.9477 274.891 32.7233 279.667 38.6144 279.667C44.5054 279.667 49.281 274.891 49.281 269C49.281 263.109 44.5054 258.333 38.6144 258.333C32.7233 258.333 27.9477 263.109 27.9477 269ZM38.6144 58H26.6144V62H38.6144V58ZM0.61438 84V245H4.61438V84H0.61438ZM26.6144 271H38.6144V267H26.6144V271ZM0.61438 245C0.61438 259.359 12.255 271 26.6144 271V267C14.4641 267 4.61438 257.15 4.61438 245H0.61438ZM26.6144 58C12.255 58 0.61438 69.6406 0.61438 84H4.61438C4.61438 71.8497 14.4641 62 26.6144 62V58Z" fill="#D9EBCD"/>
<mask id="mask0_3631_461" style="mask-type:alpha" maskUnits="userSpaceOnUse" x="0" y="58" width="50" height="222">
<path d="M27.9477 269C27.9477 274.891 32.7233 279.667 38.6144 279.667C44.5054 279.667 49.281 274.891 49.281 269C49.281 263.109 44.5054 258.333 38.6144 258.333C32.7233 258.333 27.9477 263.109 27.9477 269ZM38.6144 58H26.6144V62H38.6144V58ZM0.61438 84V245H4.61438V84H0.61438ZM26.6144 271H38.6144V267H26.6144V271ZM0.61438 245C0.61438 259.359 12.255 271 26.6144 271V267C14.4641 267 4.61438 257.15 4.61438 245H0.61438ZM26.6144 58C12.255 58 0.61438 69.6406 0.61438 84H4.61438C4.61438 71.8497 14.4641 62 26.6144 62V58Z" fill="#D9EBCD"/>
</mask>
<g mask="url(#mask0_3631_461)">
<rect x="47.6144" y="52" width="5" height="13" fill="#11453B"/>
</g>
<g filter="url(#filter0_d_3631_461)">
<g filter="url(#filter1_d_3631_461)">
<rect x="55.0167" y="28" width="64" height="64" rx="16" fill="#11453B"/>
<path d="M91.0687 48.8V74H85.8847V57.908C85.5607 58.052 85.0927 58.088 84.5167 58.088H80.3047V53.804H84.0847C84.6967 53.804 85.1647 53.588 85.4887 53.084C85.8127 52.58 85.9927 51.968 85.9927 51.248V48.8H91.0687Z" fill="white"/>
</g>
<path d="M56.4767 117.26C57.0367 116.18 57.8167 115.36 58.8567 114.76C59.8967 114.18 61.1167 113.88 62.5167 113.88C63.5967 113.88 64.5767 114.1 65.4567 114.52C66.3167 114.96 67.0167 115.56 67.5567 116.32C68.0767 117.1 68.3967 118 68.5167 119H65.5167C65.3367 118.2 64.9767 117.58 64.4167 117.12C63.8567 116.66 63.1767 116.42 62.3567 116.42C61.2367 116.42 60.3367 116.84 59.6967 117.68C59.0367 118.52 58.7167 119.64 58.7167 121C58.7167 122.36 59.0367 123.48 59.6967 124.32C60.3367 125.16 61.2367 125.58 62.3567 125.58C63.1767 125.58 63.8567 125.36 64.4167 124.9C64.9767 124.44 65.3367 123.8 65.5167 123H68.5167C68.3967 124.02 68.0767 124.92 67.5567 125.68C67.0167 126.46 66.3167 127.06 65.4567 127.48C64.5767 127.92 63.5967 128.12 62.5167 128.12C61.1167 128.12 59.8967 127.84 58.8567 127.24C57.8167 126.66 57.0367 125.84 56.4767 124.76C55.9167 123.68 55.6567 122.44 55.6567 121C55.6567 119.58 55.9167 118.34 56.4767 117.26ZM76.4997 117.72V120.28H75.3797C74.5797 120.28 73.9797 120.52 73.6197 121C73.2397 121.48 73.0597 122.14 73.0597 122.96V128H70.2397V117.72H72.7997L73.0597 119.26C73.3597 118.76 73.7397 118.38 74.1997 118.12C74.6397 117.86 75.2597 117.72 76.0197 117.72H76.4997ZM77.8672 120.1C78.3072 119.3 78.9072 118.7 79.6872 118.26C80.4672 117.82 81.3672 117.6 82.4072 117.6C83.4472 117.6 84.3472 117.82 85.1472 118.22C85.9472 118.62 86.5672 119.2 87.0072 119.94C87.4472 120.68 87.6872 121.54 87.7072 122.54C87.7072 122.9 87.6672 123.22 87.6272 123.5H80.1672V123.58C80.2272 124.34 80.4672 124.92 80.8872 125.34C81.2872 125.78 81.8672 125.98 82.5872 125.98C83.1472 125.98 83.6272 125.86 84.0072 125.62C84.3872 125.38 84.6472 125 84.7672 124.52H87.5472C87.4272 125.2 87.1672 125.82 86.7672 126.36C86.3472 126.92 85.8072 127.34 85.1272 127.66C84.4472 127.98 83.6672 128.12 82.7872 128.12C81.6272 128.12 80.6472 127.92 79.8072 127.48C78.9672 127.06 78.3272 126.46 77.8872 125.66C77.4472 124.86 77.2272 123.94 77.2272 122.88C77.2272 121.82 77.4272 120.9 77.8672 120.1ZM84.8872 121.66C84.7872 121.04 84.5272 120.56 84.1072 120.22C83.6872 119.88 83.1672 119.7 82.5272 119.7C81.9072 119.7 81.3872 119.88 80.9672 120.24C80.5472 120.6 80.3072 121.06 80.2272 121.66H84.8872ZM99.5683 125.62V128H98.1283C96.8283 128 96.1883 127.44 96.2283 126.32C95.8483 126.92 95.3883 127.36 94.8483 127.66C94.2883 127.98 93.6283 128.12 92.8683 128.12C91.7083 128.12 90.7883 127.86 90.0883 127.34C89.3883 126.82 89.0483 126.06 89.0483 125.1C89.0483 124.02 89.4483 123.18 90.2483 122.58C91.0483 121.98 92.2283 121.68 93.7683 121.68H95.8083V121.18C95.8083 120.72 95.6283 120.36 95.2883 120.08C94.9283 119.8 94.4683 119.66 93.8883 119.66C93.3683 119.66 92.9283 119.78 92.6083 120C92.2683 120.24 92.0683 120.54 92.0083 120.92H89.2883C89.3683 119.88 89.8483 119.06 90.6883 118.48C91.5283 117.9 92.6283 117.6 94.0283 117.6C95.4683 117.6 96.5883 117.92 97.3883 118.56C98.1883 119.2 98.5883 120.14 98.5883 121.34V124.96C98.5883 125.22 98.6283 125.4 98.7483 125.48C98.8483 125.58 99.0083 125.62 99.2483 125.62H99.5683ZM95.8083 123.56H93.7483C93.1483 123.56 92.6883 123.68 92.3683 123.92C92.0483 124.16 91.8883 124.48 91.8883 124.9C91.8883 125.26 92.0083 125.56 92.2883 125.76C92.5683 125.98 92.9283 126.08 93.4083 126.08C94.1283 126.08 94.7083 125.88 95.1483 125.46C95.5683 125.04 95.7883 124.48 95.8083 123.76V123.56ZM101.519 120.1H99.8192V117.72H101.519V114.84H104.339V117.72H106.679V120.1H104.339V124.6C104.339 124.96 104.399 125.22 104.559 125.38C104.719 125.54 104.979 125.62 105.339 125.62H106.799V128H104.459C102.499 128 101.519 127.02 101.519 125.06V120.1ZM108.272 120.1C108.712 119.3 109.312 118.7 110.092 118.26C110.872 117.82 111.772 117.6 112.812 117.6C113.852 117.6 114.752 117.82 115.552 118.22C116.352 118.62 116.972 119.2 117.412 119.94C117.852 120.68 118.092 121.54 118.112 122.54C118.112 122.9 118.072 123.22 118.032 123.5H110.572V123.58C110.632 124.34 110.872 124.92 111.292 125.34C111.692 125.78 112.272 125.98 112.992 125.98C113.552 125.98 114.032 125.86 114.412 125.62C114.792 125.38 115.052 125 115.172 124.52H117.952C117.832 125.2 117.572 125.82 117.172 126.36C116.752 126.92 116.212 127.34 115.532 127.66C114.852 127.98 114.072 128.12 113.192 128.12C112.032 128.12 111.052 127.92 110.212 127.48C109.372 127.06 108.732 126.46 108.292 125.66C107.852 124.86 107.632 123.94 107.632 122.88C107.632 121.82 107.832 120.9 108.272 120.1ZM115.292 121.66C115.192 121.04 114.932 120.56 114.512 120.22C114.092 119.88 113.572 119.7 112.932 119.7C112.312 119.7 111.792 119.88 111.372 120.24C110.952 120.6 110.712 121.06 110.632 121.66H115.292ZM127.014 117.72L129.514 125.1L131.954 117.72H134.974L130.414 129.46C130.174 130.1 129.934 130.58 129.734 130.94C129.514 131.3 129.234 131.56 128.914 131.74C128.594 131.92 128.174 132 127.654 132H124.914V129.62H126.474C126.834 129.62 127.094 129.56 127.254 129.44C127.414 129.32 127.554 129.1 127.714 128.74L127.974 128.06L124.014 117.72H127.014ZM137.901 127.48C137.081 127.04 136.441 126.42 136.001 125.62C135.561 124.82 135.341 123.9 135.341 122.86C135.341 121.82 135.561 120.9 136.001 120.1C136.441 119.3 137.081 118.7 137.901 118.26C138.721 117.82 139.681 117.6 140.761 117.6C141.841 117.6 142.781 117.82 143.601 118.26C144.421 118.7 145.061 119.3 145.501 120.1C145.941 120.9 146.181 121.82 146.181 122.86C146.181 123.92 145.941 124.84 145.501 125.64C145.061 126.44 144.421 127.04 143.601 127.48C142.781 127.92 141.841 128.12 140.761 128.12C139.681 128.12 138.721 127.92 137.901 127.48ZM142.621 125C143.081 124.46 143.321 123.74 143.321 122.86C143.321 121.98 143.081 121.28 142.621 120.72C142.161 120.18 141.541 119.9 140.761 119.9C139.981 119.9 139.361 120.18 138.901 120.72C138.441 121.28 138.221 121.98 138.221 122.86C138.221 123.74 138.441 124.46 138.901 125C139.361 125.56 139.981 125.82 140.761 125.82C141.541 125.82 142.161 125.56 142.621 125ZM157.613 117.72V128H155.113L154.853 126.76C154.493 127.2 154.073 127.52 153.593 127.76C153.113 128 152.513 128.12 151.833 128.12C150.633 128.12 149.653 127.76 148.893 127.02C148.133 126.28 147.753 125.04 147.753 123.3V117.72H150.573V122.96C150.573 123.9 150.733 124.6 151.053 125.08C151.373 125.56 151.893 125.78 152.573 125.78C153.273 125.78 153.813 125.52 154.213 125C154.593 124.48 154.793 123.74 154.793 122.78V117.72H157.613ZM166.034 117.72V120.28H164.914C164.114 120.28 163.514 120.52 163.154 121C162.774 121.48 162.594 122.14 162.594 122.96V128H159.774V117.72H162.334L162.594 119.26C162.894 118.76 163.274 118.38 163.734 118.12C164.174 117.86 164.794 117.72 165.554 117.72H166.034ZM173.315 117.72V116.82C173.315 115.92 173.575 115.22 174.095 114.74C174.615 114.26 175.375 114 176.415 114H178.715V116.4H176.975C176.675 116.4 176.455 116.48 176.335 116.6C176.195 116.74 176.135 116.96 176.135 117.24V117.72H178.715V120.1H176.135V128H173.315V120.1H171.615V117.72H173.315ZM186.224 117.72V120.28H185.104C184.304 120.28 183.704 120.52 183.344 121C182.964 121.48 182.784 122.14 182.784 122.96V128H179.964V117.72H182.524L182.784 119.26C183.084 118.76 183.464 118.38 183.924 118.12C184.364 117.86 184.984 117.72 185.744 117.72H186.224ZM187.591 120.1C188.031 119.3 188.631 118.7 189.411 118.26C190.191 117.82 191.091 117.6 192.131 117.6C193.171 117.6 194.071 117.82 194.871 118.22C195.671 118.62 196.291 119.2 196.731 119.94C197.171 120.68 197.411 121.54 197.431 122.54C197.431 122.9 197.391 123.22 197.351 123.5H189.891V123.58C189.951 124.34 190.191 124.92 190.611 125.34C191.011 125.78 191.591 125.98 192.311 125.98C192.871 125.98 193.351 125.86 193.731 125.62C194.111 125.38 194.371 125 194.491 124.52H197.271C197.151 125.2 196.891 125.82 196.491 126.36C196.071 126.92 195.531 127.34 194.851 127.66C194.171 127.98 193.391 128.12 192.511 128.12C191.351 128.12 190.371 127.92 189.531 127.48C188.691 127.06 188.051 126.46 187.611 125.66C187.171 124.86 186.951 123.94 186.951 122.88C186.951 121.82 187.151 120.9 187.591 120.1ZM194.611 121.66C194.511 121.04 194.251 120.56 193.831 120.22C193.411 119.88 192.891 119.7 192.251 119.7C191.631 119.7 191.111 119.88 190.691 120.24C190.271 120.6 190.031 121.06 189.951 121.66H194.611ZM199.413 120.1C199.853 119.3 200.453 118.7 201.233 118.26C202.013 117.82 202.913 117.6 203.953 117.6C204.993 117.6 205.893 117.82 206.693 118.22C207.493 118.62 208.113 119.2 208.553 119.94C208.993 120.68 209.233 121.54 209.253 122.54C209.253 122.9 209.213 123.22 209.173 123.5H201.713V123.58C201.773 124.34 202.013 124.92 202.433 125.34C202.833 125.78 203.413 125.98 204.133 125.98C204.693 125.98 205.173 125.86 205.553 125.62C205.933 125.38 206.193 125 206.313 124.52H209.093C208.973 125.2 208.713 125.82 208.313 126.36C207.893 126.92 207.353 127.34 206.673 127.66C205.993 127.98 205.213 128.12 204.333 128.12C203.173 128.12 202.193 127.92 201.353 127.48C200.513 127.06 199.873 126.46 199.433 125.66C198.993 124.86 198.773 123.94 198.773 122.88C198.773 121.82 198.973 120.9 199.413 120.1ZM206.433 121.66C206.333 121.04 206.073 120.56 205.653 120.22C205.233 119.88 204.713 119.7 204.073 119.7C203.453 119.7 202.933 119.88 202.513 120.24C202.093 120.6 201.853 121.06 201.773 121.66H206.433ZM226.275 125.62V128H224.835C223.535 128 222.895 127.44 222.935 126.32C222.555 126.92 222.095 127.36 221.555 127.66C220.995 127.98 220.335 128.12 219.575 128.12C218.415 128.12 217.495 127.86 216.795 127.34C216.095 126.82 215.755 126.06 215.755 125.1C215.755 124.02 216.155 123.18 216.955 122.58C217.755 121.98 218.935 121.68 220.475 121.68H222.515V121.18C222.515 120.72 222.335 120.36 221.995 120.08C221.635 119.8 221.175 119.66 220.595 119.66C220.075 119.66 219.635 119.78 219.315 120C218.975 120.24 218.775 120.54 218.715 120.92H215.995C216.075 119.88 216.555 119.06 217.395 118.48C218.235 117.9 219.335 117.6 220.735 117.6C222.175 117.6 223.295 117.92 224.095 118.56C224.895 119.2 225.295 120.14 225.295 121.34V124.96C225.295 125.22 225.335 125.4 225.455 125.48C225.555 125.58 225.715 125.62 225.955 125.62H226.275ZM222.515 123.56H220.455C219.855 123.56 219.395 123.68 219.075 123.92C218.755 124.16 218.595 124.48 218.595 124.9C218.595 125.26 218.715 125.56 218.995 125.76C219.275 125.98 219.635 126.08 220.115 126.08C220.835 126.08 221.415 125.88 221.855 125.46C222.275 125.04 222.495 124.48 222.515 123.76V123.56ZM235.845 127.06C234.965 127.78 233.845 128.12 232.465 128.12C231.385 128.12 230.465 127.92 229.665 127.48C228.865 127.04 228.245 126.42 227.805 125.62C227.365 124.82 227.165 123.9 227.165 122.86C227.165 121.82 227.365 120.9 227.805 120.1C228.245 119.3 228.865 118.7 229.665 118.26C230.465 117.82 231.405 117.6 232.485 117.6C233.845 117.6 234.965 117.96 235.845 118.66C236.705 119.36 237.245 120.32 237.445 121.56H234.525C234.405 121.06 234.165 120.66 233.805 120.36C233.445 120.06 232.985 119.9 232.465 119.9C231.725 119.9 231.145 120.18 230.705 120.72C230.265 121.28 230.045 121.98 230.045 122.86C230.045 123.74 230.265 124.46 230.705 125C231.145 125.56 231.725 125.82 232.465 125.82C233.005 125.82 233.465 125.68 233.825 125.36C234.185 125.06 234.425 124.64 234.545 124.1H237.445C237.245 125.36 236.725 126.34 235.845 127.06ZM247.315 127.06C246.435 127.78 245.315 128.12 243.935 128.12C242.855 128.12 241.935 127.92 241.135 127.48C240.335 127.04 239.715 126.42 239.275 125.62C238.835 124.82 238.635 123.9 238.635 122.86C238.635 121.82 238.835 120.9 239.275 120.1C239.715 119.3 240.335 118.7 241.135 118.26C241.935 117.82 242.875 117.6 243.955 117.6C245.315 117.6 246.435 117.96 247.315 118.66C248.175 119.36 248.715 120.32 248.915 121.56H245.995C245.875 121.06 245.635 120.66 245.275 120.36C244.915 120.06 244.455 119.9 243.935 119.9C243.195 119.9 242.615 120.18 242.175 120.72C241.735 121.28 241.515 121.98 241.515 122.86C241.515 123.74 241.735 124.46 242.175 125C242.615 125.56 243.195 125.82 243.935 125.82C244.475 125.82 244.935 125.68 245.295 125.36C245.655 125.06 245.895 124.64 246.015 124.1H248.915C248.715 125.36 248.195 126.34 247.315 127.06ZM252.665 127.48C251.845 127.04 251.205 126.42 250.765 125.62C250.325 124.82 250.105 123.9 250.105 122.86C250.105 121.82 250.325 120.9 250.765 120.1C251.205 119.3 251.845 118.7 252.665 118.26C253.485 117.82 254.445 117.6 255.525 117.6C256.605 117.6 257.545 117.82 258.365 118.26C259.185 118.7 259.825 119.3 260.265 120.1C260.705 120.9 260.945 121.82 260.945 122.86C260.945 123.92 260.705 124.84 260.265 125.64C259.825 126.44 259.185 127.04 258.365 127.48C257.545 127.92 256.605 128.12 255.525 128.12C254.445 128.12 253.485 127.92 252.665 127.48ZM257.385 125C257.845 124.46 258.085 123.74 258.085 122.86C258.085 121.98 257.845 121.28 257.385 120.72C256.925 120.18 256.305 119.9 255.525 119.9C254.745 119.9 254.125 120.18 253.665 120.72C253.205 121.28 252.985 121.98 252.985 122.86C252.985 123.74 253.205 124.46 253.665 125C254.125 125.56 254.745 125.82 255.525 125.82C256.305 125.82 256.925 125.56 257.385 125ZM272.377 117.72V128H269.877L269.617 126.76C269.257 127.2 268.837 127.52 268.357 127.76C267.877 128 267.277 128.12 266.597 128.12C265.397 128.12 264.417 127.76 263.657 127.02C262.897 126.28 262.517 125.04 262.517 123.3V117.72H265.337V122.96C265.337 123.9 265.497 124.6 265.817 125.08C266.137 125.56 266.657 125.78 267.337 125.78C268.037 125.78 268.577 125.52 268.977 125C269.357 124.48 269.557 123.74 269.557 122.78V117.72H272.377ZM283.397 118.72C284.157 119.48 284.557 120.7 284.557 122.42V128H281.737V122.58C281.737 120.82 281.037 119.92 279.657 119.92C278.917 119.92 278.357 120.18 277.957 120.66C277.557 121.16 277.357 121.86 277.357 122.74V128H274.537V117.72H276.997L277.257 119C277.617 118.56 278.037 118.22 278.557 117.98C279.057 117.74 279.677 117.6 280.437 117.6C281.637 117.6 282.617 117.98 283.397 118.72ZM287.194 120.1H285.494V117.72H287.194V114.84H290.014V117.72H292.354V120.1H290.014V124.6C290.014 124.96 290.074 125.22 290.234 125.38C290.394 125.54 290.654 125.62 291.014 125.62H292.474V128H290.134C288.174 128 287.194 127.02 287.194 125.06V120.1Z" fill="#515251"/>
<path d="M60.9207 166.096C57.7047 166.096 55.6887 163.824 55.6887 160.4C55.6887 157.008 57.7847 154.704 61.0327 154.704C63.5127 154.704 65.3207 156.144 65.7367 158.464H64.2647C63.8327 156.912 62.6487 155.984 60.9687 155.984C58.6167 155.984 57.1127 157.808 57.1127 160.4C57.1127 162.976 58.5527 164.816 60.9047 164.816C62.6327 164.816 63.8327 163.904 64.2487 162.336H65.7207C65.3047 164.656 63.4487 166.096 60.9207 166.096ZM67.2096 166V154.8H68.5216V166H67.2096ZM70.991 156.464C70.511 156.464 70.143 156.112 70.143 155.616C70.143 155.12 70.511 154.768 70.991 154.768C71.471 154.768 71.839 155.12 71.839 155.616C71.839 156.112 71.471 156.464 70.991 156.464ZM70.319 166V157.84H71.631V166H70.319ZM77.0923 166.096C74.7083 166.096 73.1403 164.48 73.1403 161.936C73.1403 159.44 74.7563 157.744 77.1243 157.744C79.1243 157.744 80.3883 158.864 80.7243 160.656H79.3483C79.1083 159.568 78.3083 158.912 77.1083 158.912C75.5403 158.912 74.4843 160.16 74.4843 161.936C74.4843 163.712 75.5403 164.928 77.1083 164.928C78.2763 164.928 79.0763 164.256 79.3323 163.216H80.7243C80.4043 164.976 79.0763 166.096 77.0923 166.096ZM82.1627 166V154.8H83.4747V162.176L87.5707 157.84H89.1867L86.0027 161.216L89.4107 166H87.8267L85.1227 162.16L83.4747 163.856V166H82.1627ZM98.5221 157.744C100.346 157.744 101.834 158.752 101.834 161.456V166H100.522V161.536C100.522 159.84 99.7061 158.944 98.2981 158.944C96.7781 158.944 95.8341 160.08 95.8341 161.92V166H94.5221V154.8H95.8341V159.184C96.3141 158.416 97.1461 157.744 98.5221 157.744ZM107.173 166.096C104.725 166.096 103.125 164.416 103.125 161.92C103.125 159.44 104.693 157.744 106.997 157.744C109.301 157.744 110.805 159.2 110.869 161.616C110.869 161.792 110.853 161.984 110.837 162.176H104.501V162.288C104.549 163.84 105.525 164.928 107.077 164.928C108.229 164.928 109.125 164.32 109.397 163.264H110.725C110.405 164.896 109.061 166.096 107.173 166.096ZM104.581 161.088H109.461C109.333 159.68 108.373 158.896 107.013 158.896C105.813 158.896 104.709 159.76 104.581 161.088ZM116.142 157.84H116.51V159.12H115.854C114.142 159.12 113.678 160.544 113.678 161.84V166H112.366V157.84H113.502L113.678 159.072C114.062 158.448 114.686 157.84 116.142 157.84ZM120.938 166.096C118.49 166.096 116.89 164.416 116.89 161.92C116.89 159.44 118.458 157.744 120.762 157.744C123.066 157.744 124.57 159.2 124.634 161.616C124.634 161.792 124.618 161.984 124.602 162.176H118.266V162.288C118.314 163.84 119.29 164.928 120.842 164.928C121.994 164.928 122.89 164.32 123.162 163.264H124.49C124.17 164.896 122.826 166.096 120.938 166.096ZM118.346 161.088H123.226C123.098 159.68 122.138 158.896 120.778 158.896C119.578 158.896 118.474 159.76 118.346 161.088ZM130.927 163.872V159.04H129.455V157.84H130.927V155.552H132.239V157.84H134.351V159.04H132.239V163.856C132.239 164.544 132.479 164.8 133.183 164.8H134.479V166H133.055C131.487 166 130.927 165.312 130.927 163.872ZM139.173 166.096C136.789 166.096 135.125 164.4 135.125 161.92C135.125 159.44 136.789 157.744 139.173 157.744C141.557 157.744 143.221 159.44 143.221 161.92C143.221 164.4 141.557 166.096 139.173 166.096ZM139.173 164.928C140.789 164.928 141.877 163.664 141.877 161.92C141.877 160.176 140.789 158.912 139.173 158.912C137.557 158.912 136.469 160.176 136.469 161.92C136.469 163.664 137.557 164.928 139.173 164.928ZM148.577 163.312H149.921C149.969 164.272 150.817 164.976 152.177 164.976C153.329 164.976 154.145 164.48 154.145 163.728C154.145 162.704 153.249 162.624 152.033 162.48C150.209 162.256 148.753 161.888 148.753 160.192C148.753 158.704 150.113 157.728 151.953 157.744C153.809 157.76 155.153 158.624 155.281 160.32H153.937C153.841 159.488 153.073 158.864 151.953 158.864C150.817 158.864 150.049 159.344 150.049 160.096C150.049 160.992 150.913 161.104 152.097 161.248C153.953 161.472 155.441 161.824 155.441 163.632C155.441 165.152 153.985 166.096 152.177 166.096C150.065 166.096 148.609 165.104 148.577 163.312ZM160.657 166.096C158.209 166.096 156.609 164.416 156.609 161.92C156.609 159.44 158.177 157.744 160.481 157.744C162.785 157.744 164.289 159.2 164.353 161.616C164.353 161.792 164.337 161.984 164.321 162.176H157.985V162.288C158.033 163.84 159.009 164.928 160.561 164.928C161.713 164.928 162.609 164.32 162.881 163.264H164.209C163.889 164.896 162.545 166.096 160.657 166.096ZM158.065 161.088H162.945C162.817 159.68 161.857 158.896 160.497 158.896C159.297 158.896 158.193 159.76 158.065 161.088ZM166.364 163.872V159.04H164.892V157.84H166.364V155.552H167.676V157.84H169.788V159.04H167.676V163.856C167.676 164.544 167.916 164.8 168.62 164.8H169.916V166H168.492C166.924 166 166.364 165.312 166.364 163.872ZM180.953 161.92V157.84H182.265V166H181.129L180.953 164.912C180.473 165.52 179.689 166.096 178.345 166.096C176.553 166.096 175.129 165.088 175.129 162.384V157.84H176.441V162.304C176.441 164 177.209 164.896 178.569 164.896C180.057 164.896 180.953 163.76 180.953 161.92ZM188.165 157.744C190.421 157.744 192.085 159.264 192.085 161.92C192.085 164.416 190.421 166.096 188.165 166.096C186.789 166.096 185.861 165.536 185.365 164.752V169.2H184.053V157.84H185.189L185.365 159.152C185.909 158.4 186.789 157.744 188.165 157.744ZM188.037 164.928C189.653 164.928 190.741 163.696 190.741 161.92C190.741 160.144 189.653 158.912 188.037 158.912C186.437 158.912 185.349 160.144 185.349 161.888C185.349 163.68 186.437 164.928 188.037 164.928ZM200.14 166.048L196.956 157.84H198.348L200.86 164.352L203.292 157.84H204.684L200.924 167.376C200.412 168.688 200.108 169.2 198.956 169.2H197.388V168H198.556C199.308 168 199.436 167.808 199.74 167.04L200.14 166.048ZM209.063 166.096C206.679 166.096 205.015 164.4 205.015 161.92C205.015 159.44 206.679 157.744 209.063 157.744C211.447 157.744 213.111 159.44 213.111 161.92C213.111 164.4 211.447 166.096 209.063 166.096ZM209.063 164.928C210.679 164.928 211.767 163.664 211.767 161.92C211.767 160.176 210.679 158.912 209.063 158.912C207.447 158.912 206.359 160.176 206.359 161.92C206.359 163.664 207.447 164.928 209.063 164.928ZM220.328 161.92V157.84H221.64V166H220.504L220.328 164.912C219.848 165.52 219.064 166.096 217.72 166.096C215.928 166.096 214.504 165.088 214.504 162.384V157.84H215.816V162.304C215.816 164 216.584 164.896 217.944 164.896C219.432 164.896 220.328 163.76 220.328 161.92ZM227.204 157.84H227.572V159.12H226.916C225.204 159.12 224.74 160.544 224.74 161.84V166H223.428V157.84H224.564L224.74 159.072C225.124 158.448 225.748 157.84 227.204 157.84ZM233.089 166V154.8H240.225V156.08H234.481V159.664H239.265V160.944H234.481V164.72H240.433V166H233.089ZM248.785 164.8H249.201V166H248.481C247.393 166 247.025 165.536 247.009 164.736C246.497 165.472 245.681 166.096 244.273 166.096C242.481 166.096 241.265 165.2 241.265 163.712C241.265 162.08 242.401 161.168 244.545 161.168H246.945V160.608C246.945 159.552 246.193 158.912 244.913 158.912C243.761 158.912 242.993 159.456 242.833 160.288H241.521C241.713 158.688 243.009 157.744 244.977 157.744C247.057 157.744 248.257 158.784 248.257 160.688V164.256C248.257 164.688 248.417 164.8 248.785 164.8ZM246.945 162.672V162.272H244.417C243.249 162.272 242.593 162.704 242.593 163.632C242.593 164.432 243.281 164.976 244.369 164.976C246.001 164.976 246.945 164.032 246.945 162.672ZM249.952 159.04V157.84H256.448V158.832L251.488 164.8H256.656V166H249.744V165.008L254.688 159.04H249.952ZM258.569 156.464C258.089 156.464 257.721 156.112 257.721 155.616C257.721 155.12 258.089 154.768 258.569 154.768C259.049 154.768 259.417 155.12 259.417 155.616C259.417 156.112 259.049 156.464 258.569 156.464ZM257.897 166V157.84H259.209V166H257.897ZM265.118 157.744C267.374 157.744 269.038 159.264 269.038 161.92C269.038 164.416 267.374 166.096 265.118 166.096C263.742 166.096 262.814 165.536 262.318 164.752V169.2H261.006V157.84H262.142L262.318 159.152C262.862 158.4 263.742 157.744 265.118 157.744ZM264.99 164.928C266.606 164.928 267.694 163.696 267.694 161.92C267.694 160.144 266.606 158.912 264.99 158.912C263.39 158.912 262.302 160.144 262.302 161.888C262.302 163.68 263.39 164.928 264.99 164.928ZM277.754 164.8H278.17V166H277.45C276.362 166 275.994 165.536 275.978 164.736C275.466 165.472 274.65 166.096 273.242 166.096C271.45 166.096 270.234 165.2 270.234 163.712C270.234 162.08 271.37 161.168 273.514 161.168H275.914V160.608C275.914 159.552 275.162 158.912 273.882 158.912C272.73 158.912 271.962 159.456 271.802 160.288H270.49C270.682 158.688 271.978 157.744 273.946 157.744C276.026 157.744 277.226 158.784 277.226 160.688V164.256C277.226 164.688 277.386 164.8 277.754 164.8ZM275.914 162.672V162.272H273.386C272.218 162.272 271.562 162.704 271.562 163.632C271.562 164.432 272.25 164.976 273.338 164.976C274.97 164.976 275.914 164.032 275.914 162.672ZM281.249 166.048L278.065 157.84H279.457L281.969 164.352L284.401 157.84H285.793L282.033 167.376C281.521 168.688 281.217 169.2 280.065 169.2H278.497V168H279.665C280.417 168 280.545 167.808 280.849 167.04L281.249 166.048ZM298.176 164.8H298.592V166H297.872C296.784 166 296.416 165.536 296.4 164.736C295.888 165.472 295.072 166.096 293.664 166.096C291.872 166.096 290.656 165.2 290.656 163.712C290.656 162.08 291.792 161.168 293.936 161.168H296.336V160.608C296.336 159.552 295.584 158.912 294.304 158.912C293.152 158.912 292.384 159.456 292.224 160.288H290.912C291.104 158.688 292.4 157.744 294.368 157.744C296.448 157.744 297.648 158.784 297.648 160.688V164.256C297.648 164.688 297.808 164.8 298.176 164.8ZM296.336 162.672V162.272H293.808C292.64 162.272 291.984 162.704 291.984 163.632C291.984 164.432 292.672 164.976 293.76 164.976C295.392 164.976 296.336 164.032 296.336 162.672ZM303.17 166.096C300.786 166.096 299.218 164.48 299.218 161.936C299.218 159.44 300.834 157.744 303.202 157.744C305.202 157.744 306.466 158.864 306.802 160.656H305.426C305.186 159.568 304.386 158.912 303.186 158.912C301.618 158.912 300.562 160.16 300.562 161.936C300.562 163.712 301.618 164.928 303.186 164.928C304.354 164.928 305.154 164.256 305.41 163.216H306.802C306.482 164.976 305.154 166.096 303.17 166.096ZM311.905 166.096C309.521 166.096 307.953 164.48 307.953 161.936C307.953 159.44 309.569 157.744 311.937 157.744C313.937 157.744 315.201 158.864 315.537 160.656H314.161C313.921 159.568 313.121 158.912 311.921 158.912C310.353 158.912 309.297 160.16 309.297 161.936C309.297 163.712 310.353 164.928 311.921 164.928C313.089 164.928 313.889 164.256 314.145 163.216H315.537C315.217 164.976 313.889 166.096 311.905 166.096ZM320.735 166.096C318.351 166.096 316.687 164.4 316.687 161.92C316.687 159.44 318.351 157.744 320.735 157.744C323.119 157.744 324.783 159.44 324.783 161.92C324.783 164.4 323.119 166.096 320.735 166.096ZM320.735 164.928C322.351 164.928 323.439 163.664 323.439 161.92C323.439 160.176 322.351 158.912 320.735 158.912C319.119 158.912 318.031 160.176 318.031 161.92C318.031 163.664 319.119 164.928 320.735 164.928ZM332 161.92V157.84H333.312V166H332.176L332 164.912C331.52 165.52 330.736 166.096 329.392 166.096C327.6 166.096 326.176 165.088 326.176 162.384V157.84H327.488V162.304C327.488 164 328.256 164.896 329.616 164.896C331.104 164.896 332 163.76 332 161.92ZM339.1 157.744C340.94 157.744 342.396 158.752 342.396 161.456V166H341.084V161.536C341.084 159.84 340.3 158.944 338.876 158.944C337.34 158.944 336.412 160.08 336.412 161.92V166H335.1V157.84H336.236L336.412 158.944C336.892 158.32 337.724 157.744 339.1 157.744ZM344.677 163.872V159.04H343.205V157.84H344.677V155.552H345.989V157.84H348.101V159.04H345.989V163.856C345.989 164.544 346.229 164.8 346.933 164.8H348.229V166H346.805C345.237 166 344.677 165.312 344.677 163.872ZM349.268 165.2C349.268 164.656 349.652 164.304 350.18 164.304C350.708 164.304 351.092 164.656 351.092 165.2C351.092 165.744 350.708 166.096 350.18 166.096C349.652 166.096 349.268 165.744 349.268 165.2Z" fill="#515251"/>
</g>
<rect x="55.0167" y="236" width="64" height="64" rx="16" fill="#F2F1F1"/>
<path d="M87.1727 270.084C88.3967 269.112 89.2967 268.212 89.8727 267.384C90.4487 266.592 90.7367 265.692 90.7367 264.72C90.7367 263.496 90.3407 262.56 89.6207 261.912C88.9007 261.264 87.9287 260.904 86.7047 260.904C85.5167 260.904 84.5447 261.3 83.8247 262.092C83.1047 262.884 82.7447 263.964 82.7447 265.296V265.692H77.5247V265.008C77.5247 263.424 77.8847 261.984 78.6407 260.688C79.3967 259.392 80.4767 258.384 81.8807 257.664C83.2487 256.944 84.8687 256.548 86.7047 256.548C89.6567 256.548 91.9247 257.268 93.5447 258.708C95.1647 260.148 95.9927 262.092 95.9927 264.504C95.9927 266.232 95.5607 267.744 94.6967 269.004C93.8327 270.264 92.5367 271.596 90.7727 273.036L85.1207 277.644H96.1007V282H77.6327V278.004L87.1727 270.084Z" fill="#11453B"/>
<path d="M55.0967 336L60.2167 322H63.8167L68.8967 336H65.6767L64.5967 332.94H59.2767L58.1967 336H55.0967ZM60.0767 330.52H63.7767L61.9167 325.2L60.0767 330.52ZM79.9533 322V336H77.4933L77.2133 334.58C76.4133 335.62 75.3533 336.12 74.0133 336.12C73.0933 336.12 72.2933 335.92 71.5733 335.48C70.8533 335.04 70.2733 334.42 69.8733 333.62C69.4733 332.82 69.2733 331.9 69.2733 330.84C69.2733 329.8 69.4733 328.9 69.8733 328.1C70.2733 327.3 70.8533 326.7 71.5733 326.26C72.2933 325.82 73.1133 325.6 74.0333 325.6C75.3533 325.6 76.3933 326.08 77.1333 327V322H79.9533ZM76.4933 333.02C76.9333 332.48 77.1733 331.76 77.1733 330.88C77.1733 330 76.9333 329.28 76.4933 328.72C76.0333 328.18 75.4333 327.9 74.6733 327.9C73.9133 327.9 73.2933 328.18 72.8333 328.72C72.3733 329.28 72.1533 329.98 72.1533 330.86C72.1533 331.74 72.3733 332.46 72.8333 333C73.2933 333.56 73.9133 333.82 74.6733 333.82C75.4333 333.82 76.0333 333.56 76.4933 333.02ZM92.3994 322V336H89.9394L89.6594 334.58C88.8594 335.62 87.7994 336.12 86.4594 336.12C85.5394 336.12 84.7394 335.92 84.0194 335.48C83.2994 335.04 82.7194 334.42 82.3194 333.62C81.9194 332.82 81.7194 331.9 81.7194 330.84C81.7194 329.8 81.9194 328.9 82.3194 328.1C82.7194 327.3 83.2994 326.7 84.0194 326.26C84.7394 325.82 85.5594 325.6 86.4794 325.6C87.7994 325.6 88.8394 326.08 89.5794 327V322H92.3994ZM88.9394 333.02C89.3794 332.48 89.6194 331.76 89.6194 330.88C89.6194 330 89.3794 329.28 88.9394 328.72C88.4794 328.18 87.8794 327.9 87.1194 327.9C86.3594 327.9 85.7394 328.18 85.2794 328.72C84.8194 329.28 84.5994 329.98 84.5994 330.86C84.5994 331.74 84.8194 332.46 85.2794 333C85.7394 333.56 86.3594 333.82 87.1194 333.82C87.8794 333.82 88.4794 333.56 88.9394 333.02ZM99.9464 322H109.346V324.58H102.946V327.72H108.146V330.18H102.946V333.42H109.566V336H99.9464V322ZM126.412 326.7C127.092 327.44 127.452 328.66 127.452 330.36V336.02H124.632V330.26C124.632 328.7 124.032 327.92 122.852 327.92C122.232 327.92 121.732 328.14 121.372 328.58C120.992 329.02 120.812 329.62 120.812 330.38V336.02H117.992V330.26C117.992 328.7 117.392 327.92 116.192 327.92C115.572 327.92 115.072 328.16 114.712 328.6C114.352 329.04 114.172 329.64 114.172 330.4V336.02H111.352V325.72H113.812L114.072 327C114.412 326.56 114.832 326.22 115.312 325.98C115.792 325.74 116.392 325.62 117.112 325.6C118.572 325.6 119.592 326.18 120.172 327.34C120.532 326.78 121.032 326.36 121.632 326.06C122.232 325.76 122.932 325.6 123.712 325.6C124.812 325.6 125.712 325.98 126.412 326.7ZM137.803 326.26C138.523 326.7 139.083 327.3 139.483 328.1C139.883 328.9 140.103 329.84 140.103 330.88C140.103 331.94 139.883 332.86 139.483 333.64C139.083 334.44 138.523 335.04 137.803 335.48C137.083 335.92 136.263 336.12 135.343 336.12C134.023 336.12 132.983 335.66 132.243 334.7V340H129.423V325.72H131.883L132.163 327.14C132.503 326.68 132.943 326.3 133.483 326.02C134.023 325.74 134.643 325.6 135.363 325.6C136.283 325.6 137.083 325.82 137.803 326.26ZM136.543 333C137.003 332.44 137.243 331.72 137.243 330.84C137.243 329.96 137.003 329.26 136.543 328.72C136.063 328.18 135.463 327.9 134.703 327.9C133.943 327.9 133.323 328.18 132.883 328.72C132.423 329.26 132.203 329.96 132.203 330.84C132.203 331.74 132.423 332.46 132.883 333C133.323 333.56 133.943 333.82 134.703 333.82C135.463 333.82 136.063 333.56 136.543 333ZM141.869 322H144.689V336H141.869V322ZM149.015 335.48C148.195 335.04 147.555 334.42 147.115 333.62C146.675 332.82 146.455 331.9 146.455 330.86C146.455 329.82 146.675 328.9 147.115 328.1C147.555 327.3 148.195 326.7 149.015 326.26C149.835 325.82 150.795 325.6 151.875 325.6C152.955 325.6 153.895 325.82 154.715 326.26C155.535 326.7 156.175 327.3 156.615 328.1C157.055 328.9 157.295 329.82 157.295 330.86C157.295 331.92 157.055 332.84 156.615 333.64C156.175 334.44 155.535 335.04 154.715 335.48C153.895 335.92 152.955 336.12 151.875 336.12C150.795 336.12 149.835 335.92 149.015 335.48ZM153.735 333C154.195 332.46 154.435 331.74 154.435 330.86C154.435 329.98 154.195 329.28 153.735 328.72C153.275 328.18 152.655 327.9 151.875 327.9C151.095 327.9 150.475 328.18 150.015 328.72C149.555 329.28 149.335 329.98 149.335 330.86C149.335 331.74 149.555 332.46 150.015 333C150.475 333.56 151.095 333.82 151.875 333.82C152.655 333.82 153.275 333.56 153.735 333ZM160.656 325.72L163.156 333.1L165.596 325.72H168.616L164.056 337.46C163.816 338.1 163.576 338.58 163.376 338.94C163.156 339.3 162.876 339.56 162.556 339.74C162.236 339.92 161.816 340 161.296 340H158.556V337.62H160.116C160.476 337.62 160.736 337.56 160.896 337.44C161.056 337.32 161.196 337.1 161.356 336.74L161.616 336.06L157.656 325.72H160.656ZM169.623 328.1C170.063 327.3 170.663 326.7 171.443 326.26C172.223 325.82 173.123 325.6 174.163 325.6C175.203 325.6 176.103 325.82 176.903 326.22C177.703 326.62 178.323 327.2 178.763 327.94C179.203 328.68 179.443 329.54 179.463 330.54C179.463 330.9 179.423 331.22 179.383 331.5H171.923V331.58C171.983 332.34 172.223 332.92 172.643 333.34C173.043 333.78 173.623 333.98 174.343 333.98C174.903 333.98 175.383 333.86 175.763 333.62C176.143 333.38 176.403 333 176.523 332.52H179.303C179.183 333.2 178.923 333.82 178.523 334.36C178.103 334.92 177.563 335.34 176.883 335.66C176.203 335.98 175.423 336.12 174.543 336.12C173.383 336.12 172.403 335.92 171.563 335.48C170.723 335.06 170.083 334.46 169.643 333.66C169.203 332.86 168.983 331.94 168.983 330.88C168.983 329.82 169.183 328.9 169.623 328.1ZM176.643 329.66C176.543 329.04 176.283 328.56 175.863 328.22C175.443 327.88 174.923 327.7 174.283 327.7C173.663 327.7 173.143 327.88 172.723 328.24C172.303 328.6 172.063 329.06 171.983 329.66H176.643ZM181.445 328.1C181.885 327.3 182.485 326.7 183.265 326.26C184.045 325.82 184.945 325.6 185.985 325.6C187.025 325.6 187.925 325.82 188.725 326.22C189.525 326.62 190.145 327.2 190.585 327.94C191.025 328.68 191.265 329.54 191.285 330.54C191.285 330.9 191.245 331.22 191.205 331.5H183.745V331.58C183.805 332.34 184.045 332.92 184.465 333.34C184.865 333.78 185.445 333.98 186.165 333.98C186.725 333.98 187.205 333.86 187.585 333.62C187.965 333.38 188.225 333 188.345 332.52H191.125C191.005 333.2 190.745 333.82 190.345 334.36C189.925 334.92 189.385 335.34 188.705 335.66C188.025 335.98 187.245 336.12 186.365 336.12C185.205 336.12 184.225 335.92 183.385 335.48C182.545 335.06 181.905 334.46 181.465 333.66C181.025 332.86 180.805 331.94 180.805 330.88C180.805 329.82 181.005 328.9 181.445 328.1ZM188.465 329.66C188.365 329.04 188.105 328.56 187.685 328.22C187.265 327.88 186.745 327.7 186.105 327.7C185.485 327.7 184.965 327.88 184.545 328.24C184.125 328.6 183.885 329.06 183.805 329.66H188.465ZM198.407 322H203.267C204.667 322 205.887 322.3 206.967 322.9C208.047 323.5 208.867 324.32 209.447 325.38C210.027 326.44 210.327 327.64 210.327 329C210.327 330.36 210.027 331.58 209.447 332.64C208.867 333.7 208.047 334.52 206.967 335.12C205.887 335.72 204.667 336 203.267 336H198.407V322ZM203.267 333.5C204.527 333.5 205.507 333.1 206.207 332.28C206.907 331.46 207.267 330.36 207.267 329C207.267 327.64 206.907 326.56 206.207 325.74C205.507 324.92 204.527 324.5 203.267 324.5H201.407V333.5H203.267ZM222.276 333.62V336H220.836C219.536 336 218.896 335.44 218.936 334.32C218.556 334.92 218.096 335.36 217.556 335.66C216.996 335.98 216.336 336.12 215.576 336.12C214.416 336.12 213.496 335.86 212.796 335.34C212.096 334.82 211.756 334.06 211.756 333.1C211.756 332.02 212.156 331.18 212.956 330.58C213.756 329.98 214.936 329.68 216.476 329.68H218.516V329.18C218.516 328.72 218.336 328.36 217.996 328.08C217.636 327.8 217.176 327.66 216.596 327.66C216.076 327.66 215.636 327.78 215.316 328C214.976 328.24 214.776 328.54 214.716 328.92H211.996C212.076 327.88 212.556 327.06 213.396 326.48C214.236 325.9 215.336 325.6 216.736 325.6C218.176 325.6 219.296 325.92 220.096 326.56C220.896 327.2 221.296 328.14 221.296 329.34V332.96C221.296 333.22 221.336 333.4 221.456 333.48C221.556 333.58 221.716 333.62 221.956 333.62H222.276ZM218.516 331.56H216.456C215.856 331.56 215.396 331.68 215.076 331.92C214.756 332.16 214.596 332.48 214.596 332.9C214.596 333.26 214.716 333.56 214.996 333.76C215.276 333.98 215.636 334.08 216.116 334.08C216.836 334.08 217.416 333.88 217.856 333.46C218.276 333.04 218.496 332.48 218.516 331.76V331.56ZM224.227 328.1H222.527V325.72H224.227V322.84H227.047V325.72H229.387V328.1H227.047V332.6C227.047 332.96 227.107 333.22 227.267 333.38C227.427 333.54 227.687 333.62 228.047 333.62H229.507V336H227.167C225.207 336 224.227 335.02 224.227 333.06V328.1ZM240.957 333.62V336H239.517C238.217 336 237.577 335.44 237.617 334.32C237.237 334.92 236.777 335.36 236.237 335.66C235.677 335.98 235.017 336.12 234.257 336.12C233.097 336.12 232.177 335.86 231.477 335.34C230.777 334.82 230.437 334.06 230.437 333.1C230.437 332.02 230.837 331.18 231.637 330.58C232.437 329.98 233.617 329.68 235.157 329.68H237.197V329.18C237.197 328.72 237.017 328.36 236.677 328.08C236.317 327.8 235.857 327.66 235.277 327.66C234.757 327.66 234.317 327.78 233.997 328C233.657 328.24 233.457 328.54 233.397 328.92H230.677C230.757 327.88 231.237 327.06 232.077 326.48C232.917 325.9 234.017 325.6 235.417 325.6C236.857 325.6 237.977 325.92 238.777 326.56C239.577 327.2 239.977 328.14 239.977 329.34V332.96C239.977 333.22 240.017 333.4 240.137 333.48C240.237 333.58 240.397 333.62 240.637 333.62H240.957ZM237.197 331.56H235.137C234.537 331.56 234.077 331.68 233.757 331.92C233.437 332.16 233.277 332.48 233.277 332.9C233.277 333.26 233.397 333.56 233.677 333.76C233.957 333.98 234.317 334.08 234.797 334.08C235.517 334.08 236.097 333.88 236.537 333.46C236.957 333.04 237.177 332.48 237.197 331.76V331.56Z" fill="#515251"/>
<path d="M59.3847 369.856L55.1607 362.8H56.7927L60.0887 368.352L63.4327 362.8H65.0007L60.7767 369.856V374H59.3847V369.856ZM68.4071 374.096C66.0231 374.096 64.3591 372.4 64.3591 369.92C64.3591 367.44 66.0231 365.744 68.4071 365.744C70.7911 365.744 72.4551 367.44 72.4551 369.92C72.4551 372.4 70.7911 374.096 68.4071 374.096ZM68.4071 372.928C70.0231 372.928 71.1111 371.664 71.1111 369.92C71.1111 368.176 70.0231 366.912 68.4071 366.912C66.7911 366.912 65.7031 368.176 65.7031 369.92C65.7031 371.664 66.7911 372.928 68.4071 372.928ZM79.6716 369.92V365.84H80.9836V374H79.8476L79.6716 372.912C79.1916 373.52 78.4076 374.096 77.0636 374.096C75.2716 374.096 73.8476 373.088 73.8476 370.384V365.84H75.1596V370.304C75.1596 372 75.9276 372.896 77.2876 372.896C78.7756 372.896 79.6716 371.76 79.6716 369.92ZM86.5481 365.84H86.9161V367.12H86.2601C84.5481 367.12 84.0841 368.544 84.0841 369.84V374H82.7721V365.84H83.9081L84.0841 367.072C84.4681 366.448 85.0921 365.84 86.5481 365.84ZM96.0008 374.096C93.5528 374.096 91.9528 372.416 91.9528 369.92C91.9528 367.44 93.5208 365.744 95.8248 365.744C98.1288 365.744 99.6328 367.2 99.6968 369.616C99.6968 369.792 99.6808 369.984 99.6648 370.176H93.3288V370.288C93.3768 371.84 94.3528 372.928 95.9048 372.928C97.0568 372.928 97.9528 372.32 98.2248 371.264H99.5528C99.2328 372.896 97.8888 374.096 96.0008 374.096ZM93.4088 369.088H98.2888C98.1608 367.68 97.2008 366.896 95.8408 366.896C94.6408 366.896 93.5368 367.76 93.4088 369.088ZM110.298 365.744C111.994 365.744 113.386 366.72 113.386 369.296V374H112.074V369.376C112.074 367.776 111.37 366.944 110.138 366.944C108.778 366.944 107.946 367.968 107.946 369.632V374H106.634V369.376C106.634 367.776 105.914 366.944 104.666 366.944C103.322 366.944 102.506 368.064 102.506 369.696V374H101.194V365.84H102.33L102.506 366.96C102.938 366.368 103.626 365.744 104.89 365.744C106.026 365.744 107.002 366.256 107.466 367.296C107.962 366.416 108.842 365.744 110.298 365.744ZM119.181 365.744C121.437 365.744 123.101 367.264 123.101 369.92C123.101 372.416 121.437 374.096 119.181 374.096C117.805 374.096 116.877 373.536 116.381 372.752V377.2H115.069V365.84H116.205L116.381 367.152C116.925 366.4 117.805 365.744 119.181 365.744ZM119.053 372.928C120.669 372.928 121.757 371.696 121.757 369.92C121.757 368.144 120.669 366.912 119.053 366.912C117.453 366.912 116.365 368.144 116.365 369.888C116.365 371.68 117.453 372.928 119.053 372.928ZM124.6 374V362.8H125.912V374H124.6ZM131.47 374.096C129.086 374.096 127.422 372.4 127.422 369.92C127.422 367.44 129.086 365.744 131.47 365.744C133.854 365.744 135.518 367.44 135.518 369.92C135.518 372.4 133.854 374.096 131.47 374.096ZM131.47 372.928C133.086 372.928 134.174 371.664 134.174 369.92C134.174 368.176 133.086 366.912 131.47 366.912C129.854 366.912 128.766 368.176 128.766 369.92C128.766 371.664 129.854 372.928 131.47 372.928ZM139.031 374.048L135.847 365.84H137.239L139.751 372.352L142.183 365.84H143.575L139.815 375.376C139.303 376.688 138.999 377.2 137.847 377.2H136.279V376H137.447C138.199 376 138.327 375.808 138.631 375.04L139.031 374.048ZM147.954 374.096C145.506 374.096 143.906 372.416 143.906 369.92C143.906 367.44 145.474 365.744 147.778 365.744C150.082 365.744 151.586 367.2 151.65 369.616C151.65 369.792 151.634 369.984 151.618 370.176H145.282V370.288C145.33 371.84 146.306 372.928 147.858 372.928C149.01 372.928 149.906 372.32 150.178 371.264H151.506C151.186 372.896 149.842 374.096 147.954 374.096ZM145.362 369.088H150.242C150.114 367.68 149.154 366.896 147.794 366.896C146.594 366.896 145.49 367.76 145.362 369.088ZM156.907 374.096C154.459 374.096 152.859 372.416 152.859 369.92C152.859 367.44 154.427 365.744 156.731 365.744C159.035 365.744 160.539 367.2 160.603 369.616C160.603 369.792 160.587 369.984 160.571 370.176H154.235V370.288C154.283 371.84 155.259 372.928 156.811 372.928C157.963 372.928 158.859 372.32 159.131 371.264H160.459C160.139 372.896 158.795 374.096 156.907 374.096ZM154.315 369.088H159.195C159.067 367.68 158.107 366.896 156.747 366.896C155.547 366.896 154.443 367.76 154.315 369.088ZM166.96 364.464C166.48 364.464 166.112 364.112 166.112 363.616C166.112 363.12 166.48 362.768 166.96 362.768C167.44 362.768 167.808 363.12 167.808 363.616C167.808 364.112 167.44 364.464 166.96 364.464ZM166.288 374V365.84H167.6V374H166.288ZM173.397 365.744C175.237 365.744 176.693 366.752 176.693 369.456V374H175.381V369.536C175.381 367.84 174.597 366.944 173.173 366.944C171.637 366.944 170.709 368.08 170.709 369.92V374H169.397V365.84H170.533L170.709 366.944C171.189 366.32 172.021 365.744 173.397 365.744ZM177.502 367.04V365.84H178.974V364.928C178.974 363.488 179.582 362.8 181.102 362.8H182.59V364H181.182C180.526 364 180.286 364.272 180.286 364.896V365.84H182.59V367.04H180.286V374H178.974V367.04H177.502ZM186.923 374.096C184.539 374.096 182.875 372.4 182.875 369.92C182.875 367.44 184.539 365.744 186.923 365.744C189.307 365.744 190.971 367.44 190.971 369.92C190.971 372.4 189.307 374.096 186.923 374.096ZM186.923 372.928C188.539 372.928 189.627 371.664 189.627 369.92C189.627 368.176 188.539 366.912 186.923 366.912C185.307 366.912 184.219 368.176 184.219 369.92C184.219 371.664 185.307 372.928 186.923 372.928ZM196.251 365.84H196.619V367.12H195.963C194.251 367.12 193.787 368.544 193.787 369.84V374H192.475V365.84H193.611L193.787 367.072C194.171 366.448 194.795 365.84 196.251 365.84ZM206.86 365.744C208.556 365.744 209.948 366.72 209.948 369.296V374H208.636V369.376C208.636 367.776 207.932 366.944 206.7 366.944C205.34 366.944 204.508 367.968 204.508 369.632V374H203.196V369.376C203.196 367.776 202.476 366.944 201.228 366.944C199.884 366.944 199.068 368.064 199.068 369.696V374H197.756V365.84H198.892L199.068 366.96C199.5 366.368 200.188 365.744 201.452 365.744C202.588 365.744 203.564 366.256 204.028 367.296C204.524 366.416 205.404 365.744 206.86 365.744ZM218.847 372.8H219.263V374H218.543C217.455 374 217.087 373.536 217.071 372.736C216.559 373.472 215.743 374.096 214.335 374.096C212.543 374.096 211.327 373.2 211.327 371.712C211.327 370.08 212.463 369.168 214.607 369.168H217.007V368.608C217.007 367.552 216.255 366.912 214.975 366.912C213.823 366.912 213.055 367.456 212.895 368.288H211.583C211.775 366.688 213.071 365.744 215.039 365.744C217.119 365.744 218.319 366.784 218.319 368.688V372.256C218.319 372.688 218.479 372.8 218.847 372.8ZM217.007 370.672V370.272H214.479C213.311 370.272 212.655 370.704 212.655 371.632C212.655 372.432 213.343 372.976 214.431 372.976C216.063 372.976 217.007 372.032 217.007 370.672ZM220.88 371.872V367.04H219.408V365.84H220.88V363.552H222.192V365.84H224.304V367.04H222.192V371.856C222.192 372.544 222.432 372.8 223.136 372.8H224.432V374H223.008C221.44 374 220.88 373.312 220.88 371.872ZM226.241 364.464C225.761 364.464 225.393 364.112 225.393 363.616C225.393 363.12 225.761 362.768 226.241 362.768C226.721 362.768 227.089 363.12 227.089 363.616C227.089 364.112 226.721 364.464 226.241 364.464ZM225.569 374V365.84H226.881V374H225.569ZM232.438 374.096C230.054 374.096 228.39 372.4 228.39 369.92C228.39 367.44 230.054 365.744 232.438 365.744C234.822 365.744 236.486 367.44 236.486 369.92C236.486 372.4 234.822 374.096 232.438 374.096ZM232.438 372.928C234.054 372.928 235.142 371.664 235.142 369.92C235.142 368.176 234.054 366.912 232.438 366.912C230.822 366.912 229.734 368.176 229.734 369.92C229.734 371.664 230.822 372.928 232.438 372.928ZM241.991 365.744C243.831 365.744 245.287 366.752 245.287 369.456V374H243.975V369.536C243.975 367.84 243.191 366.944 241.767 366.944C240.231 366.944 239.303 368.08 239.303 369.92V374H237.991V365.84H239.127L239.303 366.944C239.783 366.32 240.615 365.744 241.991 365.744ZM251.819 364.464C251.339 364.464 250.971 364.112 250.971 363.616C250.971 363.12 251.339 362.768 251.819 362.768C252.299 362.768 252.667 363.12 252.667 363.616C252.667 364.112 252.299 364.464 251.819 364.464ZM251.147 374V365.84H252.459V374H251.147ZM253.92 371.312H255.264C255.312 372.272 256.16 372.976 257.52 372.976C258.672 372.976 259.488 372.48 259.488 371.728C259.488 370.704 258.592 370.624 257.376 370.48C255.552 370.256 254.096 369.888 254.096 368.192C254.096 366.704 255.456 365.728 257.296 365.744C259.152 365.76 260.496 366.624 260.624 368.32H259.28C259.184 367.488 258.416 366.864 257.296 366.864C256.16 366.864 255.392 367.344 255.392 368.096C255.392 368.992 256.256 369.104 257.44 369.248C259.296 369.472 260.784 369.824 260.784 371.632C260.784 373.152 259.328 374.096 257.52 374.096C255.408 374.096 253.952 373.104 253.92 371.312ZM268.204 364.016V362.8H269.516V374H268.172V365.968C268.012 366.112 267.756 366.176 267.404 366.176H265.596V364.976H267.42C267.948 364.976 268.204 364.576 268.204 364.016ZM271.314 368.656V368.144C271.314 364.96 273.042 362.704 275.57 362.704C278.082 362.704 279.81 364.96 279.81 368.144V368.656C279.81 372 278.082 374.096 275.57 374.096C273.042 374.096 271.314 372 271.314 368.656ZM278.45 368.608V368.192C278.45 365.536 277.298 363.936 275.57 363.936C273.826 363.936 272.674 365.536 272.674 368.192V368.608C272.674 371.264 273.826 372.864 275.57 372.864C277.298 372.864 278.45 371.264 278.45 368.608ZM281.189 368.656V368.144C281.189 364.96 282.917 362.704 285.445 362.704C287.957 362.704 289.685 364.96 289.685 368.144V368.656C289.685 372 287.957 374.096 285.445 374.096C282.917 374.096 281.189 372 281.189 368.656ZM288.325 368.608V368.192C288.325 365.536 287.173 363.936 285.445 363.936C283.701 363.936 282.549 365.536 282.549 368.192V368.608C282.549 371.264 283.701 372.864 285.445 372.864C287.173 372.864 288.325 371.264 288.325 368.608ZM293.496 362.416C294.285 362.416 294.883 362.731 295.288 363.36C295.693 363.979 295.896 364.853 295.896 365.984C295.896 367.115 295.699 368 295.304 368.64C294.92 369.269 294.317 369.584 293.496 369.584C292.995 369.584 292.568 369.44 292.216 369.152C291.864 368.864 291.597 368.453 291.416 367.92C291.245 367.376 291.16 366.731 291.16 365.984C291.16 364.853 291.347 363.979 291.72 363.36C292.093 362.731 292.685 362.416 293.496 362.416ZM293.496 363.408C293.091 363.408 292.792 363.627 292.6 364.064C292.419 364.491 292.328 365.131 292.328 365.984C292.328 366.837 292.419 367.483 292.6 367.92C292.792 368.357 293.091 368.576 293.496 368.576C293.912 368.576 294.221 368.363 294.424 367.936C294.627 367.499 294.728 366.848 294.728 365.984C294.728 365.131 294.627 364.491 294.424 364.064C294.221 363.627 293.912 363.408 293.496 363.408ZM300.808 362.576L294.472 374H293.24L299.576 362.576H300.808ZM300.488 366.992C301.011 366.992 301.448 367.136 301.8 367.424C302.152 367.701 302.419 368.107 302.6 368.64C302.792 369.163 302.888 369.803 302.888 370.56C302.888 371.691 302.691 372.576 302.296 373.216C301.912 373.845 301.309 374.16 300.488 374.16C299.987 374.16 299.56 374.016 299.208 373.728C298.856 373.44 298.589 373.029 298.408 372.496C298.237 371.952 298.152 371.307 298.152 370.56C298.152 369.429 298.339 368.555 298.712 367.936C299.085 367.307 299.677 366.992 300.488 366.992ZM300.488 368C300.083 368 299.784 368.213 299.592 368.64C299.411 369.067 299.32 369.707 299.32 370.56C299.32 371.424 299.411 372.075 299.592 372.512C299.784 372.939 300.083 373.152 300.488 373.152C300.904 373.152 301.213 372.939 301.416 372.512C301.619 372.085 301.72 371.435 301.72 370.56C301.72 369.707 301.619 369.067 301.416 368.64C301.213 368.213 300.904 368 300.488 368ZM308.42 371.312H309.764C309.812 372.272 310.66 372.976 312.02 372.976C313.172 372.976 313.988 372.48 313.988 371.728C313.988 370.704 313.092 370.624 311.876 370.48C310.052 370.256 308.596 369.888 308.596 368.192C308.596 366.704 309.956 365.728 311.796 365.744C313.652 365.76 314.996 366.624 315.124 368.32H313.78C313.684 367.488 312.916 366.864 311.796 366.864C310.66 366.864 309.892 367.344 309.892 368.096C309.892 368.992 310.756 369.104 311.94 369.248C313.796 369.472 315.284 369.824 315.284 371.632C315.284 373.152 313.828 374.096 312.02 374.096C309.908 374.096 308.452 373.104 308.42 371.312ZM323.957 372.8H324.373V374H323.653C322.565 374 322.197 373.536 322.181 372.736C321.669 373.472 320.853 374.096 319.445 374.096C317.653 374.096 316.437 373.2 316.437 371.712C316.437 370.08 317.573 369.168 319.717 369.168H322.117V368.608C322.117 367.552 321.365 366.912 320.085 366.912C318.933 366.912 318.165 367.456 318.005 368.288H316.693C316.885 366.688 318.181 365.744 320.149 365.744C322.229 365.744 323.429 366.784 323.429 368.688V372.256C323.429 372.688 323.589 372.8 323.957 372.8ZM322.117 370.672V370.272H319.589C318.421 370.272 317.765 370.704 317.765 371.632C317.765 372.432 318.453 372.976 319.541 372.976C321.173 372.976 322.117 372.032 322.117 370.672ZM324.517 367.04V365.84H325.989V364.928C325.989 363.488 326.597 362.8 328.117 362.8H329.605V364H328.197C327.541 364 327.301 364.272 327.301 364.896V365.84H329.605V367.04H327.301V374H325.989V367.04H324.517ZM333.938 374.096C331.49 374.096 329.89 372.416 329.89 369.92C329.89 367.44 331.458 365.744 333.762 365.744C336.066 365.744 337.57 367.2 337.634 369.616C337.634 369.792 337.618 369.984 337.602 370.176H331.266V370.288C331.314 371.84 332.29 372.928 333.842 372.928C334.994 372.928 335.89 372.32 336.162 371.264H337.49C337.17 372.896 335.826 374.096 333.938 374.096ZM331.346 369.088H336.226C336.098 367.68 335.138 366.896 333.778 366.896C332.578 366.896 331.474 367.76 331.346 369.088ZM350.535 372.8H350.951V374H350.231C349.143 374 348.775 373.536 348.759 372.736C348.247 373.472 347.431 374.096 346.023 374.096C344.231 374.096 343.015 373.2 343.015 371.712C343.015 370.08 344.151 369.168 346.295 369.168H348.695V368.608C348.695 367.552 347.943 366.912 346.663 366.912C345.511 366.912 344.743 367.456 344.583 368.288H343.271C343.463 366.688 344.759 365.744 346.727 365.744C348.807 365.744 350.007 366.784 350.007 368.688V372.256C350.007 372.688 350.167 372.8 350.535 372.8ZM348.695 370.672V370.272H346.167C344.999 370.272 344.343 370.704 344.343 371.632C344.343 372.432 345.031 372.976 346.119 372.976C347.751 372.976 348.695 372.032 348.695 370.672ZM355.96 365.744C357.8 365.744 359.256 366.752 359.256 369.456V374H357.944V369.536C357.944 367.84 357.16 366.944 355.736 366.944C354.2 366.944 353.272 368.08 353.272 369.92V374H351.96V365.84H353.096L353.272 366.944C353.752 366.32 354.584 365.744 355.96 365.744ZM367.267 367.088V362.8H368.579V374H367.443L367.267 372.688C366.723 373.44 365.843 374.096 364.467 374.096C362.211 374.096 360.547 372.576 360.547 369.92C360.547 367.424 362.211 365.744 364.467 365.744C365.843 365.744 366.771 366.304 367.267 367.088ZM364.595 372.928C366.195 372.928 367.283 371.696 367.283 369.952C367.283 368.16 366.195 366.912 364.595 366.912C362.979 366.912 361.891 368.144 361.891 369.92C361.891 371.696 362.979 372.928 364.595 372.928ZM55.5767 395.312H56.9207C56.9687 396.272 57.8167 396.976 59.1767 396.976C60.3287 396.976 61.1447 396.48 61.1447 395.728C61.1447 394.704 60.2487 394.624 59.0327 394.48C57.2087 394.256 55.7527 393.888 55.7527 392.192C55.7527 390.704 57.1127 389.728 58.9527 389.744C60.8087 389.76 62.1527 390.624 62.2807 392.32H60.9367C60.8407 391.488 60.0727 390.864 58.9527 390.864C57.8167 390.864 57.0487 391.344 57.0487 392.096C57.0487 392.992 57.9127 393.104 59.0967 393.248C60.9527 393.472 62.4407 393.824 62.4407 395.632C62.4407 397.152 60.9847 398.096 59.1767 398.096C57.0647 398.096 55.6087 397.104 55.5767 395.312ZM67.6571 398.096C65.2091 398.096 63.6091 396.416 63.6091 393.92C63.6091 391.44 65.1771 389.744 67.4811 389.744C69.7851 389.744 71.2891 391.2 71.3531 393.616C71.3531 393.792 71.3371 393.984 71.3211 394.176H64.9851V394.288C65.0331 395.84 66.0091 396.928 67.5611 396.928C68.7131 396.928 69.6091 396.32 69.8811 395.264H71.2091C70.8891 396.896 69.5451 398.096 67.6571 398.096ZM65.0651 393.088H69.9451C69.8171 391.68 68.8571 390.896 67.4971 390.896C66.2971 390.896 65.1931 391.76 65.0651 393.088ZM76.5142 398.096C74.1302 398.096 72.5622 396.48 72.5622 393.936C72.5622 391.44 74.1782 389.744 76.5462 389.744C78.5462 389.744 79.8102 390.864 80.1462 392.656H78.7702C78.5302 391.568 77.7302 390.912 76.5302 390.912C74.9622 390.912 73.9062 392.16 73.9062 393.936C73.9062 395.712 74.9622 396.928 76.5302 396.928C77.6982 396.928 78.4982 396.256 78.7542 395.216H80.1462C79.8262 396.976 78.4982 398.096 76.5142 398.096ZM87.2966 393.92V389.84H88.6086V398H87.4726L87.2966 396.912C86.8166 397.52 86.0326 398.096 84.6886 398.096C82.8966 398.096 81.4726 397.088 81.4726 394.384V389.84H82.7846V394.304C82.7846 396 83.5526 396.896 84.9126 396.896C86.4006 396.896 87.2966 395.76 87.2966 393.92ZM94.1731 389.84H94.5411V391.12H93.8851C92.1731 391.12 91.7091 392.544 91.7091 393.84V398H90.3971V389.84H91.5331L91.7091 391.072C92.0931 390.448 92.7171 389.84 94.1731 389.84ZM98.9696 398.096C96.5216 398.096 94.9216 396.416 94.9216 393.92C94.9216 391.44 96.4896 389.744 98.7936 389.744C101.098 389.744 102.602 391.2 102.666 393.616C102.666 393.792 102.65 393.984 102.634 394.176H96.2976V394.288C96.3456 395.84 97.3216 396.928 98.8736 396.928C100.026 396.928 100.922 396.32 101.194 395.264H102.522C102.202 396.896 100.858 398.096 98.9696 398.096ZM96.3776 393.088H101.258C101.13 391.68 100.17 390.896 98.8096 390.896C97.6096 390.896 96.5056 391.76 96.3776 393.088ZM103.471 397.2C103.471 396.656 103.855 396.304 104.383 396.304C104.911 396.304 105.295 396.656 105.295 397.2C105.295 397.744 104.911 398.096 104.383 398.096C103.855 398.096 103.471 397.744 103.471 397.2Z" fill="#515251"/>
<rect x="55.0167" y="236" width="360" height="168" rx="16" stroke="#E7E8E7"/>
<rect x="55.0167" y="468" width="64" height="64" rx="16" fill="#F2F1F1"/>
<path d="M95.2047 502.984C96.2127 503.992 96.7527 505.324 96.7527 506.98C96.7527 508.42 96.3207 509.716 95.5287 510.796C94.7367 511.876 93.5847 512.74 92.1087 513.316C90.5967 513.928 88.8687 514.216 86.9247 514.216C83.9007 514.216 81.5247 513.46 79.7967 511.948C78.0327 510.436 77.1687 508.312 77.1687 505.612H82.3167C82.3167 507.016 82.7847 508.132 83.7207 508.924C84.6207 509.752 85.7727 510.148 87.2127 510.148C88.4367 510.148 89.4447 509.824 90.2367 509.176C91.0287 508.528 91.4607 507.664 91.4607 506.548C91.4607 505.54 91.0647 504.748 90.2727 504.172C89.4807 503.596 88.3287 503.308 86.8527 503.308H84.3687V499.168H86.5647C87.9327 499.168 89.0127 498.88 89.7687 498.268C90.5247 497.656 90.9207 496.828 90.9207 495.784C90.9207 494.812 90.5607 494.056 89.8767 493.48C89.1567 492.94 88.2567 492.652 87.1407 492.652C85.9167 492.652 84.9087 493.012 84.1167 493.66C83.3247 494.344 82.8927 495.244 82.8927 496.396H77.8167C77.8167 493.984 78.6447 492.076 80.3007 490.672C81.9567 489.304 84.1527 488.584 86.9247 488.584C89.8047 488.584 92.0727 489.196 93.6927 490.42C95.3127 491.644 96.1407 493.3 96.1407 495.316C96.1407 496.828 95.6727 498.016 94.7727 498.952C93.8727 499.888 92.6847 500.536 91.2087 500.896C92.8287 501.292 94.1607 501.976 95.2047 502.984Z" fill="#11453B"/>
<path d="M61.9167 554C62.9167 554 63.7967 554.2 64.5567 554.58C65.3167 554.96 65.9167 555.5 66.3367 556.2C66.7567 556.92 66.9767 557.74 66.9767 558.66C66.9767 559.6 66.7567 560.42 66.3367 561.12C65.9167 561.82 65.3167 562.36 64.5567 562.74C63.7967 563.12 62.9167 563.3 61.9167 563.3H59.2167V568H56.2167V554H61.9167ZM59.2167 560.8H61.6367C62.3367 560.8 62.8967 560.62 63.3167 560.22C63.7167 559.84 63.9367 559.32 63.9367 558.66C63.9367 558 63.7167 557.48 63.3167 557.08C62.8967 556.7 62.3367 556.5 61.6367 556.5H59.2167V560.8ZM74.8981 557.72V560.28H73.7781C72.9781 560.28 72.3781 560.52 72.0181 561C71.6381 561.48 71.4581 562.14 71.4581 562.96V568H68.6381V557.72H71.1981L71.4581 559.26C71.7581 558.76 72.1381 558.38 72.5981 558.12C73.0381 557.86 73.6581 557.72 74.4181 557.72H74.8981ZM76.2656 560.1C76.7056 559.3 77.3056 558.7 78.0856 558.26C78.8656 557.82 79.7656 557.6 80.8056 557.6C81.8456 557.6 82.7456 557.82 83.5456 558.22C84.3456 558.62 84.9656 559.2 85.4056 559.94C85.8456 560.68 86.0856 561.54 86.1056 562.54C86.1056 562.9 86.0656 563.22 86.0256 563.5H78.5656V563.58C78.6256 564.34 78.8656 564.92 79.2856 565.34C79.6856 565.78 80.2656 565.98 80.9856 565.98C81.5456 565.98 82.0256 565.86 82.4056 565.62C82.7856 565.38 83.0456 565 83.1656 564.52H85.9456C85.8256 565.2 85.5656 565.82 85.1656 566.36C84.7456 566.92 84.2056 567.34 83.5256 567.66C82.8456 567.98 82.0656 568.12 81.1856 568.12C80.0256 568.12 79.0456 567.92 78.2056 567.48C77.3656 567.06 76.7256 566.46 76.2856 565.66C75.8456 564.86 75.6256 563.94 75.6256 562.88C75.6256 561.82 75.8256 560.9 76.2656 560.1ZM83.2856 561.66C83.1856 561.04 82.9256 560.56 82.5056 560.22C82.0856 559.88 81.5656 559.7 80.9256 559.7C80.3056 559.7 79.7856 559.88 79.3656 560.24C78.9456 560.6 78.7056 561.06 78.6256 561.66H83.2856ZM96.2267 558.26C96.9467 558.7 97.5067 559.3 97.9067 560.1C98.3067 560.9 98.5267 561.84 98.5267 562.88C98.5267 563.94 98.3067 564.86 97.9067 565.64C97.5067 566.44 96.9467 567.04 96.2267 567.48C95.5067 567.92 94.6867 568.12 93.7667 568.12C92.4467 568.12 91.4067 567.66 90.6667 566.7V572H87.8467V557.72H90.3067L90.5867 559.14C90.9267 558.68 91.3667 558.3 91.9067 558.02C92.4467 557.74 93.0667 557.6 93.7867 557.6C94.7067 557.6 95.5067 557.82 96.2267 558.26ZM94.9667 565C95.4267 564.44 95.6667 563.72 95.6667 562.84C95.6667 561.96 95.4267 561.26 94.9667 560.72C94.4867 560.18 93.8867 559.9 93.1267 559.9C92.3667 559.9 91.7467 560.18 91.3067 560.72C90.8467 561.26 90.6267 561.96 90.6267 562.84C90.6267 563.74 90.8467 564.46 91.3067 565C91.7467 565.56 92.3667 565.82 93.1267 565.82C93.8867 565.82 94.4867 565.56 94.9667 565ZM110.413 565.62V568H108.973C107.673 568 107.033 567.44 107.073 566.32C106.693 566.92 106.233 567.36 105.693 567.66C105.133 567.98 104.473 568.12 103.713 568.12C102.553 568.12 101.633 567.86 100.933 567.34C100.233 566.82 99.8928 566.06 99.8928 565.1C99.8928 564.02 100.293 563.18 101.093 562.58C101.893 561.98 103.073 561.68 104.613 561.68H106.653V561.18C106.653 560.72 106.473 560.36 106.133 560.08C105.773 559.8 105.313 559.66 104.733 559.66C104.213 559.66 103.773 559.78 103.453 560C103.113 560.24 102.913 560.54 102.853 560.92H100.133C100.213 559.88 100.693 559.06 101.533 558.48C102.373 557.9 103.473 557.6 104.873 557.6C106.313 557.6 107.433 557.92 108.233 558.56C109.033 559.2 109.433 560.14 109.433 561.34V564.96C109.433 565.22 109.473 565.4 109.593 565.48C109.693 565.58 109.853 565.62 110.093 565.62H110.413ZM106.653 563.56H104.593C103.993 563.56 103.533 563.68 103.213 563.92C102.893 564.16 102.733 564.48 102.733 564.9C102.733 565.26 102.853 565.56 103.133 565.76C103.413 565.98 103.773 566.08 104.253 566.08C104.973 566.08 105.553 565.88 105.993 565.46C106.413 565.04 106.633 564.48 106.653 563.76V563.56ZM117.964 557.72V560.28H116.844C116.044 560.28 115.444 560.52 115.084 561C114.704 561.48 114.524 562.14 114.524 562.96V568H111.704V557.72H114.264L114.524 559.26C114.824 558.76 115.204 558.38 115.664 558.12C116.104 557.86 116.724 557.72 117.484 557.72H117.964ZM119.331 560.1C119.771 559.3 120.371 558.7 121.151 558.26C121.931 557.82 122.831 557.6 123.871 557.6C124.911 557.6 125.811 557.82 126.611 558.22C127.411 558.62 128.031 559.2 128.471 559.94C128.911 560.68 129.151 561.54 129.171 562.54C129.171 562.9 129.131 563.22 129.091 563.5H121.631V563.58C121.691 564.34 121.931 564.92 122.351 565.34C122.751 565.78 123.331 565.98 124.051 565.98C124.611 565.98 125.091 565.86 125.471 565.62C125.851 565.38 126.111 565 126.231 564.52H129.011C128.891 565.2 128.631 565.82 128.231 566.36C127.811 566.92 127.271 567.34 126.591 567.66C125.911 567.98 125.131 568.12 124.251 568.12C123.091 568.12 122.111 567.92 121.271 567.48C120.431 567.06 119.791 566.46 119.351 565.66C118.911 564.86 118.691 563.94 118.691 562.88C118.691 561.82 118.891 560.9 119.331 560.1ZM126.351 561.66C126.251 561.04 125.991 560.56 125.571 560.22C125.151 559.88 124.631 559.7 123.991 559.7C123.371 559.7 122.851 559.88 122.431 560.24C122.011 560.6 121.771 561.06 121.691 561.66H126.351ZM138.073 557.72L140.573 565.1L143.013 557.72H146.033L141.473 569.46C141.233 570.1 140.993 570.58 140.793 570.94C140.573 571.3 140.293 571.56 139.973 571.74C139.653 571.92 139.233 572 138.713 572H135.973V569.62H137.533C137.893 569.62 138.153 569.56 138.313 569.44C138.473 569.32 138.613 569.1 138.773 568.74L139.033 568.06L135.073 557.72H138.073ZM148.961 567.48C148.141 567.04 147.501 566.42 147.061 565.62C146.621 564.82 146.401 563.9 146.401 562.86C146.401 561.82 146.621 560.9 147.061 560.1C147.501 559.3 148.141 558.7 148.961 558.26C149.781 557.82 150.741 557.6 151.821 557.6C152.901 557.6 153.841 557.82 154.661 558.26C155.481 558.7 156.121 559.3 156.561 560.1C157.001 560.9 157.241 561.82 157.241 562.86C157.241 563.92 157.001 564.84 156.561 565.64C156.121 566.44 155.481 567.04 154.661 567.48C153.841 567.92 152.901 568.12 151.821 568.12C150.741 568.12 149.781 567.92 148.961 567.48ZM153.681 565C154.141 564.46 154.381 563.74 154.381 562.86C154.381 561.98 154.141 561.28 153.681 560.72C153.221 560.18 152.601 559.9 151.821 559.9C151.041 559.9 150.421 560.18 149.961 560.72C149.501 561.28 149.281 561.98 149.281 562.86C149.281 563.74 149.501 564.46 149.961 565C150.421 565.56 151.041 565.82 151.821 565.82C152.601 565.82 153.221 565.56 153.681 565ZM168.673 557.72V568H166.173L165.913 566.76C165.553 567.2 165.133 567.52 164.653 567.76C164.173 568 163.573 568.12 162.893 568.12C161.693 568.12 160.713 567.76 159.953 567.02C159.193 566.28 158.813 565.04 158.813 563.3V557.72H161.633V562.96C161.633 563.9 161.793 564.6 162.113 565.08C162.433 565.56 162.953 565.78 163.633 565.78C164.333 565.78 164.873 565.52 165.273 565C165.653 564.48 165.853 563.74 165.853 562.78V557.72H168.673ZM177.093 557.72V560.28H175.973C175.173 560.28 174.573 560.52 174.213 561C173.833 561.48 173.653 562.14 173.653 562.96V568H170.833V557.72H173.393L173.653 559.26C173.953 558.76 174.333 558.38 174.793 558.12C175.233 557.86 175.853 557.72 176.613 557.72H177.093ZM183.174 554H194.254V556.58H190.214V568H187.214V556.58H183.174V554ZM201.248 557.72V560.28H200.128C199.328 560.28 198.728 560.52 198.368 561C197.988 561.48 197.808 562.14 197.808 562.96V568H194.988V557.72H197.548L197.808 559.26C198.108 558.76 198.488 558.38 198.948 558.12C199.388 557.86 200.008 557.72 200.768 557.72H201.248ZM212.535 565.62V568H211.095C209.795 568 209.155 567.44 209.195 566.32C208.815 566.92 208.355 567.36 207.815 567.66C207.255 567.98 206.595 568.12 205.835 568.12C204.675 568.12 203.755 567.86 203.055 567.34C202.355 566.82 202.015 566.06 202.015 565.1C202.015 564.02 202.415 563.18 203.215 562.58C204.015 561.98 205.195 561.68 206.735 561.68H208.775V561.18C208.775 560.72 208.595 560.36 208.255 560.08C207.895 559.8 207.435 559.66 206.855 559.66C206.335 559.66 205.895 559.78 205.575 560C205.235 560.24 205.035 560.54 204.975 560.92H202.255C202.335 559.88 202.815 559.06 203.655 558.48C204.495 557.9 205.595 557.6 206.995 557.6C208.435 557.6 209.555 557.92 210.355 558.56C211.155 559.2 211.555 560.14 211.555 561.34V564.96C211.555 565.22 211.595 565.4 211.715 565.48C211.815 565.58 211.975 565.62 212.215 565.62H212.535ZM208.775 563.56H206.715C206.115 563.56 205.655 563.68 205.335 563.92C205.015 564.16 204.855 564.48 204.855 564.9C204.855 565.26 204.975 565.56 205.255 565.76C205.535 565.98 205.895 566.08 206.375 566.08C207.095 566.08 207.675 565.88 208.115 565.46C208.535 565.04 208.755 564.48 208.775 563.76V563.56ZM222.686 558.72C223.446 559.48 223.846 560.7 223.846 562.42V568H221.026V562.58C221.026 560.82 220.326 559.92 218.946 559.92C218.206 559.92 217.646 560.18 217.246 560.66C216.846 561.16 216.646 561.86 216.646 562.74V568H213.826V557.72H216.286L216.546 559C216.906 558.56 217.326 558.22 217.846 557.98C218.346 557.74 218.966 557.6 219.726 557.6C220.926 557.6 221.906 557.98 222.686 558.72ZM228.122 564.58C228.162 565.04 228.382 565.4 228.782 565.68C229.182 565.96 229.682 566.1 230.322 566.1C230.922 566.1 231.382 566.02 231.742 565.82C232.082 565.62 232.262 565.34 232.262 564.98C232.262 564.72 232.182 564.52 232.022 564.38C231.862 564.26 231.622 564.16 231.342 564.1C231.042 564.04 230.562 563.96 229.902 563.88C228.982 563.76 228.242 563.62 227.642 563.42C227.042 563.24 226.562 562.94 226.202 562.54C225.842 562.14 225.662 561.62 225.662 560.94C225.662 560.28 225.842 559.7 226.202 559.18C226.562 558.66 227.082 558.26 227.762 557.98C228.422 557.7 229.182 557.56 230.062 557.56C231.462 557.58 232.582 557.88 233.442 558.46C234.302 559.06 234.762 559.86 234.842 560.9H232.162C232.122 560.52 231.902 560.2 231.542 559.96C231.182 559.72 230.702 559.58 230.142 559.58C229.602 559.58 229.162 559.68 228.842 559.88C228.522 560.08 228.362 560.36 228.362 560.68C228.362 560.92 228.442 561.1 228.622 561.22C228.782 561.34 229.022 561.44 229.302 561.48C229.582 561.54 230.042 561.6 230.702 561.66C232.082 561.82 233.142 562.12 233.882 562.56C234.622 563 235.002 563.74 235.002 564.78C235.002 565.46 234.802 566.04 234.402 566.54C234.002 567.06 233.462 567.44 232.762 567.72C232.062 568 231.262 568.12 230.342 568.12C228.902 568.12 227.742 567.82 226.862 567.18C225.962 566.54 225.482 565.68 225.442 564.58H228.122ZM246.943 565.62V568H245.503C244.203 568 243.563 567.44 243.603 566.32C243.223 566.92 242.763 567.36 242.223 567.66C241.663 567.98 241.003 568.12 240.243 568.12C239.083 568.12 238.163 567.86 237.463 567.34C236.763 566.82 236.423 566.06 236.423 565.1C236.423 564.02 236.823 563.18 237.623 562.58C238.423 561.98 239.603 561.68 241.143 561.68H243.183V561.18C243.183 560.72 243.003 560.36 242.663 560.08C242.303 559.8 241.843 559.66 241.263 559.66C240.743 559.66 240.303 559.78 239.983 560C239.643 560.24 239.443 560.54 239.383 560.92H236.663C236.743 559.88 237.223 559.06 238.063 558.48C238.903 557.9 240.003 557.6 241.403 557.6C242.843 557.6 243.963 557.92 244.763 558.56C245.563 559.2 245.963 560.14 245.963 561.34V564.96C245.963 565.22 246.003 565.4 246.123 565.48C246.223 565.58 246.383 565.62 246.623 565.62H246.943ZM243.183 563.56H241.123C240.523 563.56 240.063 563.68 239.743 563.92C239.423 564.16 239.263 564.48 239.263 564.9C239.263 565.26 239.383 565.56 239.663 565.76C239.943 565.98 240.303 566.08 240.783 566.08C241.503 566.08 242.083 565.88 242.523 565.46C242.943 565.04 243.163 564.48 243.183 563.76V563.56ZM256.514 567.06C255.634 567.78 254.514 568.12 253.134 568.12C252.054 568.12 251.134 567.92 250.334 567.48C249.534 567.04 248.914 566.42 248.474 565.62C248.034 564.82 247.834 563.9 247.834 562.86C247.834 561.82 248.034 560.9 248.474 560.1C248.914 559.3 249.534 558.7 250.334 558.26C251.134 557.82 252.074 557.6 253.154 557.6C254.514 557.6 255.634 557.96 256.514 558.66C257.374 559.36 257.914 560.32 258.114 561.56H255.194C255.074 561.06 254.834 560.66 254.474 560.36C254.114 560.06 253.654 559.9 253.134 559.9C252.394 559.9 251.814 560.18 251.374 560.72C250.934 561.28 250.714 561.98 250.714 562.86C250.714 563.74 250.934 564.46 251.374 565C251.814 565.56 252.394 565.82 253.134 565.82C253.674 565.82 254.134 565.68 254.494 565.36C254.854 565.06 255.094 564.64 255.214 564.1H258.114C257.914 565.36 257.394 566.34 256.514 567.06ZM260.5 560.1H258.8V557.72H260.5V554.84H263.32V557.72H265.66V560.1H263.32V564.6C263.32 564.96 263.38 565.22 263.54 565.38C263.7 565.54 263.96 565.62 264.32 565.62H265.78V568H263.44C261.48 568 260.5 567.02 260.5 565.06V560.1ZM269.749 553.9C270.049 554.2 270.209 554.58 270.209 555.02C270.209 555.48 270.049 555.86 269.749 556.16C269.429 556.48 269.049 556.62 268.589 556.62C268.109 556.62 267.729 556.48 267.409 556.16C267.089 555.86 266.949 555.48 266.949 555.02C266.949 554.58 267.089 554.2 267.409 553.9C267.729 553.6 268.109 553.44 268.589 553.44C269.049 553.44 269.429 553.6 269.749 553.9ZM267.169 557.72H269.989V568H267.169V557.72ZM274.315 567.48C273.495 567.04 272.855 566.42 272.415 565.62C271.975 564.82 271.755 563.9 271.755 562.86C271.755 561.82 271.975 560.9 272.415 560.1C272.855 559.3 273.495 558.7 274.315 558.26C275.135 557.82 276.095 557.6 277.175 557.6C278.255 557.6 279.195 557.82 280.015 558.26C280.835 558.7 281.475 559.3 281.915 560.1C282.355 560.9 282.595 561.82 282.595 562.86C282.595 563.92 282.355 564.84 281.915 565.64C281.475 566.44 280.835 567.04 280.015 567.48C279.195 567.92 278.255 568.12 277.175 568.12C276.095 568.12 275.135 567.92 274.315 567.48ZM279.035 565C279.495 564.46 279.735 563.74 279.735 562.86C279.735 561.98 279.495 561.28 279.035 560.72C278.575 560.18 277.955 559.9 277.175 559.9C276.395 559.9 275.775 560.18 275.315 560.72C274.855 561.28 274.635 561.98 274.635 562.86C274.635 563.74 274.855 564.46 275.315 565C275.775 565.56 276.395 565.82 277.175 565.82C277.955 565.82 278.575 565.56 279.035 565ZM293.207 558.72C293.967 559.48 294.367 560.7 294.367 562.42V568H291.547V562.58C291.547 560.82 290.847 559.92 289.467 559.92C288.727 559.92 288.167 560.18 287.767 560.66C287.367 561.16 287.167 561.86 287.167 562.74V568H284.347V557.72H286.807L287.067 559C287.427 558.56 287.847 558.22 288.367 557.98C288.867 557.74 289.487 557.6 290.247 557.6C291.447 557.6 292.427 557.98 293.207 558.72Z" fill="#515251"/>
<path d="M56.1047 606V594.8H60.3927C62.6327 594.8 64.1207 596.144 64.1207 598.24C64.1207 599.808 63.1767 601.024 61.7367 601.424L64.2487 606H62.6807L60.3127 601.696H57.4967V606H56.1047ZM60.2967 596.08H57.4967V600.416H60.2807C61.7527 600.416 62.6967 599.552 62.6967 598.24C62.6967 596.928 61.7527 596.08 60.2967 596.08ZM71.406 601.92V597.84H72.718V606H71.582L71.406 604.912C70.926 605.52 70.142 606.096 68.798 606.096C67.006 606.096 65.582 605.088 65.582 602.384V597.84H66.894V602.304C66.894 604 67.662 604.896 69.022 604.896C70.51 604.896 71.406 603.76 71.406 601.92ZM78.5065 597.744C80.3465 597.744 81.8025 598.752 81.8025 601.456V606H80.4905V601.536C80.4905 599.84 79.7065 598.944 78.2825 598.944C76.7465 598.944 75.8185 600.08 75.8185 601.92V606H74.5065V597.84H75.6425L75.8185 598.944C76.2985 598.32 77.1305 597.744 78.5065 597.744ZM91.7747 597.744C94.0307 597.744 95.6947 599.264 95.6947 601.92C95.6947 604.416 94.0307 606.096 91.7747 606.096C90.3987 606.096 89.4707 605.536 88.9747 604.752V609.2H87.6627V597.84H88.7987L88.9747 599.152C89.5187 598.4 90.3987 597.744 91.7747 597.744ZM91.6467 604.928C93.2627 604.928 94.3507 603.696 94.3507 601.92C94.3507 600.144 93.2627 598.912 91.6467 598.912C90.0467 598.912 88.9587 600.144 88.9587 601.888C88.9587 603.68 90.0467 604.928 91.6467 604.928ZM104.41 604.8H104.826V606H104.106C103.018 606 102.65 605.536 102.634 604.736C102.122 605.472 101.306 606.096 99.898 606.096C98.106 606.096 96.89 605.2 96.89 603.712C96.89 602.08 98.026 601.168 100.17 601.168H102.57V600.608C102.57 599.552 101.818 598.912 100.538 598.912C99.386 598.912 98.618 599.456 98.458 600.288H97.146C97.338 598.688 98.634 597.744 100.602 597.744C102.682 597.744 103.882 598.784 103.882 600.688V604.256C103.882 604.688 104.042 604.8 104.41 604.8ZM102.57 602.672V602.272H100.042C98.874 602.272 98.218 602.704 98.218 603.632C98.218 604.432 98.906 604.976 99.994 604.976C101.626 604.976 102.57 604.032 102.57 602.672ZM107.906 606.048L104.722 597.84H106.114L108.626 604.352L111.058 597.84H112.45L108.69 607.376C108.178 608.688 107.874 609.2 106.722 609.2H105.154V608H106.322C107.074 608 107.202 607.808 107.506 607.04L107.906 606.048ZM117.204 597.84H117.572V599.12H116.916C115.204 599.12 114.74 600.544 114.74 601.84V606H113.428V597.84H114.564L114.74 599.072C115.124 598.448 115.748 597.84 117.204 597.84ZM122.001 606.096C119.617 606.096 117.953 604.4 117.953 601.92C117.953 599.44 119.617 597.744 122.001 597.744C124.385 597.744 126.049 599.44 126.049 601.92C126.049 604.4 124.385 606.096 122.001 606.096ZM122.001 604.928C123.617 604.928 124.705 603.664 124.705 601.92C124.705 600.176 123.617 598.912 122.001 598.912C120.385 598.912 119.297 600.176 119.297 601.92C119.297 603.664 120.385 604.928 122.001 604.928ZM127.553 606V594.8H128.865V606H127.553ZM130.663 606V594.8H131.975V606H130.663ZM134.028 605.136C134.028 604.741 134.124 604.464 134.316 604.304C134.508 604.144 134.737 604.064 135.004 604.064C135.281 604.064 135.516 604.144 135.708 604.304C135.911 604.464 136.012 604.741 136.012 605.136C136.012 605.52 135.911 605.797 135.708 605.968C135.516 606.139 135.281 606.224 135.004 606.224C134.737 606.224 134.508 606.139 134.316 605.968C134.124 605.797 134.028 605.52 134.028 605.136ZM134.028 598.288C134.028 597.883 134.124 597.6 134.316 597.44C134.508 597.28 134.737 597.2 135.004 597.2C135.281 597.2 135.516 597.28 135.708 597.44C135.911 597.6 136.012 597.883 136.012 598.288C136.012 598.672 135.911 598.949 135.708 599.12C135.516 599.291 135.281 599.376 135.004 599.376C134.737 599.376 134.508 599.291 134.316 599.12C134.124 598.949 134.028 598.672 134.028 598.288ZM142.433 606V594.8H146.401C148.785 594.8 150.113 595.952 150.113 597.76C150.113 599.04 149.409 599.824 148.353 600.192C149.537 600.416 150.577 601.184 150.577 602.8C150.577 604.784 149.169 606 146.513 606H142.433ZM146.465 596.064H143.825V599.664H146.465C147.905 599.664 148.721 598.992 148.721 597.856C148.721 596.736 147.921 596.064 146.465 596.064ZM146.513 600.912H143.825V604.736H146.513C148.241 604.736 149.153 604.016 149.153 602.864C149.153 601.6 148.177 600.912 146.513 600.912ZM157.843 601.92V597.84H159.155V606H158.019L157.843 604.912C157.363 605.52 156.579 606.096 155.235 606.096C153.443 606.096 152.019 605.088 152.019 602.384V597.84H153.331V602.304C153.331 604 154.099 604.896 155.459 604.896C156.947 604.896 157.843 603.76 157.843 601.92ZM160.944 606V594.8H162.256V606H160.944ZM164.053 606V594.8H165.365V602.176L169.461 597.84H171.077L167.893 601.216L171.301 606H169.717L167.013 602.16L165.365 603.856V606H164.053ZM176.157 602.336H177.597C177.709 603.84 178.877 604.832 180.589 604.832C182.093 604.832 183.165 604.144 183.165 602.928C183.165 601.536 181.789 601.248 180.093 600.96C178.285 600.656 176.429 600.064 176.429 597.888C176.429 595.984 177.981 594.704 180.253 594.704C182.749 594.704 184.285 596.096 184.413 598.112H182.973C182.813 596.816 181.773 595.968 180.253 595.968C178.797 595.968 177.821 596.608 177.821 597.808C177.821 599.152 179.181 599.424 180.861 599.712C182.685 600.016 184.557 600.624 184.557 602.8C184.557 604.736 182.925 606.096 180.573 606.096C177.837 606.096 176.237 604.544 176.157 602.336ZM193.347 604.8H193.763V606H193.043C191.955 606 191.587 605.536 191.571 604.736C191.059 605.472 190.243 606.096 188.835 606.096C187.043 606.096 185.827 605.2 185.827 603.712C185.827 602.08 186.963 601.168 189.107 601.168H191.507V600.608C191.507 599.552 190.755 598.912 189.475 598.912C188.323 598.912 187.555 599.456 187.395 600.288H186.083C186.275 598.688 187.571 597.744 189.539 597.744C191.619 597.744 192.819 598.784 192.819 600.688V604.256C192.819 604.688 192.979 604.8 193.347 604.8ZM191.507 602.672V602.272H188.979C187.811 602.272 187.155 602.704 187.155 603.632C187.155 604.432 187.843 604.976 188.931 604.976C190.563 604.976 191.507 604.032 191.507 602.672ZM194.772 606V594.8H196.084V606H194.772ZM205.097 604.8H205.513V606H204.793C203.705 606 203.337 605.536 203.321 604.736C202.809 605.472 201.993 606.096 200.585 606.096C198.793 606.096 197.577 605.2 197.577 603.712C197.577 602.08 198.713 601.168 200.857 601.168H203.257V600.608C203.257 599.552 202.505 598.912 201.225 598.912C200.073 598.912 199.305 599.456 199.145 600.288H197.833C198.025 598.688 199.321 597.744 201.289 597.744C203.369 597.744 204.569 598.784 204.569 600.688V604.256C204.569 604.688 204.729 604.8 205.097 604.8ZM203.257 602.672V602.272H200.729C199.561 602.272 198.905 602.704 198.905 603.632C198.905 604.432 199.593 604.976 200.681 604.976C202.313 604.976 203.257 604.032 203.257 602.672ZM210.298 597.84H210.666V599.12H210.01C208.298 599.12 207.834 600.544 207.834 601.84V606H206.522V597.84H207.658L207.834 599.072C208.218 598.448 208.842 597.84 210.298 597.84ZM212.475 596.464C211.995 596.464 211.627 596.112 211.627 595.616C211.627 595.12 211.995 594.768 212.475 594.768C212.955 594.768 213.323 595.12 213.323 595.616C213.323 596.112 212.955 596.464 212.475 596.464ZM211.803 606V597.84H213.115V606H211.803ZM218.673 606.096C216.225 606.096 214.625 604.416 214.625 601.92C214.625 599.44 216.193 597.744 218.497 597.744C220.801 597.744 222.305 599.2 222.369 601.616C222.369 601.792 222.353 601.984 222.337 602.176H216.001V602.288C216.049 603.84 217.025 604.928 218.577 604.928C219.729 604.928 220.625 604.32 220.897 603.264H222.225C221.905 604.896 220.561 606.096 218.673 606.096ZM216.081 601.088H220.961C220.833 599.68 219.873 598.896 218.513 598.896C217.313 598.896 216.209 599.76 216.081 601.088ZM223.499 603.312H224.843C224.891 604.272 225.739 604.976 227.099 604.976C228.251 604.976 229.067 604.48 229.067 603.728C229.067 602.704 228.171 602.624 226.955 602.48C225.131 602.256 223.675 601.888 223.675 600.192C223.675 598.704 225.035 597.728 226.875 597.744C228.731 597.76 230.075 598.624 230.203 600.32H228.859C228.763 599.488 227.995 598.864 226.875 598.864C225.739 598.864 224.971 599.344 224.971 600.096C224.971 600.992 225.835 601.104 227.019 601.248C228.875 601.472 230.363 601.824 230.363 603.632C230.363 605.152 228.907 606.096 227.099 606.096C224.987 606.096 223.531 605.104 223.499 603.312ZM243.222 604.8H243.638V606H242.918C241.83 606 241.462 605.536 241.446 604.736C240.934 605.472 240.118 606.096 238.71 606.096C236.918 606.096 235.702 605.2 235.702 603.712C235.702 602.08 236.838 601.168 238.982 601.168H241.382V600.608C241.382 599.552 240.63 598.912 239.35 598.912C238.198 598.912 237.43 599.456 237.27 600.288H235.958C236.15 598.688 237.446 597.744 239.414 597.744C241.494 597.744 242.694 598.784 242.694 600.688V604.256C242.694 604.688 242.854 604.8 243.222 604.8ZM241.382 602.672V602.272H238.854C237.686 602.272 237.03 602.704 237.03 603.632C237.03 604.432 237.718 604.976 238.806 604.976C240.438 604.976 241.382 604.032 241.382 602.672ZM248.647 597.744C250.487 597.744 251.943 598.752 251.943 601.456V606H250.631V601.536C250.631 599.84 249.847 598.944 248.423 598.944C246.887 598.944 245.959 600.08 245.959 601.92V606H244.647V597.84H245.783L245.959 598.944C246.439 598.32 247.271 597.744 248.647 597.744ZM259.954 599.088V594.8H261.266V606H260.13L259.954 604.688C259.41 605.44 258.53 606.096 257.154 606.096C254.898 606.096 253.234 604.576 253.234 601.92C253.234 599.424 254.898 597.744 257.154 597.744C258.53 597.744 259.458 598.304 259.954 599.088ZM257.282 604.928C258.882 604.928 259.97 603.696 259.97 601.952C259.97 600.16 258.882 598.912 257.282 598.912C255.666 598.912 254.578 600.144 254.578 601.92C254.578 603.696 255.666 604.928 257.282 604.928ZM272.249 606.096C269.033 606.096 267.017 603.824 267.017 600.4C267.017 597.008 269.113 594.704 272.361 594.704C274.841 594.704 276.649 596.144 277.065 598.464H275.593C275.161 596.912 273.977 595.984 272.297 595.984C269.945 595.984 268.441 597.808 268.441 600.4C268.441 602.976 269.881 604.816 272.233 604.816C273.961 604.816 275.161 603.904 275.577 602.336H277.049C276.633 604.656 274.777 606.096 272.249 606.096ZM282.298 606.096C279.914 606.096 278.25 604.4 278.25 601.92C278.25 599.44 279.914 597.744 282.298 597.744C284.682 597.744 286.346 599.44 286.346 601.92C286.346 604.4 284.682 606.096 282.298 606.096ZM282.298 604.928C283.914 604.928 285.002 603.664 285.002 601.92C285.002 600.176 283.914 598.912 282.298 598.912C280.682 598.912 279.594 600.176 279.594 601.92C279.594 603.664 280.682 604.928 282.298 604.928ZM296.954 597.744C298.65 597.744 300.042 598.72 300.042 601.296V606H298.73V601.376C298.73 599.776 298.026 598.944 296.794 598.944C295.434 598.944 294.602 599.968 294.602 601.632V606H293.29V601.376C293.29 599.776 292.57 598.944 291.322 598.944C289.978 598.944 289.162 600.064 289.162 601.696V606H287.85V597.84H288.986L289.162 598.96C289.594 598.368 290.282 597.744 291.546 597.744C292.682 597.744 293.658 598.256 294.122 599.296C294.618 598.416 295.498 597.744 296.954 597.744ZM305.837 597.744C308.093 597.744 309.757 599.264 309.757 601.92C309.757 604.416 308.093 606.096 305.837 606.096C304.461 606.096 303.533 605.536 303.037 604.752V609.2H301.725V597.84H302.861L303.037 599.152C303.581 598.4 304.461 597.744 305.837 597.744ZM305.709 604.928C307.325 604.928 308.413 603.696 308.413 601.92C308.413 600.144 307.325 598.912 305.709 598.912C304.109 598.912 303.021 600.144 303.021 601.888C303.021 603.68 304.109 604.928 305.709 604.928ZM311.256 606V594.8H312.568V606H311.256ZM315.038 596.464C314.558 596.464 314.19 596.112 314.19 595.616C314.19 595.12 314.558 594.768 315.038 594.768C315.518 594.768 315.886 595.12 315.886 595.616C315.886 596.112 315.518 596.464 315.038 596.464ZM314.366 606V597.84H315.678V606H314.366ZM324.691 604.8H325.107V606H324.387C323.299 606 322.931 605.536 322.915 604.736C322.403 605.472 321.587 606.096 320.179 606.096C318.387 606.096 317.171 605.2 317.171 603.712C317.171 602.08 318.307 601.168 320.451 601.168H322.851V600.608C322.851 599.552 322.099 598.912 320.819 598.912C319.667 598.912 318.899 599.456 318.739 600.288H317.427C317.619 598.688 318.915 597.744 320.883 597.744C322.963 597.744 324.163 598.784 324.163 600.688V604.256C324.163 604.688 324.323 604.8 324.691 604.8ZM322.851 602.672V602.272H320.323C319.155 602.272 318.499 602.704 318.499 603.632C318.499 604.432 319.187 604.976 320.275 604.976C321.907 604.976 322.851 604.032 322.851 602.672ZM330.116 597.744C331.956 597.744 333.412 598.752 333.412 601.456V606H332.1V601.536C332.1 599.84 331.316 598.944 329.892 598.944C328.356 598.944 327.428 600.08 327.428 601.92V606H326.116V597.84H327.252L327.428 598.944C327.908 598.32 328.74 597.744 330.116 597.744ZM338.655 606.096C336.271 606.096 334.703 604.48 334.703 601.936C334.703 599.44 336.319 597.744 338.687 597.744C340.687 597.744 341.951 598.864 342.287 600.656H340.911C340.671 599.568 339.871 598.912 338.671 598.912C337.103 598.912 336.047 600.16 336.047 601.936C336.047 603.712 337.103 604.928 338.671 604.928C339.839 604.928 340.639 604.256 340.895 603.216H342.287C341.967 604.976 340.639 606.096 338.655 606.096ZM347.485 606.096C345.037 606.096 343.437 604.416 343.437 601.92C343.437 599.44 345.005 597.744 347.309 597.744C349.613 597.744 351.117 599.2 351.181 601.616C351.181 601.792 351.165 601.984 351.149 602.176H344.813V602.288C344.861 603.84 345.837 604.928 347.389 604.928C348.541 604.928 349.437 604.32 349.709 603.264H351.037C350.717 604.896 349.373 606.096 347.485 606.096ZM344.893 601.088H349.773C349.645 599.68 348.685 598.896 347.325 598.896C346.125 598.896 345.021 599.76 344.893 601.088ZM364.082 604.8H364.498V606H363.778C362.69 606 362.322 605.536 362.306 604.736C361.794 605.472 360.978 606.096 359.57 606.096C357.778 606.096 356.562 605.2 356.562 603.712C356.562 602.08 357.698 601.168 359.842 601.168H362.242V600.608C362.242 599.552 361.49 598.912 360.21 598.912C359.058 598.912 358.29 599.456 358.13 600.288H356.818C357.01 598.688 358.306 597.744 360.274 597.744C362.354 597.744 363.554 598.784 363.554 600.688V604.256C363.554 604.688 363.714 604.8 364.082 604.8ZM362.242 602.672V602.272H359.714C358.546 602.272 357.89 602.704 357.89 603.632C357.89 604.432 358.578 604.976 359.666 604.976C361.298 604.976 362.242 604.032 362.242 602.672ZM369.282 597.84H369.65V599.12H368.994C367.282 599.12 366.818 600.544 366.818 601.84V606H365.506V597.84H366.642L366.818 599.072C367.202 598.448 367.826 597.84 369.282 597.84ZM374.079 606.096C371.631 606.096 370.031 604.416 370.031 601.92C370.031 599.44 371.599 597.744 373.903 597.744C376.207 597.744 377.711 599.2 377.775 601.616C377.775 601.792 377.759 601.984 377.743 602.176H371.407V602.288C371.455 603.84 372.431 604.928 373.983 604.928C375.135 604.928 376.031 604.32 376.303 603.264H377.631C377.311 604.896 375.967 606.096 374.079 606.096ZM371.487 601.088H376.367C376.239 599.68 375.279 598.896 373.919 598.896C372.719 598.896 371.615 599.76 371.487 601.088ZM62.3447 623.088V618.8H63.6567V630H62.5207L62.3447 628.688C61.8007 629.44 60.9207 630.096 59.5447 630.096C57.2887 630.096 55.6247 628.576 55.6247 625.92C55.6247 623.424 57.2887 621.744 59.5447 621.744C60.9207 621.744 61.8487 622.304 62.3447 623.088ZM59.6727 628.928C61.2727 628.928 62.3607 627.696 62.3607 625.952C62.3607 624.16 61.2727 622.912 59.6727 622.912C58.0567 622.912 56.9687 624.144 56.9687 625.92C56.9687 627.696 58.0567 628.928 59.6727 628.928ZM69.204 630.096C66.82 630.096 65.156 628.4 65.156 625.92C65.156 623.44 66.82 621.744 69.204 621.744C71.588 621.744 73.252 623.44 73.252 625.92C73.252 628.4 71.588 630.096 69.204 630.096ZM69.204 628.928C70.82 628.928 71.908 627.664 71.908 625.92C71.908 624.176 70.82 622.912 69.204 622.912C67.588 622.912 66.5 624.176 66.5 625.92C66.5 627.664 67.588 628.928 69.204 628.928ZM78.7565 621.744C80.5965 621.744 82.0525 622.752 82.0525 625.456V630H80.7405V625.536C80.7405 623.84 79.9565 622.944 78.5325 622.944C76.9965 622.944 76.0685 624.08 76.0685 625.92V630H74.7565V621.84H75.8925L76.0685 622.944C76.5485 622.32 77.3805 621.744 78.7565 621.744ZM87.3915 630.096C84.9435 630.096 83.3435 628.416 83.3435 625.92C83.3435 623.44 84.9115 621.744 87.2155 621.744C89.5195 621.744 91.0235 623.2 91.0875 625.616C91.0875 625.792 91.0715 625.984 91.0555 626.176H84.7195V626.288C84.7675 627.84 85.7435 628.928 87.2955 628.928C88.4475 628.928 89.3435 628.32 89.6155 627.264H90.9435C90.6235 628.896 89.2795 630.096 87.3915 630.096ZM84.7995 625.088H89.6795C89.5515 623.68 88.5915 622.896 87.2315 622.896C86.0315 622.896 84.9275 623.76 84.7995 625.088ZM103.988 628.8H104.404V630H103.684C102.596 630 102.228 629.536 102.212 628.736C101.7 629.472 100.884 630.096 99.4761 630.096C97.6841 630.096 96.4681 629.2 96.4681 627.712C96.4681 626.08 97.6041 625.168 99.7481 625.168H102.148V624.608C102.148 623.552 101.396 622.912 100.116 622.912C98.9641 622.912 98.1961 623.456 98.0361 624.288H96.7241C96.9161 622.688 98.2121 621.744 100.18 621.744C102.26 621.744 103.46 622.784 103.46 624.688V628.256C103.46 628.688 103.62 628.8 103.988 628.8ZM102.148 626.672V626.272H99.6201C98.4521 626.272 97.7961 626.704 97.7961 627.632C97.7961 628.432 98.4841 628.976 99.5721 628.976C101.204 628.976 102.148 628.032 102.148 626.672ZM106.021 627.872V623.04H104.549V621.84H106.021V619.552H107.333V621.84H109.445V623.04H107.333V627.856C107.333 628.544 107.573 628.8 108.277 628.8H109.573V630H108.149C106.581 630 106.021 629.312 106.021 627.872ZM118.657 630.096C116.273 630.096 114.609 628.4 114.609 625.92C114.609 623.44 116.273 621.744 118.657 621.744C121.041 621.744 122.705 623.44 122.705 625.92C122.705 628.4 121.041 630.096 118.657 630.096ZM118.657 628.928C120.273 628.928 121.361 627.664 121.361 625.92C121.361 624.176 120.273 622.912 118.657 622.912C117.041 622.912 115.953 624.176 115.953 625.92C115.953 627.664 117.041 628.928 118.657 628.928ZM128.21 621.744C130.05 621.744 131.506 622.752 131.506 625.456V630H130.194V625.536C130.194 623.84 129.41 622.944 127.986 622.944C126.45 622.944 125.522 624.08 125.522 625.92V630H124.21V621.84H125.346L125.522 622.944C126.002 622.32 126.834 621.744 128.21 621.744ZM136.749 630.096C134.365 630.096 132.797 628.48 132.797 625.936C132.797 623.44 134.413 621.744 136.781 621.744C138.781 621.744 140.045 622.864 140.381 624.656H139.005C138.765 623.568 137.965 622.912 136.765 622.912C135.197 622.912 134.141 624.16 134.141 625.936C134.141 627.712 135.197 628.928 136.765 628.928C137.933 628.928 138.733 628.256 138.989 627.216H140.381C140.061 628.976 138.733 630.096 136.749 630.096ZM145.579 630.096C143.131 630.096 141.531 628.416 141.531 625.92C141.531 623.44 143.099 621.744 145.403 621.744C147.707 621.744 149.211 623.2 149.275 625.616C149.275 625.792 149.259 625.984 149.243 626.176H142.907V626.288C142.955 627.84 143.931 628.928 145.483 628.928C146.635 628.928 147.531 628.32 147.803 627.264H149.131C148.811 628.896 147.467 630.096 145.579 630.096ZM142.987 625.088H147.867C147.739 623.68 146.779 622.896 145.419 622.896C144.219 622.896 143.115 623.76 142.987 625.088ZM152.484 626.784H151.572L151.172 618.576H152.884L152.484 626.784ZM151.028 629.136C151.028 628.741 151.124 628.464 151.316 628.304C151.508 628.144 151.743 628.064 152.02 628.064C152.287 628.064 152.516 628.144 152.708 628.304C152.911 628.464 153.012 628.741 153.012 629.136C153.012 629.52 152.911 629.797 152.708 629.968C152.516 630.139 152.287 630.224 152.02 630.224C151.743 630.224 151.508 630.139 151.316 629.968C151.124 629.797 151.028 629.52 151.028 629.136Z" fill="#515251"/>
<rect x="55.0167" y="468" width="360" height="168" rx="16" stroke="#E7E8E7"/>
<path d="M146.281 500C146.281 505.891 141.505 510.667 135.614 510.667C129.723 510.667 124.948 505.891 124.948 500C124.948 494.109 129.723 489.333 135.614 489.333C141.505 489.333 146.281 494.109 146.281 500ZM135.614 266H399.614V270H135.614V266ZM425.614 292V476H421.614V292H425.614ZM399.614 502H135.614V498H399.614V502ZM425.614 476C425.614 490.359 413.974 502 399.614 502V498C411.765 498 421.614 488.15 421.614 476H425.614ZM399.614 266C413.974 266 425.614 277.641 425.614 292H421.614C421.614 279.85 411.765 270 399.614 270V266Z" fill="#D9EBCD"/>
<mask id="mask1_3631_461" style="mask-type:alpha" maskUnits="userSpaceOnUse" x="124" y="266" width="302" height="245">
<path d="M146.281 500C146.281 505.891 141.505 510.667 135.614 510.667C129.723 510.667 124.948 505.891 124.948 500C124.948 494.109 129.723 489.333 135.614 489.333C141.505 489.333 146.281 494.109 146.281 500ZM135.614 266H399.614V270H135.614V266ZM425.614 292V476H421.614V292H425.614ZM399.614 502H135.614V498H399.614V502ZM425.614 476C425.614 490.359 413.974 502 399.614 502V498C411.765 498 421.614 488.15 421.614 476H425.614ZM399.614 266C413.974 266 425.614 277.641 425.614 292H421.614C421.614 279.85 411.765 270 399.614 270V266Z" fill="#D9EBCD"/>
</mask>
<g mask="url(#mask1_3631_461)">
</g>
<defs>
<filter id="filter0_d_3631_461" x="7.01672" y="0" width="456" height="240" filterUnits="userSpaceOnUse" color-interpolation-filters="sRGB">
<feFlood flood-opacity="0" result="BackgroundImageFix"/>
<feColorMatrix in="SourceAlpha" type="matrix" values="0 0 0 0 0 0 0 0 0 0 0 0 0 0 0 0 0 0 127 0" result="hardAlpha"/>
<feOffset dy="20"/>
<feGaussianBlur stdDeviation="24"/>
<feColorMatrix type="matrix" values="0 0 0 0 0.666667 0 0 0 0 0.666667 0 0 0 0 0.666667 0 0 0 0.29 0"/>
<feBlend mode="normal" in2="BackgroundImageFix" result="effect1_dropShadow_3631_461"/>
<feBlend mode="normal" in="SourceGraphic" in2="effect1_dropShadow_3631_461" result="shape"/>
</filter>
<filter id="filter1_d_3631_461" x="7.01672" y="0" width="160" height="160" filterUnits="userSpaceOnUse" color-interpolation-filters="sRGB">
<feFlood flood-opacity="0" result="BackgroundImageFix"/>
<feColorMatrix in="SourceAlpha" type="matrix" values="0 0 0 0 0 0 0 0 0 0 0 0 0 0 0 0 0 0 127 0" result="hardAlpha"/>
<feOffset dy="20"/>
<feGaussianBlur stdDeviation="24"/>
<feColorMatrix type="matrix" values="0 0 0 0 0.666667 0 0 0 0 0.666667 0 0 0 0 0.666667 0 0 0 0.29 0"/>
<feBlend mode="normal" in2="BackgroundImageFix" result="effect1_dropShadow_3631_461"/>
<feBlend mode="normal" in="SourceGraphic" in2="effect1_dropShadow_3631_461" result="shape"/>
</filter>
</defs>
</svg>
