<svg width="272" height="151" viewBox="0 0 272 151" fill="none" xmlns="http://www.w3.org/2000/svg">
<path d="M271.998 0H-0.000274658V73.3507C-8.22234 75.6406 -16.19 78.5945 -23.8467 82.3398L-13.2657 150.702C34.634 127.272 94.7048 134.812 153.092 142.14C204.715 148.62 255.021 154.934 294.435 139.532L283.854 71.1703C280.003 72.6751 276.048 73.9727 271.998 75.083V0Z" fill="#11453B"/>
<mask id="mask0_1_1316" style="mask-type:alpha" maskUnits="userSpaceOnUse" x="-24" y="0" width="319" height="151">
<path d="M271.998 0H-0.000274658V73.3507C-8.22234 75.6406 -16.19 78.5945 -23.8467 82.3398L-13.2657 150.702C34.634 127.272 94.7048 134.812 153.092 142.14C204.715 148.62 255.021 154.934 294.435 139.532L283.854 71.1703C280.003 72.6751 276.048 73.9727 271.998 75.083V0Z" fill="#11453B"/>
</mask>
<g mask="url(#mask0_1_1316)">
<path opacity="0.5" fill-rule="evenodd" clip-rule="evenodd" d="M272.413 88.8573C193.995 106.307 85.4687 30.2438 0 56.8105V118.436C85.4687 91.8697 193.995 167.933 272.413 150.483V88.8573ZM272.413 -12.2182C193.995 5.23125 85.4687 -70.8799 0 -44.3131V17.3129C85.4687 -9.2539 193.995 66.8572 272.413 49.4077V-12.2182ZM272.413 190.574C193.995 208.023 85.4687 131.96 0 158.527V220.153C85.4687 193.586 193.995 269.649 272.413 252.2V190.574Z" fill="#175B4E"/>
</g>
<g clip-path="url(#clip0_1_1316)">
<path d="M108.902 77.1801C108.855 79.636 107.273 81.2658 104.675 81.2658C103.022 81.2658 102.006 80.4628 102.006 79.1873C102.006 77.6762 103.187 76.8258 105.265 76.8258H108.902V77.1801H108.902ZM114.948 80.4628C114.168 80.4628 113.79 80.2736 113.79 79.329V72.9292C113.79 68.5838 110.862 66.3407 105.809 66.3407C101.014 66.3407 97.7794 68.6548 97.4252 72.1734H102.219C102.431 70.8512 103.73 69.9775 105.667 69.9775C107.745 69.9775 108.902 71.0166 108.902 72.646V73.5199H105.312C99.8807 73.5199 97.0001 75.6925 97.0001 79.5413C97.0001 82.9896 99.8102 84.8549 103.73 84.8549C106.541 84.8549 108.383 83.6981 109.634 81.6909C109.61 83.4148 110.414 84.6426 112.988 84.6426H115.514V80.4628H114.948H114.948Z" fill="white"/>
<path d="M117.451 70.7332H126.094L117.049 81.2657V84.6429H133.202V80.4629H123.732L132.777 69.9302V66.5533H117.451V70.7332Z" fill="white"/>
<path d="M134.667 84.6425H139.673V66.553H134.667V84.6425Z" fill="white"/>
<path d="M137.169 64.6168C138.776 64.6168 140.051 63.4123 140.051 61.8302C140.051 60.2242 138.775 59.0196 137.169 59.0196C135.54 59.0196 134.288 60.2242 134.288 61.8302C134.288 63.4123 135.54 64.6168 137.169 64.6168Z" fill="white"/>
<path fill-rule="evenodd" clip-rule="evenodd" d="M150.985 80.817C148.269 80.817 146.569 78.668 146.569 75.5508C146.569 72.5042 148.269 70.3788 150.985 70.3788C153.677 70.3788 155.448 72.5042 155.448 75.5508C155.448 78.668 153.677 80.817 150.985 80.817ZM152.071 66.3408C149.497 66.3408 147.679 67.498 146.498 69.0564V66.5531H141.68V91.6799H146.639V82.3522C147.796 83.8395 149.592 84.855 152.095 84.855C156.959 84.855 160.478 81.2658 160.478 75.6218C160.478 69.9301 156.959 66.3172 152.071 66.3408H152.071Z" fill="white"/>
<path d="M173.065 77.1801C173.018 79.636 171.436 81.2658 168.838 81.2658C167.185 81.2658 166.169 80.4628 166.169 79.1873C166.169 77.6762 167.35 76.8258 169.428 76.8258H173.065V77.1801H173.065ZM179.111 80.4628C178.331 80.4628 177.954 80.2736 177.954 79.329V72.9292C177.954 68.5838 175.026 66.3407 169.948 66.3407C165.178 66.3407 161.943 68.6548 161.588 72.1734H166.359C166.571 70.8512 167.893 69.9775 169.806 69.9775C171.884 69.9775 173.065 71.0166 173.065 72.646V73.5199H169.476C164.044 73.5199 161.163 75.6925 161.163 79.5413C161.163 82.9896 163.973 84.8549 167.893 84.8549C170.704 84.8549 172.522 83.6981 173.797 81.6909C173.75 83.4148 174.577 84.6426 177.127 84.6426H179.677V80.4628H179.111Z" fill="white"/>
<path d="M185.841 84.7369L185.392 85.9415C184.896 87.1693 184.471 87.4999 183.196 87.4999H180.457V91.6797H185.274C188.084 91.6797 189.006 90.1924 190.139 87.2166L198.168 66.5534H192.855L188.557 79.4235L184.164 66.5534H178.874L185.841 84.7369H185.841Z" fill="white"/>
<path fill-rule="evenodd" clip-rule="evenodd" d="M95.3939 79.7071C89.1827 81.1004 80.5869 75.0785 73.833 77.1802V82.0448C80.5869 79.943 89.1827 85.9651 95.3939 84.5717V79.7071Z" fill="white"/>
<path fill-rule="evenodd" clip-rule="evenodd" d="M95.3939 71.6542C89.1827 73.0474 80.5869 67.0255 73.833 69.1271V73.9922C80.5869 71.8901 89.1827 77.912 95.3939 76.5424V71.6541V71.6542Z" fill="white"/>
<path fill-rule="evenodd" clip-rule="evenodd" d="M95.3939 63.6722C89.1827 65.0419 80.5869 59.0198 73.833 61.1218V66.0099C80.5869 63.9083 89.1827 69.9303 95.3939 68.537V63.6723V63.6722Z" fill="white"/>
</g>
<defs>
<clipPath id="clip0_1_1316">
<rect width="124.335" height="32.6604" fill="white" transform="translate(73.833 59.0195)"/>
</clipPath>
</defs>
</svg>
